<svg width="126" height="30" viewBox="0 0 126 30" fill="none" xmlns="http://www.w3.org/2000/svg">
<g clip-path="url(#clip0_17427_3025)">
<path d="M32.0728 22.1067V2.9071H43.4468V5.31422H34.428V11.2174H42.5277V13.6245H34.428V19.6423H44.0787V22.0494H32.0728V22.1067Z" fill="#E43225"/>
<path d="M56.0275 22.1067L52.1212 17.0059L48.215 22.1067H45.4576L50.8 15.2865L45.1704 8.23712H48.2724L52.1212 13.5098L56.0275 8.23712H59.0721L53.7297 15.2865L58.7848 22.1067H56.0275Z" fill="#E43225"/>
<path d="M62.5759 20.0435V29.5H60.2207V15.3438C60.2207 11.7332 62.978 7.89325 67.2864 7.89325C71.6522 7.89325 74.9266 10.6442 74.9266 15.1719C74.9266 19.5849 71.5948 22.6225 67.8034 22.6225C65.9652 22.6225 63.4951 21.8201 62.5759 20.0435ZM72.4564 15.1719C72.4564 12.077 70.4459 10.243 66.8843 10.415C65.161 10.4723 62.5185 11.7332 62.7483 16.1462C62.8057 17.579 64.2993 20.2727 67.5736 20.2727C70.3884 20.2727 72.4564 18.668 72.4564 15.1719Z" fill="#E43225"/>
<path d="M76.937 22.1067V8.23712H79.2923V9.72724C80.4411 8.40905 82.2219 7.95056 84.1176 7.95056V10.4723C83.8304 10.415 81.0156 10.0711 79.2923 13.7391V22.164H76.937V22.1067Z" fill="#E43225"/>
<path d="M84.7495 15.1719C84.7495 11.16 87.6218 7.89325 91.5854 7.89325C96.5257 7.89325 98.3639 11.16 98.3639 15.3438V16.4901H87.3345C87.5069 19.1265 89.8621 20.5019 92.045 20.4446C93.6535 20.3873 94.7449 19.9288 95.8938 18.7826L97.4448 20.3873C96.0087 21.7628 94.1705 22.6798 91.9301 22.6798C87.7366 22.6225 84.7495 19.5276 84.7495 15.1719ZM91.4131 10.2431C89.1728 10.2431 87.4494 12.1917 87.3345 14.3122H95.8938C95.8938 12.249 94.4002 10.2431 91.4131 10.2431Z" fill="#E43225"/>
<path d="M99.5703 20.1581L101.294 18.6107C101.236 18.6107 102.155 19.5277 102.27 19.585C102.672 19.9289 103.074 20.1581 103.591 20.2727C105.085 20.6739 107.785 20.5593 108.015 18.4961C108.13 17.3498 107.268 16.7194 106.291 16.3182C105.028 15.8597 103.649 15.6878 102.385 15.1146C100.949 14.4842 100.03 13.3953 100.03 11.7905C100.03 7.60673 106.004 6.91898 108.704 8.8676C108.819 8.98222 110.14 10.1858 110.083 10.1858L108.359 11.5613C107.498 10.5296 106.693 10.0138 104.855 10.0138C103.936 10.0138 102.672 10.415 102.443 11.3893C102.098 12.7648 103.649 13.2806 104.683 13.5672C106.062 13.9111 107.555 14.1403 108.761 14.8854C110.427 15.917 110.829 18.1522 110.198 19.8715C109.508 21.7628 107.44 22.5079 105.602 22.5652C103.419 22.6799 101.523 21.9921 99.9724 20.4447C99.8575 20.4447 99.5703 20.1581 99.5703 20.1581Z" fill="#E43225"/>
<path d="M111.691 20.1581L113.415 18.6107C113.357 18.6107 114.276 19.5277 114.391 19.585C114.793 19.9289 115.196 20.1581 115.713 20.2727C117.206 20.6739 119.906 20.5593 120.136 18.4961C120.251 17.3498 119.389 16.7194 118.412 16.3182C117.149 15.8597 115.77 15.6878 114.506 15.1146C113.07 14.4842 112.151 13.3953 112.151 11.7905C112.151 7.60673 118.125 6.91898 120.825 8.8676C120.94 8.98222 122.261 10.1858 122.204 10.1858L120.48 11.5613C119.619 10.5296 118.815 10.0138 116.976 10.0138C116.057 10.0138 114.793 10.415 114.564 11.3893C114.219 12.7648 115.77 13.2806 116.804 13.5672C118.183 13.9111 119.676 14.1403 120.883 14.8854C122.548 15.917 122.951 18.1522 122.319 19.8715C121.629 21.7628 119.561 22.5079 117.723 22.5652C115.54 22.6799 113.645 21.9921 112.094 20.4447C111.979 20.4447 111.691 20.1581 111.691 20.1581Z" fill="#E43225"/>
<path d="M122.893 8.23713V6.74701H122.376V6.46045H123.755V6.74701H123.238V8.23713H122.893Z" fill="#E43225"/>
<path d="M125.478 8.23713V6.86163L124.961 8.23713H124.846L124.329 6.86163V8.23713H124.042V6.46045H124.502L124.961 7.66401L125.421 6.46045H125.88V8.23713H125.478Z" fill="#E43225"/>
<path d="M16.1033 22.1067L14.3799 17.5217H5.07385L3.3505 22.1067H0.880371L8.3482 2.9071H11.0481L18.4585 22.1067H16.1033ZM9.61199 5.65809L6.10786 15.1719H13.4033L9.61199 5.65809Z" fill="#F7971D"/>
<path d="M20.0093 22.1067V2.9071H22.422V22.1067H20.0093Z" fill="#F7971D"/>
<path d="M26.041 22.1067V8.52374H28.4537V22.1067H26.041Z" fill="#F7971D"/>
<path d="M30.7516 4.11066C30.7516 4.05335 30.7516 4.05335 30.7516 3.99604C30.7516 3.93873 30.7516 3.93873 30.7516 3.88142C28.9133 3.82411 27.4198 2.33399 27.3623 0.5C27.3049 0.5 27.2474 0.5 27.19 0.5C27.1326 0.5 27.0751 0.5 27.0177 0.5C26.9602 2.33399 25.4667 3.82411 23.6284 3.88142C23.6284 3.93873 23.6284 3.93873 23.6284 3.99604C23.6284 4.05335 23.6284 4.05335 23.6284 4.11066C25.4667 4.16798 26.9602 5.6581 27.0177 7.49209C27.0751 7.49209 27.1326 7.49209 27.19 7.49209C27.2474 7.49209 27.3049 7.49209 27.3623 7.49209C27.4198 5.6581 28.9133 4.16798 30.7516 4.11066Z" fill="#F7971D"/>
</g>
<defs>
<clipPath id="clip0_17427_3025">
<rect width="125" height="29" fill="white" transform="translate(0.880371 0.5)"/>
</clipPath>
</defs>
</svg>
