<svg width="85" height="29" viewBox="0 0 85 29" fill="none" xmlns="http://www.w3.org/2000/svg">
<path d="M81.5356 9.68022C80.8446 8.76487 79.9589 8.02406 78.9465 7.51443C77.9341 7.0048 76.8217 6.73986 75.6943 6.73986C74.567 6.73986 73.4546 7.0048 72.4422 7.51443C71.4297 8.02406 70.5441 8.76487 69.8531 9.68022C68.9268 11.0383 68.441 12.662 68.4647 14.3202C68.441 15.9785 68.9268 17.6022 69.8531 18.9602C70.5441 19.8756 71.4297 20.6164 72.4422 21.126C73.4546 21.6356 74.567 21.9006 75.6943 21.9006C76.8217 21.9006 77.9341 21.6356 78.9465 21.126C79.9589 20.6164 80.8446 19.8756 81.5356 18.9602C82.4615 17.602 82.9473 15.9784 82.924 14.3202C82.9473 12.662 82.4615 11.0384 81.5356 9.68022ZM79.2217 16.0602C78.6912 17.69 77.4326 18.9602 75.6887 19.0008C73.9448 19.0414 72.6862 17.69 72.1614 16.0602C71.786 14.9323 71.786 13.7081 72.1614 12.5802C72.6919 10.9504 73.9504 9.68022 75.6887 9.63962C77.427 9.59902 78.6912 10.9504 79.2217 12.5802C79.5954 13.7064 79.5954 14.9282 79.2217 16.0544V16.0602ZM26.0293 21.5122C26.0293 21.6261 25.9853 21.7352 25.907 21.8157C25.8287 21.8962 25.7225 21.9414 25.6117 21.9414H23.1849C23.0741 21.9414 22.9679 21.8962 22.8896 21.8157C22.8113 21.7352 22.7673 21.6261 22.7673 21.5122V1.00922C22.7673 0.895386 22.8113 0.786217 22.8896 0.705727C22.9679 0.625236 23.0741 0.580017 23.1849 0.580017H25.6117C25.7225 0.580017 25.8287 0.625236 25.907 0.705727C25.9853 0.786217 26.0293 0.895386 26.0293 1.00922V21.5122ZM20.3292 21.5122C20.3292 21.6261 20.2852 21.7352 20.2068 21.8157C20.1285 21.8962 20.0223 21.9414 19.9115 21.9414H17.4847C17.3739 21.9414 17.2677 21.8962 17.1894 21.8157C17.1111 21.7352 17.0671 21.6261 17.0671 21.5122V1.00922C17.0671 0.896384 17.1103 0.788085 17.1874 0.707759C17.2645 0.627433 17.3693 0.581542 17.4791 0.580017H19.9059C20.0166 0.580017 20.1229 0.625236 20.2012 0.705727C20.2795 0.786217 20.3235 0.895386 20.3235 1.00922V21.5122H20.3292ZM67.9173 7.59222V9.33222C67.9271 9.40732 67.9184 9.48374 67.8919 9.55449C67.8655 9.62523 67.8222 9.68802 67.7661 9.73709C67.7099 9.78616 67.6426 9.81995 67.5704 9.83535C67.4982 9.85075 67.4234 9.84726 67.3529 9.82522C64.61 9.24522 62.9225 10.498 62.9225 13.1022V21.5122C62.9225 21.6261 62.8785 21.7352 62.8002 21.8157C62.7219 21.8962 62.6157 21.9414 62.5049 21.9414H60.0781C59.9673 21.9414 59.8611 21.8962 59.7828 21.8157C59.7045 21.7352 59.6605 21.6261 59.6605 21.5122V12.9224C59.6459 12.1099 59.7976 11.3033 60.1058 10.555C60.414 9.80658 60.8718 9.13312 61.4495 8.57822C62.6359 7.3862 64.232 6.7234 65.8912 6.73382C66.4591 6.73538 67.0258 6.78974 67.5843 6.89622C67.8721 6.99482 67.9173 7.16882 67.9173 7.61542V7.59222ZM57.5271 14.3144C57.5579 12.6551 57.0714 11.0293 56.1388 9.67442C55.4477 8.75907 54.5621 8.01826 53.5497 7.50863C52.5372 6.999 51.4248 6.73406 50.2975 6.73406C49.1701 6.73406 48.0577 6.999 47.0453 7.50863C46.0329 8.01826 45.1473 8.75907 44.4562 9.67442C43.539 11.0382 43.0477 12.6566 43.0477 14.3144C43.0477 15.9722 43.539 17.5907 44.4562 18.9544C45.1361 19.8822 46.0195 20.632 47.0345 21.143C48.0494 21.6539 49.1674 21.9116 50.2975 21.895C51.7776 21.9 53.2257 21.4517 54.4569 20.6074V22.4402C54.4569 24.9284 52.3405 25.3808 50.986 25.4678C50.054 25.4995 49.1211 25.4471 48.198 25.3112C47.8255 25.2532 47.5659 25.3112 47.5659 25.723V27.927C47.5681 27.9765 47.5797 28.0251 47.6002 28.07C47.6207 28.1149 47.6496 28.1552 47.6852 28.1886C47.7209 28.222 47.7626 28.2479 47.8079 28.2647C47.8533 28.2815 47.9015 28.289 47.9497 28.2866C51.0932 28.565 53.2096 28.507 54.8012 27.5732C55.9162 26.8956 56.7437 25.8134 57.1208 24.5398C57.4023 23.5572 57.5374 22.5364 57.5215 21.5122V14.3144H57.5271ZM50.2975 18.9892C48.5536 18.9892 47.295 17.6784 46.7645 16.0486C46.3891 14.9207 46.3891 13.6965 46.7645 12.5686C47.295 10.9388 48.5536 9.62802 50.2975 9.62802C54.1973 9.62802 54.3271 13.717 54.3271 14.3086C54.3271 14.9002 54.1973 18.9892 50.2975 18.9892ZM14.8434 12.8122C14.8434 10.8344 14.4145 9.33222 13.4889 8.29402C12.5634 7.25582 10.7009 6.73962 8.97393 6.73962C7.24043 6.73265 5.53623 7.19901 4.03565 8.09102C3.98868 8.11956 3.94987 8.16033 3.92311 8.20921C3.89636 8.25808 3.88262 8.31334 3.88327 8.36942L4.01308 10.5502C4.02461 10.6181 4.05348 10.6815 4.09673 10.7341C4.13997 10.7868 4.19605 10.8266 4.25921 10.8496C4.32238 10.8726 4.39035 10.878 4.45619 10.8651C4.52203 10.8523 4.58335 10.8216 4.63389 10.7764C6.7503 9.43662 9.28999 9.18722 10.5824 9.86002C10.938 10.0706 11.2309 10.3768 11.4298 10.7458C11.6287 11.1147 11.726 11.5323 11.7112 11.9538V12.2728H8.18381C6.66564 12.2728 2.01519 12.8528 2.01519 17.2434V17.2898C1.979 17.958 2.09659 18.6255 2.3584 19.2382C2.62022 19.8509 3.01889 20.3915 3.52207 20.8162C4.62119 21.6119 5.94981 22.0023 7.2921 21.924H14.4314C14.5422 21.924 14.6484 21.8788 14.7268 21.7983C14.8051 21.7178 14.8491 21.6087 14.8491 21.4948V12.7948L14.8434 12.8122ZM11.7112 19.2444H7.49527C6.95435 19.2285 6.43167 19.04 5.99968 18.705C5.77747 18.5447 5.59695 18.3307 5.47395 18.082C5.35095 17.8332 5.28923 17.5572 5.29421 17.2782C5.29421 16.4952 5.80779 14.9292 8.3757 14.9292H11.7112V19.2444ZM34.9634 6.73962C30.6459 6.73962 28.7553 9.71502 28.1514 12.2322C27.9853 12.9111 27.9019 13.6086 27.9031 14.3086C27.8797 15.9668 28.3655 17.5904 29.2914 18.9486C29.9833 19.863 30.8691 20.6032 31.8813 21.1128C32.8936 21.6223 34.0056 21.8879 35.1327 21.8892C37.4636 21.9762 39.0213 21.5702 40.2121 20.8742C40.3282 20.7972 40.4179 20.6847 40.4685 20.5526C40.5192 20.4204 40.5282 20.2753 40.4943 20.1376V18.2062C40.4943 17.8118 40.2629 17.6262 39.9299 17.864C38.536 18.7821 36.8819 19.1907 35.2343 19.024C34.296 19.0113 33.3947 18.6463 32.7002 17.9978C32.0058 17.3493 31.5662 16.462 31.4643 15.5034H41.0587C41.1625 15.5034 41.2621 15.4615 41.336 15.3866C41.41 15.3117 41.4522 15.2099 41.4537 15.1032C41.623 12.4062 40.8611 6.73962 34.9634 6.73962ZM31.5151 12.8354C31.5345 12.3914 31.6396 11.9558 31.8244 11.5539C32.0091 11.1521 32.2698 10.792 32.5912 10.4946C32.9126 10.1972 33.2884 9.96848 33.6966 9.8217C34.1048 9.67492 34.5373 9.61303 34.969 9.63962C35.3822 9.61363 35.796 9.67881 36.1826 9.83079C36.5693 9.98277 36.9198 10.218 37.2106 10.5207C37.5014 10.8235 37.7258 11.1866 37.8688 11.5859C38.0117 11.9851 38.0698 12.4112 38.0392 12.8354H31.5151Z" fill="#FF5A00"/>
</svg>
