<svg width="90" height="28" viewBox="0 0 90 28" fill="none" xmlns="http://www.w3.org/2000/svg">
<g clip-path="url(#clip0_17427_2982)">
<path fill-rule="evenodd" clip-rule="evenodd" d="M56.0941 21.8969C50.9222 25.8767 43.4258 28 36.9715 28C27.9216 28 19.7743 24.5056 13.6106 18.6936C13.1263 18.2366 13.5602 17.6138 14.1414 17.9697C20.7932 22.0101 29.018 24.4409 37.5139 24.4409C43.2437 24.4409 49.5469 23.2032 55.3426 20.635C56.2181 20.2467 56.9503 21.2336 56.0941 21.8969Z" fill="#FF9900"/>
<path fill-rule="evenodd" clip-rule="evenodd" d="M58.2444 19.3286C57.5858 18.4469 53.8744 18.9121 52.2086 19.1183C51.7011 19.183 51.6236 18.722 52.0807 18.3903C55.0366 16.2184 59.887 16.8453 60.4526 17.5733C61.0183 18.3054 60.3054 23.3812 57.5277 25.8039C57.1015 26.176 56.6948 25.9778 56.8846 25.4844C57.5083 23.8585 58.9069 20.2144 58.2444 19.3286Z" fill="#FF9900"/>
<path fill-rule="evenodd" clip-rule="evenodd" d="M52.3248 3.05763V0.946408C52.3248 0.626894 52.5573 0.412537 52.8362 0.412537H61.89C62.1806 0.412537 62.413 0.630939 62.413 0.946408V2.75429C62.4091 3.05763 62.1651 3.45399 61.7312 4.08088L57.0396 11.0738C58.783 11.0293 60.6232 11.3003 62.2038 12.2305C62.5602 12.4408 62.6571 12.7482 62.6842 13.0516V15.3043C62.6842 15.6117 62.3588 15.9717 62.0179 15.7856C59.2324 14.2609 55.5326 14.095 52.4527 15.8018C52.1389 15.9798 51.8096 15.6238 51.8096 15.3165V13.1769C51.8096 12.8332 51.8134 12.2467 52.1427 11.725L57.5781 3.58746H52.8478C52.5573 3.58746 52.3248 3.3731 52.3248 3.05763Z" fill="black"/>
<path fill-rule="evenodd" clip-rule="evenodd" d="M19.2978 16.2306H16.5433C16.2798 16.2103 16.0706 16.0041 16.0513 15.7412V0.982857C16.0513 0.68761 16.2876 0.453028 16.582 0.453028H19.1506C19.4179 0.465153 19.6309 0.679518 19.6503 0.946454V2.87568H19.7007C20.3709 1.01117 21.63 0.141602 23.3269 0.141602C25.0508 0.141602 26.1278 1.01117 26.9027 2.87568C27.569 1.01117 29.0838 0.141602 30.707 0.141602C31.8615 0.141602 33.1245 0.639073 33.8954 1.75535C34.7671 2.99701 34.5889 4.80085 34.5889 6.38224L34.585 15.6967C34.585 15.9919 34.3487 16.2306 34.0543 16.2306H31.3037C31.0286 16.2103 30.8078 15.9798 30.8078 15.6967V7.87466C30.8078 7.25181 30.862 5.69873 30.7303 5.10823C30.525 4.11733 29.909 3.83826 29.1109 3.83826C28.4446 3.83826 27.7472 4.30338 27.4644 5.04756C27.1816 5.79175 27.2087 7.03745 27.2087 7.87466V15.6967C27.2087 15.9919 26.9724 16.2306 26.678 16.2306H23.9273C23.6484 16.2103 23.4315 15.9798 23.4315 15.6967L23.4276 7.87466C23.4276 6.22855 23.6871 3.80591 21.7307 3.80591C19.7511 3.80591 19.8285 6.16788 19.8285 7.87466V15.6967C19.8285 15.9919 19.5922 16.2306 19.2978 16.2306" fill="black"/>
<path fill-rule="evenodd" clip-rule="evenodd" d="M70.2074 0.141602C74.2946 0.141602 76.5067 3.80591 76.5067 8.46516C76.5067 12.9667 74.0621 16.538 70.2074 16.538C66.1938 16.538 64.0088 12.8736 64.0088 8.30742C64.0088 3.71288 66.2209 0.141602 70.2074 0.141602ZM70.2306 3.15475C68.2006 3.15475 68.0727 6.04251 68.0727 7.84231C68.0727 9.64615 68.0456 13.4965 70.2074 13.4965C72.342 13.4965 72.4427 10.3903 72.4427 8.49751C72.4427 7.25181 72.3924 5.76344 72.0321 4.58245C71.7221 3.55515 71.1062 3.15475 70.2306 3.15475Z" fill="black"/>
<path fill-rule="evenodd" clip-rule="evenodd" d="M81.8066 16.2306H79.0637C78.7887 16.2103 78.5678 15.9798 78.5678 15.6967L78.564 0.934321C78.5872 0.66334 78.8158 0.453028 79.0947 0.453028H81.6478C81.8879 0.465153 82.0855 0.63503 82.1398 0.865566V3.12239H82.1901C82.9611 1.10419 84.042 0.141602 85.9441 0.141602C87.18 0.141602 88.3848 0.606718 89.1597 1.88073C89.8802 3.06172 89.8802 5.04756 89.8802 6.47527V15.7655C89.8492 16.0243 89.6207 16.2306 89.3495 16.2306H86.5872C86.3354 16.2103 86.1262 16.0162 86.0991 15.7655V7.74928C86.0991 6.13553 86.2773 3.77355 84.3751 3.77355C83.7049 3.77355 83.0889 4.24271 82.7829 4.95454C82.3955 5.85646 82.3451 6.75434 82.3451 7.74928V15.6967C82.3412 15.9919 82.101 16.2306 81.8066 16.2306" fill="black"/>
<path fill-rule="evenodd" clip-rule="evenodd" d="M45.107 9.18099C45.107 10.3013 45.1341 11.2356 44.5917 12.2305C44.154 13.0394 43.4566 13.5369 42.6857 13.5369C41.628 13.5369 41.0082 12.6956 41.0082 11.454C41.0082 9.00303 43.1118 8.55814 45.107 8.55814V9.18099ZM47.8847 16.1901C47.7027 16.3599 47.4392 16.3721 47.2339 16.2588C46.3196 15.4661 46.153 15.0981 45.6533 14.3418C44.1423 15.9515 43.0692 16.4327 41.1128 16.4327C38.7922 16.4327 36.9907 14.9403 36.9907 11.9515C36.9907 9.61779 38.1994 8.02831 39.9273 7.25177C41.4227 6.5642 43.5109 6.44287 45.107 6.25278V5.88068C45.107 5.19716 45.1574 4.38827 44.77 3.79778C44.4368 3.26795 43.7937 3.04954 43.2242 3.04954C42.1743 3.04954 41.2406 3.61173 41.0121 4.77654C40.9656 5.03539 40.7835 5.29019 40.5317 5.30232L37.8624 5.00303C37.6377 4.95045 37.3859 4.76036 37.4517 4.4004C38.0639 1.01921 40.9927 0 43.6116 0C44.952 0 46.7031 0.372093 47.7608 1.43175C49.1012 2.73812 48.9734 4.48129 48.9734 6.37816V10.8594C48.9734 12.2063 49.508 12.7968 50.0116 13.5248C50.186 13.7836 50.2247 14.095 50 14.2892C49.4383 14.7786 48.4387 15.6886 47.8886 16.1982L47.8847 16.1901" fill="black"/>
<path fill-rule="evenodd" clip-rule="evenodd" d="M8.99664 9.18123C8.99664 10.3016 9.02376 11.2358 8.48138 12.2308C8.0436 13.0397 7.35014 13.5371 6.57532 13.5371C5.51768 13.5371 4.9017 12.6959 4.9017 11.4542C4.9017 9.00327 7.00534 8.55838 8.99664 8.55838V9.18123ZM11.7744 16.1903C11.5923 16.3602 11.3289 16.3723 11.1235 16.2591C10.2092 15.4664 10.0465 15.0983 9.54289 14.342C8.03198 15.9517 6.96273 16.433 5.00243 16.433C2.68571 16.433 0.880371 14.9406 0.880371 11.9517C0.880371 9.61803 2.09297 8.02855 3.81695 7.25201C5.31236 6.56445 7.4005 6.44311 8.99664 6.25302V5.88093C8.99664 5.19741 9.047 4.38851 8.66346 3.79802C8.32641 3.26819 7.68331 3.04979 7.11769 3.04979C6.06781 3.04979 5.13027 3.61197 4.9017 4.77678C4.85521 5.03563 4.67313 5.29043 4.42518 5.30257L1.75205 5.00327C1.52735 4.9507 1.2794 4.7606 1.34139 4.40065C1.95737 1.01946 4.88233 0.000244141 7.50123 0.000244141C8.84167 0.000244141 10.5928 0.372338 11.6504 1.43199C12.9908 2.73836 12.863 4.48154 12.863 6.3784V10.8597C12.863 12.2065 13.3976 12.797 13.9013 13.525C14.0795 13.7839 14.1182 14.0953 13.8935 14.2894C13.3318 14.7788 12.3322 15.6888 11.7821 16.1984L11.7744 16.1903" fill="black"/>
</g>
<defs>
<clipPath id="clip0_17427_2982">
<rect width="89" height="28" fill="white" transform="translate(0.880371)"/>
</clipPath>
</defs>
</svg>
