<svg width="164" height="35" viewBox="0 0 164 35" fill="none" xmlns="http://www.w3.org/2000/svg">
<path d="M52.9573 12.1426L50.7184 19.2348H48.9149L51.9735 10.6795H53.1213L52.9573 12.1426ZM54.8174 19.2348L52.5728 12.1426L52.3919 10.6795H53.5509L56.6266 19.2348H54.8174ZM54.7156 16.0501V17.4309H50.3679V16.0501H54.7156Z" fill="black"/>
<path d="M60.5955 16.1852H58.498V14.8103H60.5955C60.9197 14.8103 61.1835 14.7554 61.3871 14.6457C61.5906 14.5321 61.7395 14.3754 61.8337 14.1757C61.928 13.9759 61.9751 13.7506 61.9751 13.4999C61.9751 13.2453 61.928 13.0083 61.8337 12.789C61.7395 12.5696 61.5906 12.3933 61.3871 12.2601C61.1835 12.127 60.9197 12.0604 60.5955 12.0604H59.086V19.2348H57.3899V10.6795H60.5955C61.2401 10.6795 61.7923 10.801 62.2521 11.0438C62.7157 11.2828 63.07 11.6138 63.315 12.0369C63.56 12.4599 63.6825 12.9437 63.6825 13.4882C63.6825 14.0405 63.56 14.5184 63.315 14.9219C63.07 15.3254 62.7157 15.6368 62.2521 15.8562C61.7923 16.0755 61.2401 16.1852 60.5955 16.1852Z" fill="black"/>
<path d="M66.6564 10.6795V19.2348H64.9659V10.6795H66.6564Z" fill="black"/>
<path d="M74.3342 16.1852H72.2367V14.8103H74.3342C74.6584 14.8103 74.9222 14.7554 75.1257 14.6457C75.3293 14.5321 75.4782 14.3754 75.5724 14.1757C75.6666 13.9759 75.7137 13.7506 75.7137 13.4999C75.7137 13.2453 75.6666 13.0083 75.5724 12.789C75.4782 12.5696 75.3293 12.3933 75.1257 12.2601C74.9222 12.127 74.6584 12.0604 74.3342 12.0604H72.8247V19.2348H71.1285V10.6795H74.3342C74.9787 10.6795 75.5309 10.801 75.9908 11.0438C76.4544 11.2828 76.8087 11.6138 77.0537 12.0369C77.2987 12.4599 77.4212 12.9437 77.4212 13.4882C77.4212 14.0405 77.2987 14.5184 77.0537 14.9219C76.8087 15.3254 76.4544 15.6368 75.9908 15.8562C75.5309 16.0755 74.9787 16.1852 74.3342 16.1852Z" fill="black"/>
<path d="M81.2262 19.3523C80.7512 19.3523 80.3253 19.2739 79.9484 19.1172C79.5715 18.9566 79.2511 18.7353 78.9873 18.4533C78.7272 18.1712 78.5274 17.8441 78.388 17.472C78.2485 17.096 78.1788 16.6964 78.1788 16.2733V16.0383C78.1788 15.5565 78.2447 15.1158 78.3767 14.7162C78.5086 14.3167 78.697 13.97 78.942 13.6762C79.1908 13.3824 79.4923 13.1572 79.8466 13.0005C80.2009 12.8399 80.6005 12.7596 81.0452 12.7596C81.4787 12.7596 81.8631 12.834 82.1986 12.9829C82.5341 13.1317 82.8149 13.3433 83.041 13.6175C83.2709 13.8917 83.4443 14.2207 83.5612 14.6046C83.678 14.9846 83.7364 15.4076 83.7364 15.8738V16.5789H78.8742V15.4507H82.1364V15.3214C82.1364 15.0864 82.095 14.8768 82.012 14.6927C81.9329 14.5047 81.8123 14.3559 81.6502 14.2462C81.4881 14.1365 81.2808 14.0816 81.0283 14.0816C80.8134 14.0816 80.6287 14.1306 80.4742 14.2285C80.3197 14.3265 80.1934 14.4636 80.0954 14.6399C80.0012 14.8161 79.9296 15.0237 79.8806 15.2627C79.8353 15.4977 79.8127 15.7563 79.8127 16.0383V16.2733C79.8127 16.528 79.8466 16.763 79.9145 16.9784C79.9861 17.1939 80.086 17.38 80.2141 17.5366C80.3461 17.6933 80.5044 17.8148 80.689 17.9009C80.8775 17.9871 81.0905 18.0302 81.3279 18.0302C81.6219 18.0302 81.8952 17.9715 82.1477 17.8539C82.404 17.7325 82.6245 17.5504 82.8092 17.3075L83.6007 18.2006C83.4726 18.3926 83.2973 18.5767 83.0749 18.7529C82.8563 18.9292 82.5925 19.0742 82.2834 19.1877C81.9743 19.2974 81.6219 19.3523 81.2262 19.3523Z" fill="black"/>
<path d="M86.2919 14.2638V19.2348H84.6637V12.8771H86.1958L86.2919 14.2638ZM88.1351 12.836L88.1068 14.4048C88.0276 14.3931 87.9315 14.3833 87.8185 14.3754C87.7091 14.3637 87.6093 14.3578 87.5188 14.3578C87.2889 14.3578 87.0891 14.3892 86.9195 14.4518C86.7537 14.5106 86.6142 14.5987 86.5011 14.7162C86.3918 14.8338 86.3089 14.9767 86.2524 15.1452C86.1996 15.3136 86.1694 15.5056 86.1619 15.721L85.834 15.6152C85.834 15.2039 85.8736 14.8259 85.9527 14.4812C86.0319 14.1326 86.1468 13.829 86.2976 13.5705C86.4521 13.3119 86.6406 13.1121 86.863 12.9711C87.0854 12.8301 87.3398 12.7596 87.6262 12.7596C87.7167 12.7596 87.809 12.7674 87.9033 12.7831C87.9975 12.7948 88.0748 12.8125 88.1351 12.836Z" fill="black"/>
<path d="M92.2114 17.4779C92.2114 17.3564 92.1775 17.2468 92.1097 17.1488C92.0418 17.0509 91.9156 16.9608 91.7309 16.8785C91.5499 16.7924 91.288 16.714 90.945 16.6435C90.6359 16.573 90.3476 16.4849 90.08 16.3791C89.8161 16.2694 89.5862 16.1382 89.3902 15.9854C89.198 15.8326 89.0472 15.6525 88.9379 15.4448C88.8286 15.2333 88.7739 14.9924 88.7739 14.7221C88.7739 14.4557 88.8286 14.205 88.9379 13.97C89.051 13.735 89.2112 13.5274 89.4185 13.3472C89.6295 13.1631 89.8858 13.0201 90.1874 12.9182C90.4927 12.8125 90.8357 12.7596 91.2164 12.7596C91.7478 12.7596 92.2039 12.8477 92.5846 13.024C92.969 13.2003 93.263 13.4431 93.4666 13.7526C93.6739 14.0581 93.7775 14.4068 93.7775 14.7985H92.1492C92.1492 14.634 92.1153 14.4871 92.0475 14.3578C91.9834 14.2246 91.8816 14.1208 91.7422 14.0464C91.6065 13.968 91.4293 13.9289 91.2107 13.9289C91.0298 13.9289 90.8734 13.9622 90.7415 14.0288C90.6095 14.0914 90.5078 14.1776 90.4361 14.2873C90.3683 14.3931 90.3344 14.5106 90.3344 14.6399C90.3344 14.7378 90.3532 14.8259 90.3909 14.9043C90.4324 14.9787 90.4983 15.0472 90.5888 15.1099C90.6793 15.1726 90.7961 15.2314 90.9393 15.2862C91.0863 15.3371 91.2673 15.3841 91.4821 15.4272C91.9231 15.5212 92.317 15.6446 92.6637 15.7974C93.0105 15.9462 93.2857 16.1499 93.4892 16.4085C93.6927 16.6631 93.7945 16.998 93.7945 17.4132C93.7945 17.6953 93.7342 17.9538 93.6136 18.1889C93.493 18.4239 93.3196 18.6295 93.0934 18.8058C92.8673 18.9782 92.5959 19.1133 92.2793 19.2113C91.9664 19.3053 91.614 19.3523 91.222 19.3523C90.6529 19.3523 90.1704 19.2465 89.7747 19.035C89.3827 18.8234 89.0849 18.5551 88.8814 18.23C88.6816 17.9009 88.5817 17.5641 88.5817 17.2193H90.1252C90.1327 17.4505 90.1893 17.6365 90.2948 17.7775C90.4041 17.9186 90.5417 18.0204 90.7075 18.0831C90.8771 18.1458 91.06 18.1771 91.2559 18.1771C91.467 18.1771 91.6423 18.1477 91.7817 18.089C91.9212 18.0263 92.0267 17.944 92.0984 17.8422C92.1737 17.7364 92.2114 17.615 92.2114 17.4779Z" fill="black"/>
<path d="M94.5917 16.1206V15.9972C94.5917 15.531 94.6558 15.1021 94.7839 14.7104C94.9121 14.3147 95.0986 13.972 95.3436 13.6821C95.5886 13.3922 95.8902 13.167 96.2482 13.0064C96.6063 12.8418 97.0171 12.7596 97.4808 12.7596C97.9444 12.7596 98.3571 12.8418 98.7189 13.0064C99.0808 13.167 99.3842 13.3922 99.6292 13.6821C99.8779 13.972 100.066 14.3147 100.195 14.7104C100.323 15.1021 100.387 15.531 100.387 15.9972V16.1206C100.387 16.5828 100.323 17.0117 100.195 17.4074C100.066 17.7991 99.8779 18.1419 99.6292 18.4356C99.3842 18.7255 99.0827 18.9508 98.7246 19.1114C98.3665 19.272 97.9557 19.3523 97.4921 19.3523C97.0284 19.3523 96.6157 19.272 96.2539 19.1114C95.8958 18.9508 95.5924 18.7255 95.3436 18.4356C95.0986 18.1419 94.9121 17.7991 94.7839 17.4074C94.6558 17.0117 94.5917 16.5828 94.5917 16.1206ZM96.22 15.9972V16.1206C96.22 16.3869 96.2426 16.6357 96.2878 16.8668C96.333 17.0979 96.4046 17.3016 96.5026 17.4779C96.6044 17.6502 96.7363 17.7854 96.8984 17.8833C97.0605 17.9812 97.2584 18.0302 97.4921 18.0302C97.7182 18.0302 97.9123 17.9812 98.0744 17.8833C98.2365 17.7854 98.3665 17.6502 98.4645 17.4779C98.5625 17.3016 98.6341 17.0979 98.6793 16.8668C98.7283 16.6357 98.7528 16.3869 98.7528 16.1206V15.9972C98.7528 15.7386 98.7283 15.4958 98.6793 15.2686C98.6341 15.0375 98.5606 14.8338 98.4589 14.6575C98.3609 14.4773 98.2308 14.3363 98.0687 14.2344C97.9067 14.1326 97.7107 14.0816 97.4808 14.0816C97.2508 14.0816 97.0548 14.1326 96.8928 14.2344C96.7345 14.3363 96.6044 14.4773 96.5026 14.6575C96.4046 14.8338 96.333 15.0375 96.2878 15.2686C96.2426 15.4958 96.22 15.7386 96.22 15.9972Z" fill="black"/>
<path d="M102.982 14.2344V19.2348H101.354V12.8771H102.88L102.982 14.2344ZM102.744 15.8326H102.303C102.303 15.3626 102.362 14.9395 102.479 14.5635C102.596 14.1835 102.759 13.8603 102.971 13.594C103.182 13.3237 103.432 13.118 103.723 12.977C104.017 12.8321 104.344 12.7596 104.706 12.7596C104.993 12.7596 105.255 12.8027 105.492 12.8889C105.73 12.975 105.933 13.1121 106.103 13.3002C106.276 13.4882 106.408 13.7369 106.499 14.0464C106.593 14.3559 106.64 14.7339 106.64 15.1804V19.2348H105V15.1746C105 14.8925 104.963 14.6731 104.887 14.5165C104.812 14.3598 104.701 14.2501 104.554 14.1874C104.41 14.1208 104.233 14.0875 104.022 14.0875C103.804 14.0875 103.613 14.1326 103.451 14.2227C103.293 14.3128 103.161 14.4381 103.055 14.5987C102.954 14.7554 102.876 14.9395 102.824 15.1511C102.771 15.3626 102.744 15.5898 102.744 15.8326Z" fill="black"/>
<path d="M111.18 17.8011V14.9689C111.18 14.7652 111.148 14.5909 111.084 14.446C111.02 14.2971 110.92 14.1815 110.784 14.0993C110.652 14.017 110.481 13.9759 110.27 13.9759C110.089 13.9759 109.932 14.0092 109.8 14.0758C109.668 14.1384 109.567 14.2305 109.495 14.3519C109.423 14.4695 109.388 14.6085 109.388 14.7691H107.759C107.759 14.4988 107.82 14.2423 107.94 13.9994C108.061 13.7565 108.236 13.543 108.466 13.3589C108.696 13.1709 108.969 13.024 109.286 12.9182C109.606 12.8125 109.964 12.7596 110.36 12.7596C110.835 12.7596 111.257 12.8418 111.626 13.0064C111.996 13.1709 112.286 13.4177 112.497 13.7467C112.712 14.0758 112.819 14.4871 112.819 14.9807V17.7012C112.819 18.0498 112.84 18.3358 112.882 18.559C112.923 18.7784 112.983 18.9703 113.063 19.1349V19.2348H111.417C111.338 19.0624 111.278 18.847 111.236 18.5884C111.199 18.326 111.18 18.0635 111.18 17.8011ZM111.395 15.3626L111.406 16.3203H110.496C110.281 16.3203 110.094 16.3458 109.936 16.3967C109.778 16.4477 109.648 16.5201 109.546 16.6141C109.444 16.7042 109.369 16.81 109.32 16.9314C109.275 17.0529 109.252 17.186 109.252 17.331C109.252 17.4759 109.284 17.6072 109.348 17.7247C109.412 17.8383 109.504 17.9284 109.625 17.995C109.746 18.0576 109.887 18.089 110.049 18.089C110.294 18.089 110.507 18.038 110.688 17.9362C110.869 17.8343 111.008 17.709 111.106 17.5601C111.208 17.4113 111.261 17.2703 111.265 17.1371L111.694 17.8539C111.634 18.0145 111.551 18.181 111.446 18.3534C111.344 18.5257 111.214 18.6883 111.055 18.8411C110.897 18.9899 110.707 19.1133 110.484 19.2113C110.262 19.3053 109.998 19.3523 109.693 19.3523C109.305 19.3523 108.952 19.272 108.636 19.1114C108.323 18.9468 108.074 18.7216 107.889 18.4356C107.708 18.1458 107.618 17.8167 107.618 17.4485C107.618 17.1155 107.678 16.8198 107.799 16.5613C107.919 16.3027 108.097 16.0853 108.33 15.909C108.568 15.7288 108.864 15.5937 109.218 15.5036C109.572 15.4096 109.983 15.3626 110.451 15.3626H111.395Z" fill="black"/>
<path d="M115.793 10.2095V19.2348H114.159V10.2095H115.793Z" fill="black"/>
<path d="M118.858 12.8771V19.2348H117.224V12.8771H118.858ZM117.122 11.2201C117.122 10.9733 117.205 10.7696 117.371 10.609C117.537 10.4484 117.759 10.3681 118.038 10.3681C118.313 10.3681 118.534 10.4484 118.699 10.609C118.869 10.7696 118.954 10.9733 118.954 11.2201C118.954 11.4669 118.869 11.6706 118.699 11.8312C118.534 11.9918 118.313 12.0721 118.038 12.0721C117.759 12.0721 117.537 11.9918 117.371 11.8312C117.205 11.6706 117.122 11.4669 117.122 11.2201Z" fill="black"/>
<path d="M125.071 17.9127V19.2348H120.424V17.9127H125.071ZM124.981 13.8525L121.08 19.2348H119.988V18.23L123.873 12.8771H124.981V13.8525ZM124.404 12.8771V14.205H120.079V12.8771H124.404Z" fill="black"/>
<path d="M129.396 17.8011V14.9689C129.396 14.7652 129.364 14.5909 129.3 14.446C129.236 14.2971 129.136 14.1815 129.001 14.0993C128.869 14.017 128.697 13.9759 128.486 13.9759C128.305 13.9759 128.149 14.0092 128.017 14.0758C127.885 14.1384 127.783 14.2305 127.711 14.3519C127.64 14.4695 127.604 14.6085 127.604 14.7691H125.976C125.976 14.4988 126.036 14.2423 126.157 13.9994C126.277 13.7565 126.453 13.543 126.682 13.3589C126.912 13.1709 127.186 13.024 127.502 12.9182C127.823 12.8125 128.181 12.7596 128.576 12.7596C129.051 12.7596 129.474 12.8418 129.843 13.0064C130.212 13.1709 130.503 13.4177 130.714 13.7467C130.928 14.0758 131.036 14.4871 131.036 14.9807V17.7012C131.036 18.0498 131.057 18.3358 131.098 18.559C131.14 18.7784 131.2 18.9703 131.279 19.1349V19.2348H129.634C129.555 19.0624 129.494 18.847 129.453 18.5884C129.415 18.326 129.396 18.0635 129.396 17.8011ZM129.611 15.3626L129.622 16.3203H128.712C128.497 16.3203 128.311 16.3458 128.152 16.3967C127.994 16.4477 127.864 16.5201 127.762 16.6141C127.661 16.7042 127.585 16.81 127.536 16.9314C127.491 17.0529 127.468 17.186 127.468 17.331C127.468 17.4759 127.5 17.6072 127.564 17.7247C127.629 17.8383 127.721 17.9284 127.841 17.995C127.962 18.0576 128.103 18.089 128.266 18.089C128.511 18.089 128.723 18.038 128.904 17.9362C129.085 17.8343 129.225 17.709 129.323 17.5601C129.425 17.4113 129.477 17.2703 129.481 17.1371L129.911 17.8539C129.85 18.0145 129.768 18.181 129.662 18.3534C129.56 18.5257 129.43 18.6883 129.272 18.8411C129.114 18.9899 128.923 19.1133 128.701 19.2113C128.478 19.3053 128.215 19.3523 127.909 19.3523C127.521 19.3523 127.169 19.272 126.852 19.1114C126.539 18.9468 126.29 18.7216 126.106 18.4356C125.925 18.1458 125.834 17.8167 125.834 17.4485C125.834 17.1155 125.895 16.8198 126.015 16.5613C126.136 16.3027 126.313 16.0853 126.547 15.909C126.784 15.7288 127.08 15.5937 127.434 15.5036C127.789 15.4096 128.2 15.3626 128.667 15.3626H129.611Z" fill="black"/>
<path d="M135.904 17.8481V10.2095H137.543V19.2348H136.068L135.904 17.8481ZM132.037 16.1323V16.0089C132.037 15.5232 132.089 15.0825 132.195 14.6869C132.3 14.2873 132.455 13.9445 132.659 13.6586C132.862 13.3726 133.113 13.1513 133.41 12.9946C133.708 12.8379 134.047 12.7596 134.428 12.7596C134.786 12.7596 135.099 12.8379 135.367 12.9946C135.638 13.1513 135.868 13.3746 136.056 13.6645C136.249 13.9504 136.403 14.2893 136.52 14.681C136.637 15.0688 136.722 15.4938 136.774 15.956V16.2263C136.722 16.669 136.637 17.0803 136.52 17.4603C136.403 17.8402 136.249 18.1732 136.056 18.4591C135.868 18.7412 135.638 18.9606 135.367 19.1172C135.095 19.2739 134.779 19.3523 134.417 19.3523C134.036 19.3523 133.697 19.272 133.399 19.1114C133.105 18.9508 132.856 18.7255 132.653 18.4356C132.453 18.1458 132.3 17.805 132.195 17.4132C132.089 17.0215 132.037 16.5945 132.037 16.1323ZM133.665 16.0089V16.1323C133.665 16.3948 133.684 16.6396 133.721 16.8668C133.763 17.094 133.829 17.2957 133.919 17.472C134.014 17.6444 134.134 17.7795 134.281 17.8774C134.432 17.9715 134.615 18.0185 134.83 18.0185C135.108 18.0185 135.338 17.9538 135.519 17.8246C135.7 17.6914 135.838 17.5092 135.932 17.2781C136.03 17.047 136.087 16.7806 136.102 16.479V15.7093C136.09 15.4625 136.056 15.2411 136 15.0453C135.947 14.8455 135.868 14.6751 135.762 14.5341C135.661 14.3931 135.533 14.2834 135.378 14.205C135.227 14.1267 135.048 14.0875 134.841 14.0875C134.63 14.0875 134.449 14.1384 134.298 14.2403C134.147 14.3382 134.025 14.4734 133.931 14.6457C133.84 14.8181 133.772 15.0218 133.727 15.2568C133.686 15.4879 133.665 15.7386 133.665 16.0089Z" fill="black"/>
<path d="M142.117 17.8011V14.9689C142.117 14.7652 142.085 14.5909 142.021 14.446C141.957 14.2971 141.857 14.1815 141.722 14.0993C141.59 14.017 141.418 13.9759 141.207 13.9759C141.026 13.9759 140.87 14.0092 140.738 14.0758C140.606 14.1384 140.504 14.2305 140.432 14.3519C140.361 14.4695 140.325 14.6085 140.325 14.7691H138.697C138.697 14.4988 138.757 14.2423 138.878 13.9994C138.998 13.7565 139.174 13.543 139.403 13.3589C139.633 13.1709 139.907 13.024 140.223 12.9182C140.544 12.8125 140.902 12.7596 141.297 12.7596C141.772 12.7596 142.195 12.8418 142.564 13.0064C142.933 13.1709 143.224 13.4177 143.435 13.7467C143.649 14.0758 143.757 14.4871 143.757 14.9807V17.7012C143.757 18.0498 143.778 18.3358 143.819 18.559C143.861 18.7784 143.921 18.9703 144 19.1349V19.2348H142.355C142.276 19.0624 142.215 18.847 142.174 18.5884C142.136 18.326 142.117 18.0635 142.117 17.8011ZM142.332 15.3626L142.343 16.3203H141.433C141.218 16.3203 141.032 16.3458 140.873 16.3967C140.715 16.4477 140.585 16.5201 140.483 16.6141C140.382 16.7042 140.306 16.81 140.257 16.9314C140.212 17.0529 140.189 17.186 140.189 17.331C140.189 17.4759 140.221 17.6072 140.285 17.7247C140.35 17.8383 140.442 17.9284 140.562 17.995C140.683 18.0576 140.824 18.089 140.987 18.089C141.232 18.089 141.444 18.038 141.625 17.9362C141.806 17.8343 141.946 17.709 142.044 17.5601C142.146 17.4113 142.198 17.2703 142.202 17.1371L142.632 17.8539C142.571 18.0145 142.489 18.181 142.383 18.3534C142.281 18.5257 142.151 18.6883 141.993 18.8411C141.835 18.9899 141.644 19.1133 141.422 19.2113C141.199 19.3053 140.936 19.3523 140.63 19.3523C140.242 19.3523 139.89 19.272 139.573 19.1114C139.26 18.9468 139.011 18.7216 138.827 18.4356C138.646 18.1458 138.555 17.8167 138.555 17.4485C138.555 17.1155 138.616 16.8198 138.736 16.5613C138.857 16.3027 139.034 16.0853 139.268 15.909C139.505 15.7288 139.801 15.5937 140.155 15.5036C140.51 15.4096 140.921 15.3626 141.388 15.3626H142.332Z" fill="black"/>
<path d="M30.3857 11.2487L29.8992 12.0913C29.7212 12.4037 29.3415 12.5333 29.0032 12.4095C28.3031 12.1503 27.6623 11.779 27.0986 11.3135C26.8257 11.0896 26.7545 10.6947 26.9325 10.3883L27.419 9.54564C27.0096 9.07421 26.6892 8.52618 26.4756 7.93101H25.4966C25.1406 7.93101 24.832 7.67762 24.7727 7.32405C24.654 6.61691 24.6481 5.87441 24.7727 5.13781C24.832 4.78424 25.1406 4.52496 25.4966 4.52496H26.4756C26.6892 3.92978 27.0096 3.38175 27.419 2.91032L26.9325 2.06765C26.7545 1.76122 26.8197 1.3664 27.0986 1.14248C27.6623 0.676945 28.309 0.305697 29.0032 0.0464129C29.3415 -0.0773364 29.7212 0.0523057 29.8992 0.364625L30.3857 1.2073C31.0088 1.09533 31.6436 1.09533 32.2666 1.2073L32.7532 0.364625C32.9312 0.0523057 33.3109 -0.0773364 33.6491 0.0464129C34.3493 0.305697 34.9901 0.676945 35.5538 1.14248C35.8267 1.3664 35.8979 1.76122 35.7199 2.06765L35.2334 2.91032C35.6428 3.38175 35.9632 3.92978 36.1768 4.52496H37.1558C37.5118 4.52496 37.8204 4.77835 37.8797 5.13192C37.9984 5.83906 38.0043 6.58155 37.8797 7.31815C37.8204 7.67172 37.5118 7.93101 37.1558 7.93101H36.1768C35.9632 8.52618 35.6428 9.07421 35.2334 9.54564L35.7199 10.3883C35.8979 10.6947 35.8326 11.0896 35.5538 11.3135C34.9901 11.779 34.3433 12.1503 33.6491 12.4095C33.3109 12.5333 32.9312 12.4037 32.7532 12.0913L32.2666 11.2487C31.6496 11.3606 31.0088 11.3606 30.3857 11.2487ZM29.7627 7.78369C32.0471 9.52796 34.6519 6.94101 32.8956 4.67228C30.6112 2.92211 28.0064 5.51495 29.7627 7.78369ZM22.9215 16.8527L24.921 17.8427C25.5203 18.1845 25.7814 18.9093 25.5441 19.5575C25.016 20.9836 23.9776 22.2918 23.0164 23.435C22.5773 23.9595 21.8178 24.0891 21.2186 23.7473L19.4919 22.7573C18.5426 23.5647 17.439 24.207 16.2345 24.6254V26.6054C16.2345 27.2889 15.742 27.8782 15.0656 27.9961C13.606 28.2436 12.0751 28.2553 10.5621 27.9961C9.87975 27.8782 9.3754 27.2948 9.3754 26.6054V24.6254C8.17091 24.2011 7.06729 23.5647 6.11794 22.7573L4.39131 23.7414C3.79796 24.0832 3.03255 23.9536 2.59347 23.4291C1.63226 22.2859 0.617636 20.9777 0.0895589 19.5575C-0.147779 18.9152 0.113293 18.1904 0.712571 17.8427L2.68841 16.8527C2.457 15.6211 2.457 14.3542 2.68841 13.1167L0.712571 12.1208C0.113293 11.779 -0.153712 11.0542 0.0895589 10.4119C0.617636 8.98582 1.63226 7.67762 2.59347 6.53441C3.03255 6.00995 3.79203 5.8803 4.39131 6.22209L6.11794 7.21208C7.06729 6.40477 8.17091 5.76245 9.3754 5.34406V3.35818C9.3754 2.6805 9.86195 2.09122 10.5384 1.97337C11.998 1.72587 13.5348 1.71408 15.0478 1.96747C15.7301 2.08533 16.2345 2.66872 16.2345 3.35818V5.33817C17.439 5.76245 18.5426 6.39887 19.4919 7.20619L21.2186 6.2162C21.8119 5.87441 22.5773 6.00405 23.0164 6.52852C23.9776 7.67172 24.9863 8.97993 25.5144 10.406C25.7517 11.0483 25.5203 11.7731 24.921 12.1208L22.9215 13.1108C23.1529 14.3483 23.1529 15.6152 22.9215 16.8527ZM15.9437 18.0961C19.4563 13.5587 14.2408 8.37886 9.67208 11.8674C6.15948 16.4049 11.375 21.5847 15.9437 18.0961ZM30.3857 28.8623L29.8992 29.705C29.7212 30.0173 29.3415 30.1469 29.0032 30.0232C28.3031 29.7639 27.6623 29.3927 27.0986 28.9271C26.8257 28.7032 26.7545 28.3084 26.9325 28.002L27.419 27.1593C27.0096 26.6879 26.6892 26.1398 26.4756 25.5446H25.4966C25.1406 25.5446 24.832 25.2913 24.7727 24.9377C24.654 24.2305 24.6481 23.4881 24.7727 22.7514C24.832 22.3979 25.1406 22.1386 25.4966 22.1386H26.4756C26.6892 21.5434 27.0096 20.9954 27.419 20.524L26.9325 19.6813C26.7545 19.3749 26.8197 18.98 27.0986 18.7561C27.6623 18.2906 28.309 17.9193 29.0032 17.6601C29.3415 17.5363 29.7212 17.6659 29.8992 17.9783L30.3857 18.8209C31.0088 18.709 31.6436 18.709 32.2666 18.8209L32.7532 17.9783C32.9312 17.6659 33.3109 17.5363 33.6491 17.6601C34.3493 17.9193 34.9901 18.2906 35.5538 18.7561C35.8267 18.98 35.8979 19.3749 35.7199 19.6813L35.2334 20.524C35.6428 20.9954 35.9632 21.5434 36.1768 22.1386H37.1558C37.5118 22.1386 37.8204 22.392 37.8797 22.7456C37.9984 23.4527 38.0043 24.1952 37.8797 24.9318C37.8204 25.2854 37.5118 25.5446 37.1558 25.5446H36.1768C35.9632 26.1398 35.6428 26.6879 35.2334 27.1593L35.7199 28.002C35.8979 28.3084 35.8326 28.7032 35.5538 28.9271C34.9901 29.3927 34.3433 29.7639 33.6491 30.0232C33.3109 30.1469 32.9312 30.0173 32.7532 29.705L32.2666 28.8623C31.6496 28.9743 31.0088 28.9743 30.3857 28.8623ZM29.7627 25.3914C32.0471 27.1357 34.6519 24.5488 32.8956 22.28C30.6112 20.5357 28.0064 23.1227 29.7627 25.3914Z" fill="black"/>
</svg>
