<svg width="89" height="71" viewBox="0 0 89 71" fill="none" xmlns="http://www.w3.org/2000/svg">
<g clip-path="url(#clip0_18853_8323)">
<path d="M18.1132 65.878C16.9594 65.878 16.1168 66.4565 16.1168 67.5636C16.1168 68.6007 16.8492 69.3235 17.9486 69.3235C18.6817 69.3235 19.4148 68.9184 19.8724 68.3391V66.8623C19.8724 66.3698 19.2307 65.878 18.1132 65.878ZM43.0509 65.6733C43.1053 67.617 44.3518 69.0231 46.4954 69.0231C47.7971 69.0231 48.7869 68.3218 49.1343 67.8813C49.2989 68.0048 49.4649 68.1893 49.4649 68.6187C49.4649 69.5857 48.2916 70.9231 45.5614 70.9231C42.8137 70.9231 40.5766 68.7443 40.5766 65.896C40.5766 62.7598 42.6477 60.5185 45.7086 60.5185C48.4911 60.5185 49.7753 62.5566 49.7753 64.2922C49.7753 64.8041 49.6651 65.2779 49.4447 65.6733H43.0509ZM46.9363 64.4171C47.3757 64.4171 47.3946 64.1611 47.3946 63.8184C47.3758 62.7959 46.568 61.849 45.3417 61.849C43.7477 61.849 43.1241 63.1774 43.0697 64.4171H46.9363ZM72.7885 65.4895C72.7885 67.8647 73.1198 69.0751 74.66 69.0751C76.3425 69.0751 76.8029 67.581 76.8029 66.2234V63.6325C76.8029 62.7425 76.3788 62.397 75.4092 62.5011C75.0067 61.5008 76.3425 60.864 77.0966 60.7176C77.3324 60.6816 77.5535 60.6455 77.7572 60.6455C78.8182 60.6455 79.2255 61.3038 79.2255 62.2874C79.2255 62.6488 79.1899 63.3079 79.1899 66.034C79.1899 67.1869 79.1711 67.7953 79.1711 67.9861C79.1711 68.8837 79.589 69.3408 80.5579 69.2361C80.9548 70.2385 79.6273 70.7136 78.8698 70.8531C78.6375 70.8877 78.4262 70.9231 78.2518 70.9231C77.2445 70.9231 77.0401 70.2731 76.8371 69.3415C76.6948 69.5163 76.5637 69.6592 76.2902 69.9214C75.6303 70.536 74.7695 70.9058 73.7972 70.9058C72.7341 70.9058 71.8363 70.5 71.2678 69.834C70.3889 68.797 70.3889 67.4602 70.3889 65.5082V63.6332C70.3889 62.7432 69.9669 62.3977 68.9966 62.5018C68.5934 61.5015 69.932 60.8647 70.6826 60.7183C70.9204 60.6823 71.1395 60.6462 71.3418 60.6462C72.4034 60.6462 72.8073 61.3045 72.8073 62.2881L72.7885 65.4895H72.7885ZM68.1539 65.6934C68.1539 62.6121 66.0103 60.5179 63.0415 60.5179C60.2938 60.5179 57.8558 62.6121 57.8558 65.6934C57.8558 68.8136 60.1459 70.9051 62.9501 70.9051C65.9175 70.9051 68.1539 68.7789 68.1539 65.6934ZM22.1632 68.4085C22.1632 69.1945 22.6752 69.4449 23.5737 69.5684C23.5186 70.4812 22.8768 70.835 22.1262 70.9051C21.2829 70.9752 20.4584 70.5867 20.1291 69.7113C19.7434 70.0595 18.6078 70.9398 17.1234 70.9398C15.09 70.9398 13.5686 69.585 13.5686 67.7398C13.5686 65.7892 15.2727 64.6335 17.673 64.6335C18.4989 64.6335 19.3583 64.8041 19.8717 65.0684V63.7622C19.8717 62.592 19.3583 61.849 18.0218 61.849C17.7463 61.849 17.1422 61.9212 16.6651 62.1015C16.7202 62.2867 16.7578 62.4845 16.7578 62.6662C16.7578 63.3807 16.2995 63.9599 15.5301 63.9599C14.8514 63.9599 14.338 63.4161 14.338 62.7217C14.338 61.446 15.9515 60.5172 18.1871 60.5172C19.9645 60.5172 21.0464 60.9361 21.6142 61.6638C22.1262 62.3041 22.1632 63.2884 22.1632 64.7091V68.4085ZM65.5339 65.8433C65.5339 68.2108 64.5071 69.4976 63.0603 69.4976C61.7775 69.4976 60.5317 68.2115 60.5317 65.4035C60.5317 63.2156 61.4476 61.8497 62.9501 61.8497C64.4338 61.8492 65.5339 63.3633 65.5339 65.8433ZM29.4185 62.2493C29.4736 62.8708 30.0052 63.3065 30.6274 63.3065C31.4156 63.3065 31.892 62.6114 31.892 61.9385C31.892 60.9902 31.1226 60.4991 30.3525 60.4991C29.4736 60.4991 28.5389 61.156 28.008 62.1383L27.9711 62.1563C27.8065 61.2837 27.3844 60.6254 26.5048 60.6254C26.3032 60.6254 26.0835 60.6628 25.8456 60.735C25.1125 60.9535 24.0313 61.5168 24.4352 62.5184C25.4613 62.3221 25.8275 62.6655 25.8275 63.5555V67.7932C25.8275 68.6347 25.718 68.987 25.4243 69.234C25.1488 69.4435 24.8565 69.5302 24.673 69.5663C24.2517 70.4792 25.0762 70.7636 27.1103 70.7636C29.1444 70.7636 29.8405 70.4799 29.4192 69.5663C29.2358 69.5295 28.723 69.4428 28.4482 69.234C28.1545 68.987 28.0269 68.6347 28.0269 67.7932V65.237C28.0263 62.9582 28.8688 62.3589 29.4185 62.2493V62.2493ZM54.6317 60.7717H57.2518C57.5636 61.5174 57.1422 62.1189 56.5556 62.1744C56.3721 62.1938 56.1706 62.1938 55.9878 62.1938C55.5107 62.1938 55.0349 62.1563 54.705 62.1563V67.7939C54.705 68.6353 54.8515 68.9877 55.1444 69.2347C55.42 69.4442 56.0617 69.5309 56.2452 69.567C56.6665 70.4798 55.676 70.7643 53.6426 70.7643C51.6092 70.7643 50.7666 70.4805 51.1872 69.567C51.37 69.5302 51.6643 69.4435 51.9385 69.2347C52.2314 68.9877 52.341 68.6353 52.341 67.7939V62.1182L50.8021 62.0641C50.4903 61.3197 50.9117 60.7898 51.5346 60.7898H52.3054V60.0607C52.3054 58.5845 52.5795 57.7639 52.9464 57.2173C53.5136 56.3426 54.4853 55.7418 56.0052 55.7418C57.9298 55.7418 59.4867 56.6346 59.4867 57.9824C59.4867 58.5658 59.0835 59.2761 58.2409 59.2761C57.6187 59.2761 57.032 58.7476 57.032 58.0927C57.032 57.818 57.1422 57.5267 57.288 57.3456C57.069 57.0903 56.6107 56.962 56.1706 56.962C54.9059 56.962 54.6317 57.8915 54.6317 59.0576V60.7717V60.7717ZM37.7557 62.2493C37.8108 62.8708 38.3424 63.3065 38.9653 63.3065C39.7535 63.3065 40.2293 62.6114 40.2293 61.9385C40.2293 60.9902 39.4599 60.4991 38.6904 60.4991C37.8108 60.4991 36.8761 61.156 36.346 62.1383L36.3083 62.1563C36.1444 61.2837 35.7223 60.6254 34.8427 60.6254C34.6418 60.6254 34.4214 60.6628 34.1835 60.735C33.4497 60.9535 32.3685 61.5167 32.7724 62.5184C33.7985 62.3221 34.164 62.6655 34.164 63.5555V67.7932C34.164 68.6346 34.0552 68.987 33.7615 69.234C33.4867 69.4435 33.1944 69.5302 33.0116 69.5663C32.5896 70.4792 33.4148 70.7636 35.4475 70.7636C37.4809 70.7636 38.1784 70.4798 37.7564 69.5663C37.5737 69.5295 37.061 69.4428 36.7854 69.234C36.4924 68.987 36.3641 68.6346 36.3641 67.7932V65.237C36.3636 62.9582 37.206 62.3589 37.7557 62.2493V62.2493ZM86.5234 62.2493C86.5848 62.8708 87.1205 63.3065 87.7462 63.3065C88.5233 63.3065 88.9997 62.6114 88.9997 61.9385C88.9997 60.9902 88.2415 60.4991 87.4609 60.4991C86.5848 60.4991 85.6605 61.156 85.1311 62.1383L85.0773 62.1563C84.9169 61.2836 84.4914 60.6253 83.6278 60.6253C83.413 60.6253 83.2044 60.6628 82.9533 60.7349C82.2306 60.9534 81.1529 61.5167 81.5456 62.5184C82.5752 62.3221 82.9358 62.6655 82.9358 63.5555V67.7932C82.9358 68.6346 82.8305 68.987 82.5278 69.234C82.2648 69.4435 81.9627 69.5302 81.7877 69.5662C81.3621 70.4791 82.1943 70.7635 84.227 70.7635C86.2604 70.7635 86.9482 70.4798 86.5227 69.5662C86.3483 69.5295 85.8356 69.4428 85.5503 69.234C85.2713 68.987 85.1478 68.6346 85.1478 67.7932V65.2369C85.1485 62.9582 85.9765 62.3589 86.5234 62.2492" fill="#004E9F"/>
<path d="M0 63.6781C0 68.2765 3.18714 70.9999 6.65052 70.9999C9.76581 70.9999 11.9457 68.8218 11.9457 67.0085C11.9457 66.0429 11.3416 65.3409 10.5534 65.3409C9.74698 65.3409 9.06965 65.8847 9.06965 66.8191C9.06965 67.4157 9.39889 67.7493 9.63746 68.0122C9.21544 68.8225 8.31768 69.4891 6.92466 69.4891C4.61644 69.4891 2.94928 67.098 2.94928 63.6594C2.94928 60.2166 4.5425 57.8109 6.85211 57.8109C8.24514 57.8109 9.1422 58.4852 9.56422 59.2878C9.32565 59.5604 8.9964 59.8885 8.9964 60.4899C8.9964 61.4195 9.67443 61.9654 10.4808 61.9654C11.269 61.9654 11.8724 61.2572 11.8724 60.2895C11.8724 58.4845 9.69257 56.2987 6.57728 56.2987C3.1132 56.2981 0 59.2871 0 63.6781Z" fill="#004E9F"/>
<path d="M30.0118 1.58372L10.5701 20.2875C9.59913 21.1075 8.979 22.0703 8.979 23.448C8.979 24.8194 9.59983 25.7857 10.5701 26.6119L30.0118 45.3094C30.1366 45.4364 30.2573 45.487 30.3599 45.487C30.544 45.487 30.671 45.3205 30.6654 45.1249C30.6598 45.0098 30.6096 44.8773 30.4945 44.7628C25.9311 39.1245 22.6107 32.658 22.6107 23.5159C22.6107 14.3683 25.9311 7.77485 30.4945 2.13242C30.6096 2.01935 30.6598 1.88894 30.6654 1.77101C30.6717 1.57123 30.544 1.4096 30.3599 1.4096C30.2573 1.40763 30.1366 1.45747 30.0118 1.58372Z" fill="#E3000D"/>
<path d="M44.9582 0C37.3457 0 34.3713 10.7278 34.3713 23.5145C34.3713 36.3054 37.3457 46.8903 44.9582 46.8903C49.5265 46.8903 53.4202 44.23 53.4328 42.0435C53.4348 41.5649 53.2493 41.1064 52.8455 40.7061C50.6802 38.6257 49.8334 36.5468 49.8271 34.712C49.8132 31.2096 52.8685 28.6006 55.6852 28.6006C59.5574 28.6006 61.8412 31.6272 61.8412 35.5465C61.8412 39.2605 60.25 42.3536 58.5187 44.8308C58.4503 44.932 58.4196 45.0451 58.4196 45.1443C58.4211 45.3385 58.5361 45.4981 58.7084 45.4981C58.8131 45.4981 58.9358 45.4426 59.0698 45.3087L78.5163 26.6111C79.4873 25.7856 80.1074 24.8186 80.1074 23.4472C80.1074 22.0703 79.4866 21.1067 78.5163 20.2868L59.0698 1.58299C58.9365 1.45049 58.8138 1.39431 58.7084 1.39431C58.5347 1.39431 58.421 1.55524 58.4196 1.75017C58.4196 1.85006 58.4503 1.96174 58.5187 2.0644C60.2493 4.53809 61.8412 7.63469 61.8412 11.3459C61.8412 15.2624 59.5574 18.2918 55.6852 18.2918C52.8685 18.2918 49.8132 15.6849 49.8271 12.1818C49.8334 10.347 50.6802 8.26595 52.8455 6.18767C53.2493 5.78533 53.4349 5.33097 53.4328 4.85163C53.4202 2.66167 49.5265 0 44.9582 0Z" fill="#004E9F"/>
</g>
<defs>
<clipPath id="clip0_18853_8323">
<rect width="89" height="71" fill="white"/>
</clipPath>
</defs>
</svg>
