<svg width="108" height="18" viewBox="0 0 108 18" fill="none" xmlns="http://www.w3.org/2000/svg">
<g clip-path="url(#clip0_17427_3072)">
<path d="M12.0309 12.3984C11.1825 13.6809 9.80289 14.4412 8.33754 14.4366C5.71535 14.4366 3.73585 12.3114 3.73585 9.4946C3.73585 8.08391 4.21573 6.81063 5.08551 5.90834C5.92958 5.03353 7.08643 4.55262 8.33754 4.55262C9.80717 4.54804 11.1868 5.31292 12.0309 6.59536L12.168 6.80147L14.8973 4.32819L14.7602 4.15414C13.162 2.12972 10.8098 0.961779 8.33326 0.97094C3.80441 0.96636 0.119629 4.79079 0.119629 9.4946C0.119629 14.1893 3.80441 17.9999 8.33326 17.9999C10.8055 18.0137 13.1577 16.8549 14.7559 14.8396L14.893 14.6656L12.1637 12.1923L12.0309 12.3984Z" fill="#E23A05"/>
<path d="M28.0858 0.251831V17.5877H25.0737V16.8274C24.1268 17.4228 22.9014 17.7938 21.676 17.7938C18.4282 17.7938 15.7632 15.174 15.7632 11.3358C15.7632 7.42893 18.4282 4.87778 21.676 4.87778C22.8671 4.88236 24.0325 5.20756 25.0737 5.82588V0.251831H28.0858ZM25.0737 13.8182V8.80297C24.3624 8.16175 23.3555 7.74496 22.2158 7.74496C20.2149 7.74496 18.7324 9.28389 18.7324 11.3312C18.7324 13.4472 20.2149 14.8946 22.2158 14.8946C23.3341 14.8946 24.3667 14.4824 25.0737 13.8182ZM30.6608 6.10985H33.6515V17.5877H30.6608V6.10985ZM36.7493 14.2076C38.1889 14.8763 39.2858 15.2198 40.7511 15.2198C42.1265 15.2198 42.6664 14.6701 42.6664 14.0243C42.6664 13.3098 41.998 12.9892 40.1941 12.577C37.6748 11.9816 35.8495 11.1068 35.8495 8.69305C35.8495 6.43962 37.5934 4.87778 40.3012 4.87778C42.1308 4.87778 43.5918 5.3358 44.8601 5.89L43.8703 8.23504C42.7306 7.77702 41.3981 7.42893 40.237 7.42893C39.0973 7.42893 38.5188 7.86404 38.5188 8.53275C38.5188 9.22435 39.2301 9.54496 41.0982 9.95717C43.8061 10.5572 45.3785 11.5648 45.3785 13.8411C45.3785 16.2091 43.6775 17.7709 40.6912 17.7709C38.6688 17.7709 37.3577 17.4732 35.6396 16.5755L36.7493 14.2076ZM57.564 15.2656C56.51 16.8045 54.8561 17.7709 53.048 17.7709C49.5218 17.7709 46.6596 14.8992 46.6596 11.3358C46.6596 7.74954 49.5175 4.87778 53.048 4.87778C54.9204 4.87778 56.5528 5.8442 57.6069 7.36023L55.6702 9.27015C55.0875 8.33122 54.102 7.76328 53.048 7.75412C51.1542 7.75412 49.6075 9.36175 49.6075 11.3404C49.6075 13.2961 51.1542 14.9037 53.048 14.9037C54.1106 14.8946 55.0961 14.3175 55.6702 13.3648L57.564 15.2656ZM71.2363 11.3312C71.2363 14.8946 68.3784 17.7663 64.8479 17.7663C61.3174 17.7663 58.4595 14.8946 58.4595 11.3312C58.4595 7.74496 61.3174 4.8732 64.8479 4.8732C68.3784 4.8732 71.2363 7.74496 71.2363 11.3312ZM68.2927 11.3312C68.2927 9.35259 66.7674 7.74496 64.8522 7.74496C62.9584 7.74496 61.4116 9.35259 61.4116 11.3312C61.4116 13.2869 62.9584 14.8946 64.8522 14.8946C66.7631 14.8946 68.2927 13.2869 68.2927 11.3312ZM84.1801 5.20756V17.5877H81.1895V16.7587C80.3025 17.4045 79.21 17.7709 78.006 17.7709C74.5868 17.7709 73.0144 16.0717 73.0144 12.0228V5.20756H76.0051V12.0228C76.0051 13.9556 76.892 14.8946 78.5416 14.8946C79.617 14.8946 80.4996 14.5282 81.1852 13.9053V5.20298H84.1801V5.20756ZM97.7496 10.6213V17.5877H94.7589V10.6213C94.7589 8.68847 93.872 7.74954 92.2224 7.74954C91.1684 7.74954 90.3071 8.11595 89.643 8.73885V17.5877H86.6524V5.10221H89.643V5.88542C90.5042 5.23962 91.5797 4.8732 92.7622 4.8732C96.1771 4.8732 97.7496 6.57702 97.7496 10.6213ZM103.851 7.74496V12.1602C103.851 14.3908 104.194 15.032 105.702 15.032C106.216 15.032 106.67 14.9633 107.077 14.9175V17.3083C106.949 17.3541 106.045 17.7663 104.369 17.7663C102.411 17.7663 100.843 16.4564 100.843 13.8366V7.74496H99.1892V5.10221H100.843V0.251831H103.855V5.10221H107.12V7.74496H103.851Z" fill="#293847"/>
<path d="M30.5445 1.88702C30.5445 0.851909 31.3157 0 32.2626 0C33.2095 0 33.9636 0.851909 33.9636 1.88702C33.9636 2.92214 33.2095 3.75115 32.2626 3.75115C31.3072 3.74199 30.5359 2.9084 30.5445 1.88702Z" fill="#E23A05"/>
</g>
<defs>
<clipPath id="clip0_17427_3072">
<rect width="107" height="18" fill="white" transform="translate(0.119629)"/>
</clipPath>
</defs>
</svg>
