<svg width="85" height="27" viewBox="0 0 85 27" fill="none" xmlns="http://www.w3.org/2000/svg">
<g clip-path="url(#clip0_19893_9841)">
<path d="M19.1319 18.6002C18.9074 25.7255 13.7673 27.0011 10.0547 27.0011C4.98974 27.0011 0 24.3758 0 13.5C0 2.62418 4.98974 0 10.0547 0C13.7673 0 18.8693 1.2756 19.1319 8.40087C19.2071 10.3126 18.2699 10.8377 16.7694 10.8377H14.3721C12.8726 10.8377 12.3845 10.4259 11.8963 8.58823C11.4789 7.05011 10.8077 6.561 9.82693 6.60022C8.51929 6.63834 7.05037 8.36275 7.05037 13.5C7.05037 18.6373 8.51929 20.3627 9.82693 20.4009C10.8077 20.4379 11.4397 19.951 11.8897 18.4129C12.415 16.5752 12.8705 16.1634 14.3655 16.1634H16.7629C18.2699 16.1634 19.2071 16.6917 19.1319 18.6002ZM22.3182 2.62527C22.3182 1.16231 23.106 0.374728 24.5695 0.374728H31.2842C36.4233 0.374728 41.0382 2.96296 41.0382 13.5C41.0382 24.037 36.4233 26.6253 31.2842 26.6253H24.5695C23.106 26.6253 22.3182 25.8388 22.3182 24.3758V2.62527ZM29.3707 20.0261H30.9094C33.0474 20.0261 33.9856 18.3388 33.9856 13.5C33.9856 8.73856 33.0474 7.05011 30.9094 7.01307L29.3707 6.97495V20.0261ZM63.1689 13.5C63.1689 24.3758 58.2173 27.0011 53.4161 27.0011C48.6508 26.963 43.6622 24.3758 43.6622 13.5C43.6622 2.62418 48.6508 0 53.415 0C58.1792 0 63.1689 2.55011 63.1689 13.5ZM56.1164 13.5C56.1164 8.28758 54.8087 6.56318 53.4161 6.60022C52.0234 6.63726 50.7147 8.36275 50.7147 13.5C50.7147 18.7135 52.0224 20.4009 53.4161 20.4009C54.8098 20.4009 56.1164 18.7135 56.1164 13.5ZM77.7219 24.9379L73.3707 15.2625H73.2955V24.3758C73.2955 25.8388 72.5077 26.6253 71.0453 26.6253H68.6065C67.1431 26.6253 66.3552 25.8388 66.3552 24.3758V2.62527C66.3552 1.16231 67.1431 0.374728 68.6065 0.374728H71.0453C72.3202 0.374728 73.1462 0.937909 73.6333 2.10022L78.0226 12.7135H78.0978V2.62527C78.0978 1.16231 78.8857 0.374728 80.3481 0.374728H82.7454C84.2078 0.374728 84.9956 1.16231 84.9956 2.62527V24.3758C84.9956 25.8388 84.2078 26.6253 82.7454 26.6253H80.3481C79.0731 26.6253 78.2482 26.1013 77.7219 24.9379Z" fill="#01C355"/>
</g>
<defs>
<clipPath id="clip0_19893_9841">
<rect width="85" height="27" fill="white"/>
</clipPath>
</defs>
</svg>
