<svg width="122" height="21" viewBox="0 0 122 21" fill="none" xmlns="http://www.w3.org/2000/svg">
<path d="M21.4837 6.26068C17.7912 6.26068 15.2349 8.42627 15.2349 11.6419C15.2349 14.9888 17.5782 17.0232 21.3417 17.0232C25.1762 17.0232 27.6615 14.8575 27.6615 11.5763C27.6615 8.29504 25.2472 6.26068 21.4837 6.26068ZM21.4837 15.1857C19.6375 15.1857 18.4303 13.8076 18.4303 11.7732C18.4303 9.54194 19.5664 8.22943 21.4837 8.22943C23.2589 8.22943 24.3951 9.54196 24.3951 11.7076C24.3951 13.742 23.2589 15.1857 21.4837 15.1857Z" fill="#FF4B2A"/>
<path d="M71.2619 6.39183C67.9245 6.39183 66.5043 7.70438 66.5043 10.7888V11.0513C66.5043 12.9544 66.4333 15.0544 66.3623 16.1044V16.7606H69.6997L69.6287 16.17C69.5577 15.1856 69.5577 14.2669 69.5577 13.4138V12.8887V11.3794V10.8544C69.6287 9.73874 69.9838 8.49188 71.617 8.49188C72.185 8.49188 72.9662 8.62315 73.1792 8.7544L73.3212 8.82001L73.6763 6.78565H73.5342C72.7531 6.45752 71.83 6.39183 71.2619 6.39183Z" fill="#FF4B2A"/>
<path d="M50.385 8.36065L50.669 6.32629H47.2606V5.67004C47.3316 4.16066 47.9707 3.43877 49.2488 3.43877C50.0299 3.43877 50.385 3.43879 51.4501 3.70129L51.5922 3.7669L51.8762 1.73254H51.7342C50.8821 1.47004 49.3909 1.40441 48.7518 1.40441C45.9114 1.40441 44.2072 2.91377 44.1362 5.73565V7.63879V11.3138L44.0652 15.8419L43.9941 18.5325V19.1232H47.2606V18.4669L47.1896 15.8419V12.9544V10.5919C47.1896 10.5919 47.1896 8.88571 47.1896 8.42634" fill="#FF4B2A"/>
<path d="M57.699 6.26068C54.0065 6.26068 51.4502 8.42627 51.4502 11.6419C51.4502 14.9888 53.7935 17.0232 57.557 17.0232C61.3915 17.0232 63.8768 14.8575 63.8768 11.5763C63.8768 8.29504 61.5335 6.26068 57.699 6.26068ZM57.699 15.1857C55.8528 15.1857 54.6456 13.8076 54.6456 11.7732C54.6456 9.54194 55.7818 8.22943 57.699 8.22943C59.4743 8.22943 60.6104 9.54196 60.6104 11.7076C60.6814 13.742 59.4743 15.1857 57.699 15.1857Z" fill="#FF4B2A"/>
<path d="M40.7987 14.2012V12.495V10.7888C40.7987 8.03251 39.0944 6.39183 36.2541 6.39183H34.4078C31.5674 6.39183 29.8632 8.03251 29.8632 10.7888V11.3794C29.8632 14.07 29.8632 14.7263 29.7212 16.6294V16.7606H33.0586V15.9732L32.9876 13.8075L32.9166 11.6418V11.3794C32.9166 10.1981 32.9876 9.86996 33.2717 9.34496C33.6267 8.75433 34.4078 8.36058 35.3309 8.36058C36.2541 8.36058 37.0352 8.75433 37.3902 9.34496C37.6743 9.86996 37.7453 10.1981 37.7453 11.3794V11.6418L37.6743 13.8075L37.6032 15.9732V16.7606H40.8697V16.0388C40.7987 16.1044 40.7987 14.2012 40.7987 14.2012Z" fill="#FF4B2A"/>
<path d="M107.405 14.2013V13.6763V12.9544L107.476 10.7888C107.476 8.95132 106.979 7.83572 105.772 7.11384C104.991 6.65447 103.926 6.3919 102.718 6.3919C101.014 6.3919 99.5939 6.85128 98.7418 7.7044C97.9607 6.85128 96.7536 6.3919 95.2624 6.3919H93.4161C90.5757 6.3919 88.8715 8.03257 88.8715 10.7888V11.3795C88.8715 14.0701 88.8715 14.7263 88.7295 16.6295V16.7607H92.0669V15.9732L91.9959 13.8076L91.9249 11.6419V11.3795C91.9249 10.1982 91.9959 9.87003 92.28 9.34503C92.635 8.7544 93.4161 8.36065 94.3392 8.36065C95.2624 8.36065 96.0435 8.7544 96.3985 9.34503C96.6826 9.87003 96.7536 10.1982 96.7536 11.3795V11.6419L96.6826 13.8076L96.6115 15.9732V16.7607H99.878L99.807 16.0388V14.2013V12.4951V10.5919C99.878 10.1325 99.949 9.87006 100.091 9.54193C100.233 9.27943 100.446 9.01695 100.659 8.82007C101.014 8.49195 101.582 8.36065 102.15 8.36065C103.073 8.36065 103.926 8.88565 104.21 9.67315C104.352 10.0669 104.352 10.4607 104.352 11.9044C104.352 13.545 104.352 14.6607 104.21 16.17L104.139 16.6951V16.8263H107.547V16.2357C107.405 16.17 107.405 14.2013 107.405 14.2013Z" fill="#FF4B2A"/>
<path d="M120.613 10.1982V10.0013C120.613 8.36066 120.045 7.44196 118.625 6.85133C117.772 6.52321 116.849 6.39191 115.642 6.39191C114.151 6.39191 112.518 6.5888 111.311 6.98255H111.169L111.524 9.01691L111.666 8.9513C112.873 8.49192 114.009 8.22944 115.074 8.22944C116.849 8.22944 117.559 8.82005 117.559 10.2638C117.559 10.2638 117.559 10.3951 117.559 10.5263C115.074 10.3951 113.157 10.5263 112.163 10.9857C110.672 11.5763 109.961 12.4951 109.961 13.742C109.961 14.9888 110.814 16.1701 112.234 16.6951C113.725 17.2857 115.926 17.1545 116.778 17.0232C117.488 16.9576 119.832 16.5638 120.4 14.8575C120.613 14.2013 120.613 11.1826 120.613 10.1982ZM117.63 12.2982V12.5607C117.63 13.545 117.63 13.8732 117.346 14.2669C117.204 14.5294 116.991 14.6607 116.707 14.8575C116.139 15.12 115.642 15.1857 115.074 15.1857C114.435 15.1857 113.796 14.9888 113.441 14.6607C113.015 14.267 113.086 13.6107 113.37 13.2169C113.796 12.6263 114.79 12.3638 116.92 12.3638C116.92 12.2982 117.488 12.2982 117.63 12.2982Z" fill="#FF4B2A"/>
<path d="M85.8184 9.9356C85.8184 8.29498 85.2503 7.37628 83.8301 6.78565C82.978 6.45753 82.0549 6.32623 80.8477 6.32623C79.3565 6.32623 77.7233 6.52312 76.5162 6.91687H76.3742L76.7292 8.95123L76.8712 8.88562C78.0784 8.42624 79.2145 8.16376 80.2797 8.16376C82.0549 8.16376 82.765 8.75437 82.765 10.1981C82.765 10.1981 82.765 10.3294 82.765 10.4606C80.2797 10.3294 78.3624 10.4606 77.3683 10.92C75.8771 11.5106 75.167 12.4294 75.167 13.6763C75.167 14.9232 76.0191 16.1044 77.4393 16.6294C78.9305 17.22 81.1318 17.0888 81.9839 16.9575C82.694 16.8919 85.0373 16.4981 85.6054 14.7919C85.8184 14.07 85.8184 11.0513 85.8184 10.0669V9.9356ZM82.836 12.2981V12.5606C82.836 13.545 82.836 13.8731 82.552 14.2668C82.4099 14.5293 82.1969 14.6606 81.9129 14.8575C81.3448 15.12 80.8477 15.1856 80.2797 15.1856C79.6406 15.1856 79.0015 14.9888 78.6465 14.6607C78.2204 14.2669 78.2914 13.6106 78.5754 13.2169C79.0015 12.6262 79.9956 12.3638 82.1259 12.3638C82.1259 12.2982 82.694 12.2981 82.836 12.2981Z" fill="#FF4B2A"/>
<path d="M10.9036 3.57006C12.3238 3.50444 13.815 3.83251 15.3772 4.42314L15.5192 4.48883V1.99505H15.4482C13.886 1.53567 12.1818 1.33878 10.3355 1.40441C7.42415 1.47003 5.08084 2.38881 3.44762 3.89819C1.95643 5.34194 1.24633 7.31065 1.31734 9.60753C1.38835 11.8388 2.16946 13.6763 3.66065 14.9231C5.29387 16.3669 7.7792 17.0888 10.7616 16.9576C11.8267 16.9576 12.8209 16.8263 13.886 16.6294H14.028L13.1759 14.595H13.0339C12.3948 14.7263 11.8267 14.7919 11.2587 14.7919C7.56617 14.9232 5.43588 13.0201 5.29386 9.47631C5.29386 5.93256 7.42415 3.63569 10.9036 3.57006Z" fill="#FF4B2A"/>
</svg>
