<svg width="72" height="22" viewBox="0 0 72 22" fill="none" xmlns="http://www.w3.org/2000/svg">
<path d="M6.3652 17.0841V4.97187C6.3652 4.97187 9.25442 4.35599 9.25442 11.1307C9.25442 17.9053 6.3652 17.0841 6.3652 17.0841ZM7.80981 0.866013H0.380371C0.380371 0.866013 0.999489 5.17716 0.999489 11.1307C0.999489 16.8789 0.380371 21.19 0.380371 21.19H7.80981C10.2863 21.19 14.6201 19.5477 14.6201 11.1307C14.6201 2.50836 10.2863 0.866013 7.80981 0.866013Z" fill="black"/>
<path d="M20.8965 11.8958L22.1348 5.12114L23.373 11.8958H20.8965ZM31.0088 21.134C31.0088 21.134 29.3579 15.7964 28.326 11.0746C27.2941 6.14761 26.8814 0.809997 26.8814 0.809997H17.3882C17.3882 0.809997 16.9755 6.14761 15.9436 11.0746C14.9117 16.0017 13.2607 21.134 13.2607 21.134H19.8647C19.8647 21.134 19.6583 20.3128 19.8647 18.4652C20.0711 16.6175 20.4838 15.7964 20.4838 15.7964H23.5794C23.5794 15.7964 23.9921 16.8228 24.1985 18.4652C24.4049 20.1075 24.1985 21.134 24.1985 21.134H31.0088Z" fill="black"/>
<path d="M36.3224 9.63935V4.30174C36.3224 4.30174 38.5925 4.30173 38.5925 6.97054C38.5925 9.63934 36.3224 9.63935 36.3224 9.63935ZM45.8156 21.1357C45.8156 21.1357 44.5773 18.6722 43.1327 16.0034C41.6881 13.5399 40.8626 12.1029 40.8626 12.1029C40.8626 12.1029 44.3709 11.2817 44.3709 6.55996C44.3709 1.83822 40.8626 0.811753 39.6244 0.811753H30.5439C30.5439 0.811753 31.1631 4.50702 31.1631 11.0764C31.1631 17.4405 30.5439 21.1357 30.5439 21.1357H37.1479C37.1479 21.1357 36.7351 19.904 36.5288 17.6458C36.3224 15.3876 36.5288 14.1558 36.5288 14.1558C36.5288 14.1558 37.5606 15.3876 38.1798 17.6458C38.7989 19.904 38.7989 21.1357 38.7989 21.1357H45.8156Z" fill="black"/>
<path d="M44.002 0.828782V5.55052C44.002 5.55052 45.2402 4.93464 47.5103 4.93464C47.5103 4.93464 47.7167 8.62991 47.5103 12.1199C47.3039 15.6099 46.8912 21.1528 46.8912 21.1528H53.4951C53.4951 21.1528 53.0824 15.6099 52.876 12.1199C52.6696 8.62991 52.876 4.93464 52.876 4.93464C52.876 4.93464 54.527 4.93464 56.3844 5.55052V0.828782H44.002Z" fill="black"/>
<path d="M62.039 0.828782H56.0542C56.0542 0.828782 58.737 5.75582 59.7689 11.0934C61.0071 16.2257 60.1817 21.1528 60.1817 21.1528H66.7856C66.7856 21.1528 66.1665 16.2257 67.1983 11.0934C68.4366 5.96111 71.1194 0.828782 71.1194 0.828782H65.1346L63.4836 6.78228L62.039 0.828782Z" fill="black"/>
<path d="M44.002 0.828782V5.55052C44.002 5.55052 45.2402 4.93464 47.5103 4.93464C47.5103 4.93464 47.7167 8.62991 47.5103 12.1199C47.3039 15.6099 46.8912 21.1528 46.8912 21.1528H53.4951C53.4951 21.1528 53.0824 15.6099 52.876 12.1199C52.6696 8.62991 52.876 4.93464 52.876 4.93464C52.876 4.93464 54.527 4.93464 56.3844 5.55052V0.828782H44.002Z" fill="black"/>
<path d="M62.039 0.828782H56.0542C56.0542 0.828782 58.737 5.75582 59.7689 11.0934C61.0071 16.2257 60.1817 21.1528 60.1817 21.1528H66.7856C66.7856 21.1528 66.1665 16.2257 67.1983 11.0934C68.4366 5.96111 71.1194 0.828782 71.1194 0.828782H65.1346L63.4836 6.78228L62.039 0.828782Z" fill="black"/>
</svg>
