<svg width="134" height="33" viewBox="0 0 134 33" fill="none" xmlns="http://www.w3.org/2000/svg">
<g clip-path="url(#clip0_19893_9792)">
<path d="M0 0.0429688V32.9108L134 33V0.0429688H0Z" fill="#1482C2"/>
<path d="M53.5775 7.92689L46.0732 18.9177C45.2927 20.0808 43.9235 20.7839 42.4904 20.7839C40.1568 20.7839 38.2251 18.8875 38.2251 16.5991C38.2251 14.2771 40.1568 12.3842 42.5068 12.3842C42.7397 12.3547 43.0522 12.3224 43.2702 12.3224C44.8901 12.3224 46.5405 12.9945 47.6618 14.1254L49.9031 10.7659C48.1597 8.99591 45.5747 7.86298 42.9889 7.86298C38.162 7.86298 33.7405 11.8026 33.7405 16.5668C33.7405 21.3029 37.6954 25.18 42.5238 25.18C44.8588 25.18 47.1939 24.203 48.8137 22.5834H53.983L54.0137 25.18H58.4999V7.92689H53.5777H53.5775ZM51.5244 18.7961L53.983 15.4093L54.0137 18.7961H51.5246H51.5244Z" fill="white"/>
<path d="M67.095 25.1798H62.6103V11.9555H59.1227V7.95546L70.5812 7.92664V11.9555H67.095V25.1798V25.1798Z" fill="white"/>
<path d="M85.5309 7.92691L81.0462 7.92804L81.015 14.3695H75.72L75.6865 7.92664H71.2053V25.1798H75.7198V18.3688H81.0461V25.1798H85.5308V7.92664L85.5309 7.92691Z" fill="white"/>
<path d="M121.469 7.92688V15.9557L115.303 7.92688L111.222 7.95498L111.191 14.2476C110.163 10.5826 106.644 7.92688 102.72 7.92688C97.8938 7.92688 93.9381 11.8026 93.9381 16.5668C93.9381 18.0966 94.4047 19.6502 95.1511 20.996H90.7083V7.92688H86.1384V25.18H96.5856V22.766C98.2361 24.2634 100.478 25.18 102.72 25.18C106.644 25.18 110.102 22.5833 111.191 18.9176L111.222 25.18H115.739V16.7838L121.871 25.18H125.95L125.955 7.92688H121.469H121.469ZM102.72 20.9658C100.26 20.9658 98.2362 19.0118 98.2362 16.5668C98.2362 14.1555 100.26 12.1713 102.72 12.1713C105.213 12.1713 107.237 14.1555 107.237 16.5668C107.237 19.0118 105.213 20.9658 102.72 20.9658Z" fill="white"/>
<path d="M28.3169 20.9963V18.5815H33.1298L33.1212 14.3694H28.3169V12.1716H33.6219L33.6128 7.92719L23.3985 7.95528V13.8805C22.3396 10.644 19.2866 8.26081 15.799 7.95528L8.04468 7.92719V25.1796H15.8309C19.2866 24.8755 22.3396 22.4937 23.3985 19.2867V25.1796H33.622L33.6129 20.9963H28.3172H28.3169ZM18.4464 19.194C18.1673 20.3557 17.0452 21.1782 15.8308 21.2091H12.966V11.9553H15.8308C17.0452 11.9553 18.1673 12.8143 18.4464 14.0034C18.7276 14.7978 18.8831 15.7137 18.8831 16.5671C18.8831 17.4549 18.7276 18.3694 18.4464 19.194Z" fill="white"/>
</g>
<defs>
<clipPath id="clip0_19893_9792">
<rect width="134" height="33" fill="white"/>
</clipPath>
</defs>
</svg>
