<svg width="102" height="41" viewBox="0 0 102 41" fill="none" xmlns="http://www.w3.org/2000/svg">
<g clip-path="url(#clip0_18853_8296)">
<path d="M13.2137 8.91992C6.02488 8.91992 0.0344238 11.9616 0.0344238 21.1381C0.0344238 28.4079 4.06257 32.986 13.3994 32.986C24.3892 32.986 25.0937 25.7662 25.0937 25.7662H19.7686C19.7686 25.7662 18.6268 29.6538 13.0745 29.6538C8.5523 29.6538 5.29974 26.6072 5.29974 22.3368H25.6505V19.6571C25.6505 15.4324 22.9614 8.91992 13.2137 8.91992ZM13.0281 12.3447C17.3328 12.3447 20.2674 14.9748 20.2674 18.9166H5.41752C5.41752 14.7318 9.248 12.3447 13.0281 12.3447Z" fill="#E53238"/>
<path d="M25.6465 0.0339355V28.3776C25.6465 29.9865 25.5314 32.2455 25.5314 32.2455H30.6104C30.6104 32.2455 30.7927 30.623 30.7927 29.1402C30.7927 29.1402 33.3021 33.0554 40.1252 33.0554C47.3102 33.0554 52.1908 28.0805 52.1908 20.9529C52.1908 14.3223 47.7078 8.98931 40.1368 8.98931C33.047 8.98931 30.844 12.8075 30.844 12.8075V0.0339355H25.6465ZM38.8258 12.4951C43.705 12.4951 46.8077 16.1066 46.8077 20.9529C46.8077 26.1498 43.2242 29.5496 38.8606 29.5496C33.6531 29.5496 30.844 25.4946 30.844 20.9992C30.844 16.8105 33.3647 12.4951 38.8258 12.4951Z" fill="#0064D2"/>
<path d="M64.813 8.91992C53.9979 8.91992 53.3043 14.8258 53.3043 15.7695H58.6874C58.6874 15.7695 58.9697 12.3216 64.4417 12.3216C67.9975 12.3216 70.7529 13.9448 70.7529 17.0654V18.1761H64.4417C56.0631 18.1761 51.6337 20.6206 51.6337 25.5811C51.6337 30.4629 55.7264 33.1191 61.2571 33.1191C68.7947 33.1191 71.2228 28.9654 71.2228 28.9654C71.2228 30.6175 71.3505 32.2455 71.3505 32.2455H76.136C76.136 32.2455 75.9504 30.2275 75.9504 28.9365V17.7769C75.9504 10.4598 70.0324 8.91992 64.813 8.91992ZM70.7529 21.5084V22.9893C70.7529 24.921 69.5578 29.7232 62.5217 29.7232C58.6687 29.7232 57.0168 27.8055 57.0168 25.5811C57.0168 21.5344 62.5799 21.5084 70.7529 21.5084Z" fill="#F5AF02"/>
<path d="M73.0518 9.84644H79.1077L87.7989 27.2117L96.4702 9.84644H101.956L86.1615 40.7621H80.4071L84.9648 32.144L73.0518 9.84644Z" fill="#86B817"/>
</g>
<defs>
<clipPath id="clip0_18853_8296">
<rect width="101.99" height="40.796" fill="white"/>
</clipPath>
</defs>
</svg>
