<svg width="63" height="42" viewBox="0 0 63 42" fill="none" xmlns="http://www.w3.org/2000/svg">
<g clip-path="url(#clip0_17427_3076)">
<path d="M62.1199 18.3394C62.1199 19.7423 61.8787 21.1109 61.5687 22.4625C61.0865 24.4983 60.8282 26.5684 61.1554 28.6555C61.2243 29.1346 61.3104 29.5965 61.4137 30.0755C61.4654 30.2979 61.4654 30.4348 61.1554 30.5032C59.0543 30.9822 56.9532 31.4099 54.8349 31.8547C53.4054 32.1627 51.976 32.5048 50.5465 32.8128C48.6693 33.2062 46.7749 33.5826 44.8804 33.9932C43.4682 34.3012 42.056 34.6433 40.6437 34.9513C39.2143 35.2592 37.7676 35.55 36.321 35.8409C35.2188 36.0804 34.1165 36.3199 33.0315 36.5594C31.6538 36.8502 30.276 37.1582 28.8982 37.449C27.8304 37.6714 26.7799 37.8938 25.7121 38.1162C24.0243 38.4755 22.3538 38.8519 20.666 39.2111C18.651 39.6388 16.636 40.0323 14.6382 40.4942C12.8815 40.8877 11.1421 41.2641 9.38542 41.6234C8.83431 41.7431 8.30042 41.8629 7.74931 41.9826C7.55986 42.0168 7.40486 42.0168 7.3532 41.7431C6.81931 39.2625 5.78597 37.0213 4.20153 35.0539C2.92709 33.4629 1.84209 31.7521 1.20486 29.8018C0.70542 28.2963 0.39542 26.7737 0.223197 25.1997C-0.000691414 23.1981 0.292086 21.2478 0.757086 19.2975C1.22209 17.3301 1.42875 15.3627 1.11875 13.3439C1.04986 12.8649 0.963753 12.3859 0.86042 11.924C0.774309 11.6331 0.808753 11.4963 1.13598 11.4278C2.94431 11.0686 4.73542 10.6751 6.52653 10.2816C8.07653 9.93945 9.60931 9.59729 11.1593 9.27224C13.4499 8.79322 15.7404 8.3313 18.031 7.85228C19.5465 7.52723 21.0621 7.16796 22.5776 6.84291C24.4893 6.43232 26.401 6.03884 28.3126 5.62825C30.5343 5.14923 32.7732 4.65309 34.9949 4.17407C36.8721 3.76348 38.7493 3.38711 40.6437 2.97652C43.0549 2.46328 45.466 1.93293 47.8771 1.40259C50.0471 0.940671 52.2171 0.478757 54.4043 0.0168424C54.7143 -0.0515894 54.8521 -0.0173735 54.9382 0.376109C55.4549 2.61725 56.3504 4.68731 57.7799 6.53497C58.9165 8.00625 60.0187 9.49464 60.7076 11.2397C61.431 13.0702 61.8615 14.935 62.051 16.8853C62.0854 17.3643 62.1371 17.8433 62.1199 18.3394ZM30.5688 20.17C30.5515 19.4001 30.4482 18.8698 30.2415 18.3394C29.7765 17.1248 28.4849 16.3036 27.2621 16.526C26.3149 16.6971 25.3676 16.9195 24.4204 17.1248C24.1621 17.1761 24.0415 17.2959 24.1104 17.6209C24.541 19.4857 24.9371 21.3504 25.3332 23.2323C25.6432 24.6694 25.9532 26.1065 26.2632 27.5606C26.3149 27.8515 26.4354 27.9541 26.7282 27.8857C27.0899 27.8001 27.4515 27.7317 27.8132 27.6633C28.0715 27.612 28.2093 27.5264 28.1232 27.2014C27.8476 26.0209 27.6065 24.8234 27.3482 23.6258C27.3138 23.4718 27.176 23.2494 27.4343 23.1468C27.641 23.0783 27.7615 23.1981 27.8821 23.3692C28.8465 24.6181 29.8282 25.8327 30.7926 27.0816C30.9476 27.2869 31.0682 27.2869 31.2404 27.15C31.5676 26.8763 31.8949 26.6197 32.2393 26.3631C32.446 26.2091 32.4287 26.0893 32.2738 25.8841C31.4471 24.8405 30.6376 23.7798 29.811 22.7362C29.6215 22.4967 29.5871 22.3256 29.8282 22.0861C30.3965 21.4873 30.5515 20.7346 30.5688 20.17ZM50.5637 22.7704C50.7704 22.7362 50.9254 22.7191 51.0632 22.6849C52.3032 22.4111 53.5432 22.1374 54.7832 21.8808C56.3849 21.5386 56.161 21.8637 55.8165 20.2042C55.7649 19.9647 55.6787 19.8792 55.4032 19.9476C54.3871 20.17 53.3538 20.3582 52.3376 20.5806C52.0276 20.649 51.8726 20.649 51.8037 20.2726C51.6488 19.4515 51.4593 18.6303 51.2699 17.8262C51.2182 17.5867 51.356 17.5696 51.511 17.5354C52.3549 17.3643 53.216 17.1761 54.0599 17.005C54.301 16.9537 54.3871 16.8682 54.3182 16.6287C54.2321 16.2865 54.1287 15.9443 54.0943 15.5851C54.0599 15.1916 53.8532 15.1574 53.5432 15.2258C52.751 15.3969 51.9587 15.5509 51.1665 15.7561C50.8393 15.8417 50.7876 15.7048 50.736 15.4824C50.6154 14.9692 50.5465 14.4559 50.3915 13.9598C50.2537 13.5492 50.3743 13.3953 50.7876 13.3268C51.7693 13.1386 52.7338 12.9162 53.7154 12.7109C53.991 12.6596 54.1804 12.557 54.0771 12.2148C53.9737 11.8555 53.8876 11.4963 53.836 11.137C53.8015 10.8804 53.6982 10.8633 53.4571 10.9146C51.9071 11.2739 50.3399 11.616 48.7899 11.9411C48.0493 12.0951 48.0665 12.0779 48.2215 12.8136C48.6349 14.6612 49.0482 16.526 49.4443 18.3737C49.7371 19.7594 50.0299 21.1451 50.3226 22.5309C50.3915 22.6849 50.4432 22.7875 50.5637 22.7704ZM19.2538 18.3394C18.186 18.3908 17.1871 18.75 16.1365 18.904C15.8782 18.9382 15.8782 19.1093 15.9299 19.3146C16.3776 21.3504 16.7738 23.3863 17.256 25.4221C17.566 26.7223 17.8415 28.0397 18.0999 29.3741C18.1515 29.6307 18.2376 29.7162 18.496 29.6649C18.8576 29.5794 19.2193 29.4767 19.581 29.4425C19.9771 29.4083 20.0288 29.2372 19.9426 28.8779C19.6843 27.7659 19.4604 26.6539 19.2193 25.559C19.0815 24.9602 19.0815 24.9602 19.6499 24.8234C19.7532 24.8063 19.8393 24.7891 19.9426 24.772C21.0621 24.5154 21.8888 23.9509 22.2332 22.8046C22.4571 22.0519 22.371 21.3333 22.1988 20.5806C21.8715 19.1093 20.7521 18.2539 19.2538 18.3394ZM40.1443 16.9879C40.1271 17.4841 40.2304 17.946 40.2821 18.425C40.4888 19.8963 40.8504 21.3162 41.6771 22.5822C42.366 23.6258 43.296 24.2759 44.6393 24.1561C46.1893 24.0022 47.0504 23.0441 47.5843 21.6926C47.7221 21.3504 47.6187 21.1794 47.2743 21.0938C47.0676 21.0425 46.8782 20.9227 46.6887 20.8543C45.9999 20.5806 46.0171 20.5977 45.7071 21.2649C45.466 21.7953 45.156 22.2914 44.5015 22.3427C43.8471 22.394 43.5026 21.9492 43.2099 21.4531C42.7793 20.7175 42.5382 19.9305 42.366 19.1093C42.1421 18.0828 41.9699 17.0392 42.1421 15.9786C42.2282 15.4482 42.4865 15.0718 43.0032 14.9179C43.4854 14.7639 43.8299 15.0547 44.1915 15.3285C44.4154 15.4995 44.5187 15.9101 44.7943 15.8588C45.0526 15.8075 45.2421 15.4995 45.466 15.2942C46.1721 14.5928 46.1549 14.5928 45.4488 13.9085C44.1915 12.7109 42.1593 12.7794 41.0226 14.0796C40.2649 14.9008 40.1787 15.9443 40.1443 16.9879ZM33.8926 16.9879C34.1338 16.9195 34.1854 17.0392 34.2371 17.2445C34.3921 18.0315 34.5643 18.8185 34.7365 19.6054C34.9949 20.7859 35.2532 21.9834 35.4943 23.1639C35.5632 23.4718 35.8043 23.7969 35.6321 24.0535C35.4599 24.3272 35.0293 24.2588 34.7193 24.3101C34.4093 24.3786 34.3576 24.5496 34.4438 24.8062C34.5471 25.0971 34.616 25.405 34.6504 25.713C34.6676 26.0551 34.8226 26.1407 35.1499 26.0551C36.2521 25.7985 37.3543 25.559 38.4565 25.3366C39.3004 25.1655 39.3004 25.1826 39.1626 24.3614C38.9904 23.3521 38.956 23.335 37.9399 23.6429C37.6815 23.7284 37.561 23.66 37.5093 23.4205C37.3888 22.8559 37.251 22.2914 37.1304 21.7268C36.7687 20.1016 36.4243 18.4592 36.0626 16.834C36.011 16.5944 36.0454 16.4576 36.3038 16.4063C36.6482 16.3378 37.1132 16.372 37.2854 16.0983C37.4576 15.8246 37.1821 15.4311 37.1304 15.0889C37.1132 14.9863 37.0615 14.9008 37.0615 14.7981C37.0615 14.4731 36.8893 14.4559 36.6138 14.5073C35.3221 14.7981 34.0304 15.0718 32.7388 15.3456C32.5321 15.3969 32.4287 15.4653 32.4804 15.6877C32.5837 16.1154 32.6526 16.5431 32.756 16.9708C32.7904 17.159 32.9282 17.1248 33.0488 17.1077C33.3587 17.0906 33.6171 16.9537 33.8926 16.9879ZM7.07764 23.8482C7.09486 24.601 7.1982 25.3024 7.33598 25.9696C7.59431 27.304 7.93875 28.6042 8.69653 29.7333C9.26486 30.5716 9.9882 31.2046 11.0904 31.2217C12.3649 31.2388 13.2432 30.623 13.8632 29.5623C14.2938 28.8095 14.2938 28.8095 13.5015 28.5016C13.2432 28.3989 13.0882 28.4502 13.0365 28.7069C12.9849 28.9293 12.8471 29.0832 12.7438 29.2714C12.0376 30.4005 10.7632 30.469 9.91931 29.4596C9.19598 28.5871 8.92042 27.5093 8.64486 26.4315C8.5932 26.2604 8.64486 26.1407 8.86875 26.1065C9.33375 26.038 9.79875 25.9183 10.2465 25.8156C11.3315 25.5761 12.4165 25.3366 13.5015 25.1142C13.7943 25.0629 13.8115 24.926 13.7426 24.7036C13.6565 24.4299 13.5876 24.1561 13.5015 23.8824C13.226 22.8731 12.7954 21.9492 12.1065 21.1452C11.0388 19.9134 9.0582 19.8621 7.9732 21.0596C7.26709 21.8979 7.14653 22.9073 7.07764 23.8482Z" fill="#FCBC01"/>
<path d="M30.5688 20.1702C30.5515 20.7348 30.3965 21.4875 29.8282 22.0863C29.6043 22.3258 29.6215 22.4969 29.811 22.7364C30.6376 23.78 31.4471 24.8407 32.2737 25.8843C32.446 26.0896 32.446 26.2093 32.2393 26.3633C31.8949 26.6199 31.5676 26.8936 31.2404 27.1503C31.0682 27.2871 30.9476 27.2871 30.7926 27.0818C29.8282 25.833 28.8465 24.6183 27.8821 23.3694C27.7615 23.1983 27.641 23.0786 27.4343 23.147C27.176 23.2497 27.3138 23.4721 27.3482 23.626C27.5893 24.8236 27.8476 26.0211 28.1232 27.2016C28.1921 27.5266 28.0715 27.6122 27.8132 27.6635C27.4515 27.7319 27.0899 27.8004 26.7282 27.8859C26.4354 27.9543 26.3321 27.8517 26.2632 27.5609C25.9704 26.1238 25.6432 24.6867 25.3332 23.2325C24.9371 21.3678 24.541 19.4859 24.1104 17.6211C24.0415 17.2961 24.1621 17.1763 24.4204 17.125C25.3676 16.9197 26.3149 16.6973 27.2621 16.5262C28.4849 16.3209 29.7765 17.125 30.2415 18.3397C30.4482 18.87 30.5688 19.4004 30.5688 20.1702ZM28.6399 19.9991C28.6399 19.9478 28.6399 19.811 28.6226 19.6741C28.3299 18.391 28.0371 18.2884 27.0899 18.3739C26.9521 18.391 26.8143 18.4765 26.6765 18.4765C26.2976 18.4937 26.2976 18.7332 26.3493 19.0069C26.5043 19.7083 26.6765 20.4097 26.8315 21.1112C26.8488 21.2138 26.8488 21.3336 27.0038 21.3507C27.8304 21.5389 28.6399 20.9059 28.6399 19.9991Z" fill="#080601"/>
<path d="M50.5639 22.7706C50.4433 22.8048 50.3917 22.7022 50.3572 22.5311C50.0644 21.1454 49.7717 19.7596 49.4789 18.3739C49.0828 16.5262 48.6694 14.6614 48.2561 12.8138C48.1011 12.0953 48.0839 12.0953 48.8244 11.9413C50.3917 11.5991 51.9417 11.2741 53.4916 10.9148C53.7155 10.8635 53.8361 10.8806 53.8705 11.1372C53.9222 11.4965 54.0083 11.8728 54.1116 12.215C54.215 12.5743 54.0428 12.6598 53.75 12.7111C52.7683 12.9164 51.8039 13.1388 50.8222 13.327C50.4261 13.3955 50.3055 13.5494 50.4261 13.96C50.5811 14.4561 50.6672 14.9865 50.7705 15.4826C50.8222 15.705 50.8739 15.8419 51.2011 15.7564C51.9761 15.5339 52.7855 15.3971 53.5778 15.226C53.8878 15.1576 54.0944 15.1918 54.1289 15.5853C54.1633 15.9274 54.2666 16.2867 54.3528 16.6289C54.4044 16.8684 54.3183 16.9539 54.0944 17.0052C53.2333 17.1592 52.3894 17.3474 51.5455 17.5356C51.3905 17.5698 51.2528 17.5869 51.3044 17.8264C51.4939 18.6476 51.6833 19.4517 51.8383 20.2728C51.9072 20.6321 52.0622 20.6492 52.3722 20.5808C53.3883 20.3584 54.4216 20.1702 55.4378 19.9478C55.6961 19.8965 55.7994 19.9649 55.8511 20.2044C56.1955 21.8468 56.4194 21.5217 54.8178 21.881C53.5778 22.1376 52.3378 22.4113 51.0978 22.6851C50.9255 22.7022 50.7878 22.7193 50.5639 22.7706Z" fill="#080601"/>
<path d="M19.2537 18.3396C20.7348 18.2541 21.8715 19.1095 22.1987 20.5636C22.3709 21.2993 22.457 22.0178 22.2332 22.7877C21.8887 23.951 21.062 24.5156 19.9426 24.7551C19.8393 24.7722 19.7532 24.7893 19.6498 24.8064C19.0815 24.9433 19.0815 24.9433 19.2193 25.542C19.4604 26.6541 19.6843 27.7661 19.9426 28.861C20.0287 29.2031 19.977 29.3742 19.5809 29.4256C19.2193 29.4598 18.8576 29.5624 18.4959 29.648C18.2376 29.7164 18.1515 29.6137 18.0998 29.3571C17.8415 28.0398 17.5659 26.7225 17.2559 25.4052C16.7737 23.3864 16.3776 21.3335 15.9298 19.2977C15.8782 19.0924 15.8782 18.9384 16.1365 18.8871C17.1871 18.7331 18.2032 18.3909 19.2537 18.3396ZM19.1676 20.1359C18.9437 20.0846 18.7026 20.2386 18.4271 20.2386C18.1859 20.2386 18.0998 20.3412 18.1515 20.5807C18.272 21.1453 18.3926 21.7099 18.5304 22.2744C18.5993 22.5482 18.5476 22.9416 18.7887 23.0785C19.0298 23.2325 19.3398 22.9245 19.6498 22.9416C19.667 22.9416 19.6843 22.9416 19.6843 22.9245C20.0287 22.8219 20.2698 22.6166 20.4076 22.2573C20.5626 21.7783 20.4248 21.3335 20.3043 20.8716C20.1493 20.3583 19.822 20.1359 19.1676 20.1359Z" fill="#080601"/>
<path d="M40.1436 16.9881C40.178 15.9446 40.2814 14.901 41.0047 14.0627C42.1414 12.7625 44.1736 12.694 45.4308 13.8916C46.1542 14.5759 46.1542 14.5759 45.4481 15.2773C45.2414 15.4826 45.0347 15.7906 44.7764 15.8419C44.5008 15.9103 44.3975 15.4826 44.1736 15.3116C43.8119 15.0378 43.4675 14.747 42.9853 14.901C42.4858 15.0549 42.2103 15.4313 42.1242 15.9617C41.9519 17.0224 42.1069 18.0659 42.3481 19.0924C42.5375 19.9136 42.7786 20.7006 43.1919 21.4362C43.4847 21.9323 43.8292 22.3771 44.4836 22.3258C45.1381 22.2745 45.4481 21.7613 45.6892 21.248C45.9992 20.5637 45.9819 20.5637 46.6708 20.8374C46.8603 20.923 47.0497 21.0256 47.2564 21.0769C47.6181 21.1625 47.7042 21.3336 47.5664 21.6757C47.0325 23.0272 46.1714 23.9853 44.6214 24.1393C43.2781 24.2761 42.3481 23.626 41.6592 22.5653C40.8325 21.2993 40.4708 19.8794 40.2642 18.4081C40.2125 17.9462 40.1092 17.4672 40.1436 16.9881Z" fill="#080601"/>
<path d="M33.8921 16.9882C33.6165 16.954 33.3409 17.0909 33.0654 17.1251C32.9276 17.1422 32.8071 17.1764 32.7726 16.9882C32.6865 16.5605 32.6004 16.1328 32.4971 15.7051C32.4454 15.4827 32.5487 15.4143 32.7554 15.363C34.0471 15.0892 35.3387 14.8155 36.6304 14.5247C36.9059 14.4562 37.0609 14.4734 37.0782 14.8155C37.0782 14.9182 37.1298 15.0037 37.1471 15.1063C37.1987 15.4485 37.4743 15.8591 37.3021 16.1157C37.1471 16.3723 36.6648 16.3381 36.3204 16.4237C36.0621 16.475 36.0276 16.6118 36.0793 16.8514C36.4409 18.4766 36.8026 20.1019 37.1471 21.7442C37.2676 22.3088 37.4054 22.8733 37.5259 23.4379C37.5776 23.6945 37.6982 23.7459 37.9565 23.6603C38.9726 23.3524 38.9898 23.3695 39.1793 24.3788C39.3171 25.2 39.3171 25.1829 38.4732 25.354C37.3709 25.5764 36.2687 25.8159 35.1665 26.0725C34.8221 26.1581 34.6843 26.0725 34.6671 25.7304C34.6498 25.4224 34.5637 25.1145 34.4604 24.8237C34.3743 24.567 34.4087 24.396 34.7359 24.3275C35.0459 24.2591 35.4765 24.3446 35.6487 24.0709C35.8209 23.8143 35.5798 23.4721 35.5109 23.1813C35.2698 21.9837 34.9943 20.8033 34.7532 19.6228C34.5809 18.8359 34.4087 18.0489 34.2537 17.2619C34.2021 17.0395 34.1332 16.9198 33.8921 16.9882Z" fill="#080601"/>
<path d="M7.07764 23.8485C7.14653 22.8905 7.24986 21.8811 7.97319 21.0941C9.05819 19.8795 11.0215 19.9479 12.1065 21.1797C12.7954 21.9837 13.226 22.9076 13.5015 23.9169C13.5704 24.1907 13.6565 24.4644 13.7426 24.7381C13.8115 24.9605 13.7943 25.0803 13.5015 25.1487C12.4165 25.3711 11.3315 25.6106 10.2465 25.8501C9.78153 25.9528 9.33375 26.0554 8.86875 26.141C8.64486 26.1752 8.61041 26.2949 8.64486 26.466C8.92041 27.5267 9.19597 28.6045 9.9193 29.4941C10.7632 30.5206 12.0376 30.4351 12.7437 29.3059C12.8471 29.1349 13.0021 28.9638 13.0365 28.7414C13.0882 28.4676 13.2432 28.4334 13.5015 28.5361C14.2937 28.844 14.311 28.844 13.8632 29.5968C13.2432 30.6575 12.3649 31.2733 11.0904 31.2562C9.98819 31.2391 9.26486 30.6061 8.69653 29.7679C7.93875 28.6216 7.5943 27.3214 7.33597 26.0041C7.21541 25.3027 7.11208 24.6184 7.07764 23.8485ZM8.24875 23.8485C8.24875 24.1735 8.31764 24.4986 8.33486 24.8237C8.35208 25.1316 8.50708 25.1316 8.73097 25.0974C9.07541 25.0289 9.41986 24.9263 9.7643 24.8579C10.5393 24.6868 11.3315 24.5328 12.1065 24.3617C12.2443 24.3275 12.4165 24.3104 12.3476 24.1051C12.0549 23.2326 11.7621 22.3601 11.0387 21.7271C10.2121 21.0086 9.05819 21.2481 8.57597 22.2232C8.30041 22.7194 8.28319 23.2839 8.24875 23.8485Z" fill="#080601"/>
<path d="M28.6395 19.9992C28.6395 20.9059 27.8301 21.5218 27.0034 21.3678C26.8484 21.3336 26.8484 21.231 26.8312 21.1283C26.6762 20.4269 26.504 19.7255 26.349 19.0241C26.2801 18.7503 26.2973 18.5108 26.6762 18.4937C26.8139 18.4766 26.9517 18.4082 27.0895 18.3911C28.0367 18.3055 28.3295 18.4082 28.6223 19.6913C28.6567 19.811 28.6395 19.965 28.6395 19.9992Z" fill="#FCBC01"/>
<path d="M19.1674 20.1359C19.8218 20.1359 20.1318 20.3583 20.2868 20.9229C20.4074 21.3677 20.5452 21.8296 20.3902 22.3087C20.2696 22.6679 20.0113 22.8561 19.6668 22.9759C19.6496 22.9759 19.6324 22.993 19.6324 22.993C19.3224 22.9759 19.0124 23.2838 18.7713 23.1298C18.5474 22.993 18.5818 22.5995 18.5129 22.3258C18.3752 21.7612 18.2718 21.1966 18.134 20.6321C18.0824 20.3926 18.1685 20.2899 18.4096 20.2899C18.7024 20.2386 18.9435 20.0846 19.1674 20.1359Z" fill="#FCBC01"/>
<path d="M8.24902 23.8485C8.28347 23.284 8.30069 22.7194 8.55902 22.1891C9.05847 21.2139 10.1951 20.9744 11.0218 21.6929C11.7451 22.3259 12.0379 23.2155 12.3307 24.0709C12.3996 24.2762 12.2101 24.3104 12.0896 24.3276C11.3146 24.4986 10.5224 24.6526 9.74736 24.8237C9.40291 24.8921 9.05847 24.9948 8.71402 25.0632C8.49013 25.1145 8.33513 25.0974 8.31791 24.7895C8.31791 24.4986 8.24902 24.1736 8.24902 23.8485Z" fill="#FCBC01"/>
</g>
<defs>
<clipPath id="clip0_17427_3076">
<rect width="62" height="42" fill="white" transform="translate(0.119629)"/>
</clipPath>
</defs>
</svg>
