<svg width="160" height="32" viewBox="0 0 160 32" fill="none" xmlns="http://www.w3.org/2000/svg">
<path d="M61.3334 10.121C54.2223 10.121 52.1482 13.9163 52.1482 18.6047V22.921C52.1482 28.2047 54.8889 31.9256 61.8519 31.9256C65.0371 31.9256 66.7408 31.7768 69.926 31.107V25.8233C66.5926 26.4186 64.963 26.5675 62.3704 26.5675C59.4815 26.5675 58.5926 25.8977 58.5926 23.4419V22.9954H70.4445V18.6791C70.5186 13.8419 68.4445 10.121 61.3334 10.121ZM64 18.5303H58.5926V17.7117C58.5926 16.2233 59.1112 14.9582 61.2593 14.9582C63.4815 14.9582 63.926 16.1489 63.926 17.7117V18.5303H64Z" fill="#3B5998"/>
<path d="M34 19.1257V22.921C34 28.2048 36.7407 31.9257 43.7037 31.9257C45.3333 31.9257 47.2593 31.7768 50.2222 31.1071V25.8234C46.8889 26.4187 45.9259 26.5675 44.2963 26.5675C41.4074 26.5675 40.5185 25.8978 40.5185 23.442V18.7536C40.5185 16.2978 41.4074 15.628 44.2963 15.628C45.9259 15.628 46.8889 15.7769 50.2222 16.2978V11.0141C47.2593 10.3443 45.3333 10.1955 43.7037 10.1955C36.8148 10.121 34 13.7675 34 19.1257Z" fill="#3B5998"/>
<path d="M22.8147 10.4186H16.7406L16.2221 15.8511H21.7777C25.1851 15.8511 25.4073 16.5209 25.4073 18.679V19.6465H20.9629C16.5925 19.6465 14.074 21.2093 14.074 25.5256C14.074 29.1721 16.148 31.8511 20.148 31.8511C21.6295 31.8511 23.7777 31.6279 26.2962 30.2883L26.5184 31.6279H31.8518V18.7535C31.8518 12.8 30.2221 10.4186 22.8147 10.4186ZM22.2962 27.2372C21.0369 27.2372 20.5184 26.6418 20.5184 25.4511C20.5184 24.2604 21.111 23.9628 22.5184 23.9628H25.4073V26.3442C24.4443 26.7907 23.6295 27.2372 22.2962 27.2372Z" fill="#3B5998"/>
<path d="M147.333 10.4186L141.407 19.9442V0.6698L134.963 1.71166V31.6279H141.407V21.6558L147.333 31.6279H154.37L147.926 20.7628L154.37 10.4186H147.333Z" fill="#3B5998"/>
<path d="M14.0741 15.8512L14.6667 10.4186H9.77778V7.66516C9.77778 6.25121 9.92593 5.50702 11.9259 5.50702H14.5926V0.0744629H10.2963C5.11111 0.0744629 3.25926 2.67911 3.25926 7.14423V10.4186H0V15.8512H3.25926V31.628H9.7037V15.8512H14.0741Z" fill="#3B5998"/>
<path d="M84.0001 10.121C82.3704 10.121 80.5186 10.4186 79.1112 10.9396V0.6698L72.6667 1.78608V31.107C76.2223 31.6279 78.0742 31.9256 81.2593 31.9256C90.0741 31.9256 91.5556 28.2047 91.5556 23.0698V17.7861C91.5556 13.0233 90.5186 10.121 84.0001 10.121ZM85.1112 23.0698C85.1112 25.0791 84.6667 26.5675 81.4816 26.5675C80.5927 26.5675 80.0742 26.5675 79.1112 26.4931V16.4465C80.0742 16 81.0371 15.5535 82.3704 15.5535C84.5927 15.5535 85.0371 16.7442 85.0371 18.2326V23.0698H85.1112Z" fill="#3B5998"/>
<path d="M102.889 10.121C95.2593 10.121 93.4075 14.4373 93.4075 18.8279V23.0698C93.4075 27.4605 95.2593 31.7768 102.889 31.7768C110.519 31.7768 112.296 27.4605 112.296 23.0698V18.8279C112.37 14.4373 110.519 10.121 102.889 10.121ZM105.852 23.7396C105.852 25.228 105.111 26.4931 102.889 26.4931C100.667 26.4931 99.926 25.3024 99.926 23.7396V18.2326C99.926 16.7442 100.667 15.5535 102.889 15.5535C105.111 15.5535 105.852 16.7442 105.852 18.2326V23.7396Z" fill="#3B5998"/>
<path d="M123.63 10.121C116 10.121 114.148 14.4373 114.148 18.8279V23.0698C114.148 27.4605 116 31.7768 123.63 31.7768C131.259 31.7768 133.037 27.4605 133.037 23.0698V18.8279C133.111 14.4373 131.259 10.121 123.63 10.121ZM126.593 23.7396C126.593 25.228 125.852 26.4931 123.63 26.4931C121.407 26.4931 120.667 25.3024 120.667 23.7396V18.2326C120.667 16.7442 121.407 15.5535 123.63 15.5535C125.852 15.5535 126.593 16.7442 126.593 18.2326V23.7396Z" fill="#3B5998"/>
<path d="M158 27.907C156.889 27.907 156 28.8 156 29.9163C156 31.0326 156.889 31.9256 158 31.9256C159.111 31.9256 160 31.0326 160 29.9163C160 28.8 159.111 27.907 158 27.907ZM158.074 31.6279C158.074 31.6279 158 31.6279 158.074 31.6279C157.185 31.6279 156.444 30.8837 156.444 29.9163C156.444 28.9488 157.185 28.2047 158.074 28.2047C158.963 28.2047 159.704 28.9488 159.704 29.9163C159.63 30.8093 158.889 31.6279 158.074 31.6279Z" fill="#3B5998"/>
<path d="M158.37 29.9907C158.593 29.9163 158.815 29.7675 158.815 29.3954C158.815 29.1721 158.741 29.0233 158.593 28.9489C158.444 28.8745 158.222 28.8 157.926 28.8C157.63 28.8 157.482 28.8 157.259 28.8745V31.107H157.63V30.1396H157.852C158.148 30.1396 158.296 30.2884 158.37 30.5117C158.444 30.8094 158.444 31.0326 158.519 31.107H158.889C158.889 31.0326 158.815 30.8838 158.741 30.5861C158.741 30.214 158.593 29.9907 158.37 29.9907ZM157.926 29.8419H157.704V29.0977C157.778 29.0977 157.852 29.0977 157.926 29.0977C158.296 29.0977 158.444 29.321 158.444 29.4698C158.444 29.6931 158.222 29.8419 157.926 29.8419Z" fill="#3B5998"/>
</svg>
