<svg width="82" height="24" viewBox="0 0 82 24" fill="none" xmlns="http://www.w3.org/2000/svg">
<path fill-rule="evenodd" clip-rule="evenodd" d="M38.103 13.1693L38.0392 12.5539L37.9117 11.7539L37.848 11.3231L37.7205 10.8308L37.5293 10.4L37.1469 9.90767L36.7645 9.47688L36.3183 9.0461L35.8721 8.67685L35.0436 8.18452L34.3425 7.87682L33.5776 7.56912L32.749 7.32295L31.4105 7.07679L30.3907 7.01525L29.3709 6.95371H28.2237L27.4588 7.01525L26.694 7.07679L25.8654 7.26141L24.9731 7.50757L24.4632 7.63066L23.9533 7.81528L23.5071 8.06144L23.061 8.30761L22.6785 8.61531L22.3598 8.98456L22.0412 9.3538L21.8499 9.53842V7.32295L8.2739 7.38449V6.39984L8.33763 5.96905L8.40137 5.66135L8.59258 5.16902L8.7838 4.79978L8.97501 4.49207L9.29369 4.24591L9.73985 3.87666L10.1223 3.69204L10.8871 3.44588L11.4608 3.3228L12.0981 3.26126H12.863L13.4366 3.3228L14.0103 3.38434L14.6476 3.56896L15.0301 3.69204L15.3487 3.81512L15.6674 3.99975L15.9861 4.30745L16.2411 4.55361L16.496 4.86132L16.6872 5.16902L16.8147 5.53827L16.8784 5.84597L21.7225 5.78443L21.6587 5.59981L21.595 5.10748L21.4675 4.61515L21.2763 4.12283L21.0851 3.6305L20.6389 3.07663L20.2565 2.64585L19.7466 2.21506L19.2367 1.84582L18.7268 1.47657L17.707 1.10733L16.751 0.799621L15.6674 0.614999L13.9465 0.430376L12.9267 0.368835H11.8432L10.7597 0.491917L9.93107 0.553458L9.29369 0.614999L8.65632 0.738081L8.01895 0.922703L7.38158 1.10733L6.7442 1.35349L6.2343 1.66119L5.72441 1.9689L5.27824 2.33814L4.83208 2.70739L4.5134 3.07663L4.19471 3.50742L3.93976 3.93821L3.74855 4.36899L3.62107 4.86132L3.4936 5.2921L3.42986 5.78443V6.15368V7.38449L0.880371 7.44603V10.5846H3.4936V23.3236H8.40137L8.33763 10.5231H16.8147V23.262H21.9137L21.8499 14.7694V14.5232L21.9137 14.0924L21.9774 13.6617L22.1686 13.2309L22.2961 12.8616L22.6148 12.4308L22.9972 12.0001L23.3796 11.6924L23.7621 11.3846L24.5269 11.0154L25.1005 10.7692L25.7379 10.5846L26.3753 10.4615L27.0764 10.3385L27.65 10.2769H28.2237L28.7336 10.3385L29.3072 10.4L29.8171 10.5846L30.327 10.7077L31.0281 11.0769L31.4105 11.2616L31.7292 11.5693L32.0479 11.8154L32.3666 12.1847L32.6215 12.5539L32.8128 12.9847L32.9402 13.4155L33.0677 13.8463V14.0924L33.1314 14.7079L33.1952 23.262H38.1667L38.103 13.6001V13.1693Z" fill="#EAB320"/>
<path fill-rule="evenodd" clip-rule="evenodd" d="M59.0089 12.7385L58.9452 12.1846L58.8814 11.6308L58.7539 11.0769L58.6265 10.6461L58.4353 10.2153L58.1166 9.84608L57.6704 9.41529L57.2242 8.98451L56.7143 8.61526L55.8858 8.18447L55.0572 7.87677L54.2286 7.63061L53.3363 7.38444L51.8066 7.19982L50.4681 7.07674L49.0659 7.0152H48.8109H47.8549L46.8988 7.07674L45.9427 7.19982L45.0504 7.3229L44.4131 7.44598L43.8394 7.56907L43.202 7.81523L42.4372 8.18447L41.991 8.43064L41.5449 8.73834L41.0987 9.10759L40.7163 9.47683L40.3976 9.90762L40.0789 10.3384L39.824 10.7692L39.6328 11.2615L39.5053 11.7538L39.4415 12L39.3778 12.4923L44.4768 12.4308V12.2462L44.5405 11.8769L44.7317 11.4461L44.8592 11.1384L45.0504 10.8923L45.4328 10.5846L45.9427 10.2769L46.5164 10.0307L47.09 9.84608L47.6637 9.66145L48.301 9.53837L48.9384 9.47683H49.0021H49.5758L50.2131 9.53837L50.8505 9.66145L51.4242 9.78454L51.9978 9.96916L52.444 10.1538L52.8901 10.3999L53.2725 10.5846L53.5275 10.7692L53.7187 10.9538L53.9099 11.2615L54.0374 11.6923L54.1011 11.9385V12.1846V12.4308L53.9736 12.7385L53.8462 12.9847L53.5912 13.2308L53.3363 13.4154L53.0176 13.5385L52.2527 13.7231L51.6791 13.7847L49.0659 14.0309L42.6921 14.5847L42.3735 14.6463L41.8636 14.7693L41.2262 15.0155L40.5888 15.3848L40.2701 15.5694L39.8877 15.8771L39.6328 16.1848L39.3141 16.6156L39.1229 16.9848L38.9954 17.4771L38.9316 17.9695V18.4618L38.9954 19.0772L39.0591 19.6311L39.1866 20.0619L39.3778 20.4311L39.6965 20.9234L40.0152 21.2927L40.3339 21.6619L41.035 22.0927L41.6086 22.4004L42.3735 22.7081L43.2658 22.9543L44.1581 23.1389L45.0504 23.262L45.9427 23.3235H46.8351H47.7274L48.6197 23.262L49.1933 23.2004L49.512 23.1389L50.4044 22.9543L51.2967 22.7081L52.1253 22.4004L52.9539 22.0312L53.7187 21.6004L54.2286 21.2927V23.3235H59.1364L59.0089 12.9231V12.7385ZM54.1011 17.3541V17.5387L54.0374 17.9079L53.9099 18.2772L53.5912 18.708L53.2088 19.0772L52.6989 19.5695L52.2527 19.9388L51.7428 20.2465L51.2329 20.4926L50.6593 20.6773L50.0857 20.8619L49.512 20.985L49.1296 21.0465H48.9384H48.3648L47.7911 20.985L47.09 20.9234L46.5164 20.8003L45.9427 20.6157L45.3691 20.3696L44.668 20.0003L44.4768 19.8157L44.2218 19.4464L44.0944 19.2003L44.0306 18.9541L43.9669 18.6464V18.4003L44.0306 18.1541L44.1581 17.8464L44.3493 17.6002L44.5405 17.4156L44.9229 17.231L45.3691 17.0464L45.8153 16.9233L48.9384 16.6156L49.9582 16.4925L51.2967 16.3694L52.1253 16.2463L52.5714 16.1232L53.0176 16.0002L53.4637 15.8155L53.9099 15.5694V17.3541H54.1011Z" fill="#EAB320"/>
<path fill-rule="evenodd" clip-rule="evenodd" d="M76.2177 18.031L76.0902 18.2156L75.899 18.4617L75.5803 18.831L75.2616 19.2002L74.8792 19.4464L74.1781 19.8156L73.5407 20.0618L72.9033 20.2464L72.2659 20.3695L71.3736 20.4926H70.6725L70.0351 20.4311L69.334 20.308L68.6967 20.1849L68.123 20.0003L67.6769 19.8772L67.2307 19.631L66.8483 19.4464L66.4021 19.0772L66.0197 18.7079L65.701 18.3387L65.4461 17.9079L65.1911 17.4771L64.9999 16.9848L64.8724 16.4924L64.8087 16.0001V15.5078V15.0155L64.8724 14.5231L65.0636 13.9077L65.2548 13.4769L65.5098 12.9846L65.7647 12.6154L66.0834 12.2461L66.4659 11.8769L66.912 11.5076L67.4856 11.1999L68.123 11.0153L68.6967 10.7691L69.334 10.6461L69.9714 10.523L70.545 10.4614H71.1824L71.8198 10.523L72.4572 10.6461L73.0945 10.7076L73.6044 10.8922L74.0506 11.0768L74.433 11.2615L74.8792 11.5692L75.2616 11.8153L75.5803 12.1846L75.8352 12.5538L76.0902 12.8H81.3804L81.3166 12.5538L81.1254 12L80.8705 11.5692L80.6155 11.0768L80.1694 10.523L79.7869 10.0307L79.277 9.66141L78.8309 9.29217L78.321 8.98446L77.7474 8.67676L77.1737 8.43059L76.2177 8.06135L74.9429 7.75364L73.8594 7.56902L72.7758 7.44594L71.6286 7.3844H70.545L69.4615 7.44594L68.3142 7.50748L67.2307 7.6921L66.2109 7.93827L65.1274 8.24597L64.1713 8.55367L63.6614 8.86138L63.024 9.16908L62.5141 9.47679L62.068 9.90757L61.6218 10.3384L61.1757 10.8307L60.7932 11.3846L60.5383 11.8769L60.2833 12.4307L60.0284 13.3539L59.9009 14.0923L59.8372 14.8308L59.7734 15.6924V16.3078L59.8372 16.9232L59.9647 17.4771L60.1559 18.0925L60.4745 18.831L60.7932 19.3849L61.1119 19.8772L61.4943 20.3695L62.2592 21.0465L62.8328 21.4772L63.4702 21.908L64.5537 22.4004L65.3823 22.7696L66.2746 23.0158L67.8043 23.385L69.0791 23.5081L70.2901 23.5696L71.3099 23.6312H72.2659L73.222 23.5696L74.1781 23.4466L75.1341 23.2619L75.899 23.0773L76.6001 22.8311L77.3012 22.585L78.066 22.2157L78.5759 21.908L79.0221 21.6003L79.4683 21.2311L79.9144 20.8618L80.2968 20.4311L80.6155 19.9387L80.8705 19.4464L81.1254 18.9541L81.2529 18.4617L81.3804 18.0925L76.2177 18.031Z" fill="#EAB320"/>
</svg>
