<svg width="144" height="30" viewBox="0 0 144 30" fill="none" xmlns="http://www.w3.org/2000/svg">
<path d="M72.9647 25.9465C77.7311 25.9465 80.9063 22.9535 80.9063 17.9023V4.98138H75.6935V17.7C75.6935 20.0512 74.8223 21.2163 72.9935 21.2163C71.2295 21.2163 70.4735 20.0232 70.4735 17.7V4.98138H65.2319V17.9023C65.2391 23.0651 68.1407 25.9465 72.9647 25.9465Z" fill="#53A318"/>
<path d="M94.8743 6.11162C93.4343 5.1279 91.7279 4.98138 89.4815 4.98138H82.4111V25.6256H87.6239V18.9767H89.1215C91.3391 18.9767 93.0167 18.8302 94.3703 18.0488C96.4943 16.8 97.7543 14.5953 97.7543 11.9232C97.7543 9.33487 96.7679 7.38836 94.8743 6.11162ZM88.6463 14.5046H87.6887V9.59999H89.0639C91.3751 9.59999 92.4839 10.2977 92.4839 12.007C92.4767 13.8628 91.2239 14.5046 88.6463 14.5046Z" fill="#53A318"/>
<path d="M126.583 14.1279L134.525 25.6256H139.104V4.98138H133.898V16.4512L126.072 4.98138H121.37V25.6256H126.583V14.1279Z" fill="#53A318"/>
<path d="M60.588 7.65345C58.5216 5.67903 55.8288 4.60461 52.9776 4.60461C49.9536 4.60461 47.3112 5.62322 45.216 7.62554C43.1208 9.62787 41.976 12.2441 41.976 15.0907C41.976 18.1395 42.9984 20.693 45 22.7581C47.0952 24.9069 49.7952 26.0093 52.9416 26.0093C55.908 26.0093 58.7232 24.879 60.7896 22.786C62.7984 20.7837 63.8784 18.1395 63.8784 15.1814C63.8856 12.3558 62.748 9.71159 60.588 7.65345ZM52.9488 20.8953C50.0112 20.8953 47.3472 18.3976 47.3472 15.1465C47.3472 12.1255 49.8312 9.71857 53.0136 9.71857C56.0088 9.71857 58.5 12.1255 58.5 15.1465C58.4928 18.5093 56.0088 20.8953 52.9488 20.8953Z" fill="#53A318"/>
<path d="M117.05 7.65345C114.984 5.67903 112.284 4.60461 109.44 4.60461C106.409 4.60461 103.774 5.62322 101.678 7.62554C99.5832 9.62787 98.4384 12.2441 98.4384 15.0907C98.4384 18.1395 99.4608 20.693 101.462 22.7581C103.565 24.9069 106.258 26.0093 109.404 26.0093C112.37 26.0093 115.186 24.879 117.252 22.786C119.261 20.7837 120.341 18.1395 120.341 15.1814C120.348 12.3558 119.21 9.71159 117.05 7.65345ZM109.411 20.8953C106.474 20.8953 103.81 18.3976 103.81 15.1465C103.81 12.1255 106.301 9.71857 109.476 9.71857C112.471 9.71857 114.962 12.1255 114.962 15.1465C114.955 18.5093 112.464 20.8953 109.411 20.8953Z" fill="#53A318"/>
<path d="M5.69518 22.7511C7.79038 24.9 10.4616 26.0302 13.608 26.0302C17.2368 26.0302 20.6496 24.286 22.6872 21.4116C23.9184 19.6674 24.516 17.693 24.516 15.3697C24.516 14.9372 24.4872 14.4697 24.4584 14.0023H12.3192V18.1255H18.4032C17.352 19.9255 15.588 20.9162 13.608 20.9162C10.6704 20.9162 8.03518 18.3907 8.03518 15.1046C8.03518 12.1395 10.4904 9.6767 13.608 9.6767C15.2856 9.6767 16.6608 10.3465 17.9856 11.679H23.9184C22.212 7.26274 18.2232 4.56274 13.6728 4.56274C10.6488 4.56274 8.01358 5.60926 5.91118 7.61158C3.81598 9.61391 2.67838 12.2302 2.67838 15.0767C2.67118 18.1325 3.68638 20.686 5.69518 22.7511Z" fill="#53A318"/>
<path d="M36.3456 18.5372C39.3696 17.7209 41.1696 15.2302 41.1696 11.8884C41.1696 9.33487 40.1832 7.38836 38.2896 6.11162C36.8496 5.1279 35.1432 4.98138 32.8968 4.98138H25.8264V25.6256H31.0392V18.9767L35.1144 25.6256H41.5584L36.3456 18.5372ZM32.0616 14.5046H31.0464V9.59999H32.4864C34.7904 9.59999 35.8992 10.2977 35.8992 12.007C35.8992 13.8628 34.6392 14.5046 32.0616 14.5046Z" fill="#53A318"/>
<path d="M142.236 7.59765C142.682 7.59765 143.064 7.44416 143.374 7.13719C143.69 6.83021 143.842 6.46044 143.842 6.03486C143.842 5.6023 143.683 5.23951 143.374 4.93951C143.064 4.63951 142.682 4.48602 142.236 4.48602C141.797 4.48602 141.415 4.63951 141.106 4.93951C140.789 5.24649 140.638 5.60928 140.638 6.03486C140.638 6.46742 140.796 6.83719 141.106 7.13719C141.415 7.44416 141.79 7.59765 142.236 7.59765ZM141.264 5.08602C141.538 4.82091 141.862 4.68835 142.243 4.68835C142.625 4.68835 142.956 4.82091 143.222 5.08602C143.489 5.34416 143.626 5.66509 143.626 6.03486C143.626 6.40463 143.489 6.72556 143.222 6.99067C142.956 7.25579 142.632 7.38835 142.243 7.38835C141.862 7.38835 141.53 7.25579 141.264 6.99067C140.998 6.72556 140.861 6.4116 140.861 6.03486C140.861 5.66509 140.99 5.35114 141.264 5.08602Z" fill="#53A318"/>
<path d="M142.949 6.85811C142.942 6.84416 142.934 6.81625 142.934 6.76741C142.934 6.72555 142.927 6.67672 142.927 6.64183V6.51625C142.927 6.43253 142.898 6.34183 142.834 6.25113C142.769 6.16044 142.668 6.10462 142.531 6.08369C142.639 6.06974 142.726 6.04183 142.783 5.99997C142.898 5.9302 142.956 5.8116 142.956 5.66509C142.956 5.44881 142.862 5.3023 142.682 5.23253C142.582 5.19067 142.423 5.16974 142.2 5.16974H141.581V6.87904H141.89V6.20927H142.135C142.301 6.20927 142.416 6.2302 142.481 6.26509C142.596 6.32788 142.646 6.46044 142.646 6.65579V6.78834L142.654 6.84416C142.654 6.85113 142.654 6.85811 142.654 6.86509C142.654 6.87206 142.654 6.87904 142.661 6.87904H142.949V6.85811ZM142.481 5.95811C142.416 5.98602 142.315 5.99299 142.186 5.99299H141.905V5.37206H142.171C142.344 5.37206 142.466 5.39299 142.546 5.43486C142.625 5.47672 142.661 5.56044 142.661 5.68602C142.661 5.82555 142.596 5.91625 142.481 5.95811Z" fill="#53A318"/>
</svg>
