<svg width="123" height="35" viewBox="0 0 123 35" fill="none" xmlns="http://www.w3.org/2000/svg">
<path d="M6.25946 0.164675C5.46068 0.452894 4.21722 1.31753 3.29492 2.23983C1.92793 3.60681 0.873872 5.37731 0.248024 7.35368C0.0339177 8.02893 0.000978319 8.33364 0.000978319 9.30535C-0.00725653 10.2853 0.0339176 10.5488 0.223319 11.0347C0.807993 12.5334 2.05145 13.7439 3.32786 14.0733C3.68195 14.1639 3.80548 14.1639 3.92076 14.0651C4.15134 13.8757 4.0937 13.5627 3.64078 12.7804C2.53731 10.8452 2.59495 8.12775 3.79724 5.25379C4.29133 4.0515 5.69126 2.14924 6.07006 2.14924C6.21829 2.14924 6.23476 18.8907 6.08653 21.4764C5.98771 23.354 5.89713 23.9469 5.55126 25.108C5.24657 26.1456 5.26304 26.4173 5.67479 26.4503C6.43239 26.5244 7.85702 25.355 8.51581 24.1116C8.99343 23.1893 9.33106 21.9705 9.47105 20.6694C9.54516 19.9448 9.58634 16.5767 9.59457 10.3923L9.60281 1.20223L9.364 0.938742C8.68874 0.230545 7.15706 -0.156485 6.25946 0.164675Z" fill="black"/>
<path d="M40.1294 0.197643C39.94 0.354103 39.8988 0.502316 39.8329 1.33403C39.7918 1.85283 39.7588 2.89045 39.7424 3.62334V4.96561L38.0213 4.89975L36.3002 4.83384L36.0943 5.09737C35.8473 5.41853 35.6743 6.00319 35.6579 6.60433C35.6496 7.29606 35.7567 7.34547 37.2719 7.34547C37.9636 7.34547 38.7542 7.37843 39.0095 7.40313L39.4871 7.46075L39.4541 11.3723L39.413 15.2757L39.133 16.1403C38.7954 17.1614 38.1613 18.2566 37.4531 19.0389L36.9425 19.6071L36.9343 18.7837C36.926 16.9144 36.3249 16.0744 33.5168 13.9663C32.6686 13.324 31.9357 12.7722 31.9028 12.7393C31.8534 12.6981 32.0181 12.3934 32.2651 12.0558C32.998 11.0676 33.4098 10.1124 33.4509 9.31359C33.4921 8.69598 33.4674 8.61364 33.2286 8.33365C32.7592 7.77368 31.5075 7.68309 30.5523 8.11954C29.1441 8.78656 28.2053 10.4912 28.4689 11.8911C28.5677 12.3605 28.9382 13.1428 29.1441 13.2663C29.2018 13.2993 29.2429 13.3898 29.2429 13.4804C29.2429 13.8263 26.4019 18.7507 25.6196 19.7883C25.3808 20.093 25.0349 20.4224 24.862 20.513C24.5408 20.6612 24.5161 20.6612 24.3432 20.4718C24.2361 20.373 24.1126 20.0601 24.055 19.7718C23.9315 19.1213 23.9315 15.1768 24.055 12.4181C24.1209 11.0017 24.1209 10.1865 24.055 9.94769C23.9315 9.48654 23.3221 8.95127 22.4492 8.50659C21.8892 8.22661 21.6998 8.1772 21.1234 8.1772C20.3246 8.18543 19.8552 8.39955 19.1388 9.0501C18.1094 10.0218 17.1871 11.7099 16.2154 14.4274C15.9107 15.2756 15.6225 16.0085 15.5731 16.0662C15.5237 16.1238 15.5154 14.6745 15.5566 12.5911C15.6225 9.08304 15.6225 9.02538 15.4331 8.82774C14.939 8.33365 13.0038 7.92192 12.7238 8.25955C12.6168 8.38307 12.5921 9.68417 12.5509 14.9215C12.4933 21.6659 12.518 22.1929 12.8803 22.9258C13.185 23.5187 13.4732 23.6587 14.4943 23.6587C15.1778 23.6587 15.4331 23.6175 15.5402 23.5105C15.6307 23.4199 15.746 22.9505 15.8284 22.3988C16.2154 19.8213 17.3189 16.3132 18.4718 14.0157C19.287 12.377 20.654 10.5241 20.8269 10.8123C20.8681 10.8618 20.8187 12.5087 20.7281 14.4439C20.514 19.3025 20.6293 21.2624 21.2304 22.5223C21.988 24.1199 23.7009 24.0622 25.4467 22.3741C26.3196 21.5176 27.0031 20.5377 28.7818 17.5649C29.6959 16.0415 30.4535 14.7815 30.4617 14.7651C30.5276 14.691 30.9805 15.0697 32.0428 16.1073C33.4756 17.5237 33.8215 18.1496 33.8215 19.3107C33.8215 19.9613 33.7803 20.1589 33.5827 20.513C33.278 21.0647 32.8251 21.3283 32.2404 21.32C31.7299 21.3118 31.384 21.1553 30.5358 20.5624C29.6711 19.9448 29.4653 19.9283 28.9382 20.4142C28.4277 20.8836 28.0818 21.6247 28.123 22.1353C28.1971 23.0658 30.3217 23.774 32.718 23.6669C34.4803 23.5928 35.6414 23.0987 36.959 21.88C37.7001 21.1965 38.6883 19.8048 39.1989 18.6931L39.5283 17.9684L39.5941 18.3555C40.0965 21.3859 40.7964 22.7199 42.2375 23.3952C42.9457 23.7246 44.0162 23.741 44.5927 23.4363C45.5232 22.9423 46.462 21.8388 47.1125 20.4718L47.4666 19.7225L47.6313 20.2166C47.9196 21.0647 48.4878 22.0447 48.9983 22.5552C50.8841 24.4657 53.9969 23.8563 55.718 21.2377L56.1215 20.6201L56.245 21.0977C56.4344 21.8388 56.6979 22.2835 57.2826 22.8105C58.5837 24.0046 60.4118 23.9387 61.6388 22.6458C61.8858 22.3823 62.207 21.9541 62.3388 21.6823L62.5858 21.2047L63.047 21.88C63.7716 22.934 64.7186 23.5434 65.8468 23.6587C67.3209 23.8152 69.0666 22.967 70.0301 21.6494L70.2936 21.2871L70.3348 21.987C70.3513 22.3741 70.3513 22.7282 70.3348 22.7858C70.3183 22.8352 69.6678 23.4364 68.9102 24.1281C67.0079 25.841 65.2457 27.6609 64.6939 28.4926C64.0434 29.4643 63.7716 30.2713 63.7716 31.2594C63.7716 32.2888 64.0104 32.9394 64.6363 33.6229C66.0197 35.1298 68.6878 35.3851 70.4583 34.1746C71.9324 33.1617 72.657 31.8194 73.1182 29.2666C73.2993 28.2785 73.324 27.8338 73.3076 25.1492L73.2911 22.1353L73.9005 21.3941C75.8851 18.9484 77.812 15.5968 78.8249 12.8546L79.179 11.8829L80.0519 11.817C80.5213 11.7841 81.0895 11.7594 81.3036 11.7594C81.7483 11.7594 81.7483 11.537 81.3201 13.8263C81.0977 15.0451 81.0483 15.5474 81.0401 17.0955C81.0319 19.1707 81.1554 19.9613 81.7071 21.1553C82.6212 23.1399 84.6717 24.1281 86.3516 23.3952C86.8786 23.1646 87.7268 22.3576 88.015 21.8059C88.1385 21.5671 88.2621 21.3694 88.295 21.3694C88.3279 21.3694 88.4268 21.5259 88.5256 21.707C88.822 22.2423 89.6208 22.9835 90.2549 23.2964C92.1242 24.2104 94.5288 23.3375 95.9122 21.2212L96.3075 20.6118L96.5216 21.2294C96.8757 22.2835 97.4769 22.967 98.465 23.4199C99.1156 23.7164 100.293 23.7081 100.878 23.4117C101.438 23.1152 101.957 22.5635 102.352 21.8306L102.681 21.2212L102.739 22.0364C102.813 23.0328 102.854 23.1317 103.249 23.3211C104.213 23.774 105.901 23.774 106.239 23.3211C106.329 23.2058 106.387 22.6952 106.42 21.8388C106.576 18.306 106.782 16.9473 107.548 14.6992C107.927 13.571 108.676 12.0229 108.833 12.0229C109.006 12.0229 109.072 12.4675 109.072 13.5545C109.072 14.0651 109.137 15.2345 109.22 16.1568C109.664 21.3941 110.117 22.407 112.003 22.407C112.645 22.407 112.769 22.3741 112.967 22.1847C113.156 21.9788 113.189 21.847 113.247 20.7683C113.345 18.8578 113.947 15.8768 114.614 14.0816C114.951 13.1593 115.454 11.9817 115.544 11.8664C115.585 11.817 115.618 12.9205 115.618 14.3204C115.618 17.1038 115.725 18.6272 116.005 19.9283C116.368 21.5918 117.133 22.7199 118.295 23.2881C118.846 23.5599 119.036 23.6093 119.662 23.6093C120.279 23.6093 120.452 23.5681 120.905 23.3211C121.481 22.9999 121.926 22.5058 122.288 21.7729C122.824 20.7189 123.17 18.6684 122.914 18.1743C122.75 17.8778 122.354 17.812 122.148 18.0508C122.058 18.1496 121.877 18.6602 121.745 19.179C121.284 20.933 120.889 21.5423 120.213 21.5423C119.909 21.5423 119.769 21.4847 119.513 21.2047C118.673 20.3236 118.41 17.7131 118.599 12.5746C118.723 9.57711 118.706 9.46183 118.105 9.00068C117.66 8.66305 116.45 8.17721 115.906 8.10309C115.174 8.01251 114.819 8.2513 114.424 9.07479C113.749 10.4829 112.687 13.9663 112.308 15.9509C112.234 16.4038 112.143 16.7744 112.127 16.7991C112.028 16.8979 111.781 13.0605 111.781 11.3476C111.781 9.74182 111.69 9.39595 111.147 8.87716C110.686 8.42424 109.763 8.07836 109.039 8.07836C108.174 8.07836 107.82 8.67128 106.626 12.1629L105.827 14.4686V11.7099C105.819 8.33365 105.918 8.56425 104.345 8.23486C103.406 8.04546 103.291 8.02896 103.044 8.16895C102.78 8.32542 102.78 8.32542 102.722 9.65947C102.681 10.4006 102.657 12.5746 102.648 14.4769C102.64 17.8943 102.64 17.9684 102.401 18.7837C101.965 20.2906 101.158 21.5423 100.524 21.6823C100.178 21.7565 99.6179 21.5259 99.4285 21.2294C98.9015 20.4142 98.745 18.1249 98.8932 13.0275L99.0003 9.18186L98.7121 8.91833C98.358 8.59718 97.551 8.35012 96.7851 8.33365C96.044 8.30071 95.8134 8.49837 95.8134 9.09952V9.53595L95.2534 8.95951C94.924 8.63011 94.4464 8.27603 94.117 8.11134C93.6065 7.86429 93.45 7.83132 92.6348 7.83132C91.836 7.83132 91.6466 7.87252 91.1525 8.10309C90.3866 8.45719 89.8349 8.91833 89.3161 9.65947C88.3609 10.9853 87.7515 12.7475 87.5292 14.7733C87.4056 15.9015 87.4715 18.4296 87.628 19.0801C87.7186 19.3848 87.6938 19.5824 87.5292 20.0601C87.0268 21.567 85.9481 22.1435 85.1658 21.3118C84.4164 20.5295 84.227 19.6731 84.2352 17.252C84.2435 15.2262 84.2352 15.2674 84.9022 12.1052C85.0916 11.1994 85.1493 10.6971 85.1081 10.45C85.0175 9.95593 84.5234 9.46182 83.9964 9.31359C83.5353 9.19007 83.387 9.1983 81.0072 9.64298L79.7966 9.86534L79.8049 9.06655C79.8131 8.39952 79.7884 8.22659 79.6155 7.99602C78.9896 7.13959 77.5074 7.20548 76.6921 8.12778C75.811 9.14067 75.811 10.6971 76.7003 11.5288L76.9968 11.8088L76.7333 12.6899C76.2062 14.5592 75.0945 16.9308 73.9417 18.6849L73.3076 19.6483L73.3241 14.411C73.3323 11.5288 73.3323 9.11599 73.3241 9.05834C73.3076 8.82777 72.3688 8.47366 71.3724 8.30896C70.9524 8.24308 70.3924 8.44072 70.2442 8.72071C70.1866 8.83599 70.1372 9.04187 70.1372 9.18186C70.1372 9.44538 70.1289 9.44536 69.7172 9.00068C68.9102 8.16073 68.062 7.78194 67.0079 7.78194C64.8175 7.78194 62.9976 9.84063 62.1988 13.2334C61.9929 14.098 61.9517 14.5921 61.9023 16.1979C61.8694 17.252 61.8941 18.3719 61.9435 18.6684C62.0917 19.4919 61.7129 20.5542 61.0294 21.2624C60.4612 21.8553 59.8189 21.847 59.333 21.2212C58.699 20.373 58.5343 18.3966 58.6907 13.0769L58.806 9.17362L58.5178 8.91009C58.1637 8.58893 57.3567 8.34188 56.5826 8.32541C55.8744 8.30894 55.5697 8.53129 55.5697 9.11596V9.49477L55.0921 8.99244C54.8286 8.71245 54.4169 8.37482 54.178 8.24306C52.8934 7.50192 51.2135 7.69133 49.9783 8.70422C49.5254 9.06655 48.7266 10.1371 48.3642 10.8618C47.7878 11.9899 47.4255 13.6699 47.2196 16.058C47.1043 17.4167 47.0467 17.7625 46.7832 18.4131C46.1079 20.1671 44.8562 21.46 44.0986 21.1965C43.7774 21.0812 43.448 20.6036 43.2586 19.9695C42.9292 18.866 42.8798 17.499 43.0116 12.9616C43.0775 10.5653 43.1681 8.35835 43.1928 8.03719L43.2586 7.46075L45.375 7.41137L47.4831 7.36196L47.7055 7.04081C47.936 6.68671 48.0843 6.00321 47.9854 5.63264C47.9443 5.47618 47.8372 5.38559 47.6643 5.34442C47.3925 5.28678 44.3456 5.09737 43.6539 5.09737H43.2751L43.3163 2.95631L43.3575 0.823498L42.921 0.609383C42.4599 0.387043 40.9858 1.52588e-05 40.5823 1.52588e-05C40.4588 0.0247192 40.2447 0.107059 40.1294 0.197643ZM54.0875 10.5076C54.5816 10.7547 54.9933 11.3476 55.2403 12.1299C55.4133 12.6405 55.4627 13.0934 55.4874 14.4604C55.5862 17.6225 55.0345 19.846 53.8816 20.9989C52.597 22.2835 51.3123 21.5918 50.7441 19.3025C50.4147 17.9767 50.4724 14.7568 50.8594 13.1922C51.4194 10.9523 52.7534 9.84062 54.0875 10.5076ZM68.7208 10.45C69.1902 10.6394 69.6266 11.1994 69.8572 11.9241C70.0301 12.4593 70.0713 12.8875 70.1042 14.3204C70.1701 16.7991 69.9231 18.4213 69.2313 19.8954C68.8361 20.7188 68.4326 21.2047 67.8891 21.46C67.1891 21.8058 66.6868 21.6906 66.1268 21.0482C65.0151 19.7883 64.7928 15.498 65.6903 12.764C66.2997 10.9359 67.5597 9.96417 68.7208 10.45ZM94.5452 10.6723C94.7346 10.8288 95.0146 11.1911 95.1546 11.4629C95.5911 12.3193 95.6734 12.9617 95.6734 15.2262C95.6652 17.0214 95.6322 17.4002 95.4511 18.1414C95.1134 19.5001 94.7099 20.3648 94.1417 20.9412C92.4454 22.6788 90.9466 21.1553 90.7572 17.4991C90.609 14.7074 91.1442 12.1135 92.0748 11.0594C92.7665 10.2606 93.8206 10.0959 94.5452 10.6723ZM70.4913 27.1173C70.3677 31.5477 69.6431 33.3511 67.9302 33.4747C67.2303 33.5241 66.7444 33.3182 66.4315 32.8323C65.7645 31.8112 66.2256 30.1313 67.6914 28.1796C68.2596 27.422 70.3677 25.1327 70.4995 25.1327C70.5324 25.1245 70.516 26.0221 70.4913 27.1173Z" fill="black"/>
</svg>
