<svg width="136" height="31" viewBox="0 0 136 31" fill="none" xmlns="http://www.w3.org/2000/svg">
<g clip-path="url(#clip0_17812_8376)">
<path d="M0.469727 31.0009H30.908V0.000549316H0.469727V31.0009ZM29.6526 29.7223H1.72507V1.27908H29.6526V29.7223Z" fill="#E3000F"/>
<path d="M14.9565 4.87531H5.25391V14.7571H14.9565V4.87531Z" fill="#E3000F"/>
<path d="M16.4155 4.87531V14.7624L26.1234 4.87531H16.4155Z" fill="#E3000F"/>
<path d="M14.9565 16.243H5.25391V26.1247H14.9565V16.243Z" fill="#E3000F"/>
<path d="M16.4155 16.2376V26.1247H26.1234L16.4155 16.2376Z" fill="#E3000F"/>
<path d="M35.4982 27.0219C36.0639 27.0219 36.4281 26.7694 36.6219 26.2722L36.7381 26.0117L35.3433 22.5155H36.5056L37.3193 24.8989L38.1019 22.5155H39.1558L37.8539 26.1617C37.4665 27.3534 36.7458 27.8506 35.4982 27.8506V27.0219Z" fill="#E3000F"/>
<path d="M39.4502 24.3623C39.4502 23.1942 40.2871 22.4366 41.4184 22.4366C42.604 22.4366 43.379 23.2021 43.379 24.3228C43.379 25.4593 42.5576 26.2722 41.4107 26.2722C40.2096 26.2722 39.4502 25.4593 39.4502 24.3623ZM42.3406 24.3623C42.3406 23.7388 41.9686 23.3284 41.4184 23.3284C40.845 23.3284 40.4886 23.7467 40.4886 24.3702C40.4886 24.97 40.8605 25.3804 41.4184 25.3804C41.9841 25.3804 42.3406 24.9621 42.3406 24.3623Z" fill="#E3000F"/>
<path d="M47.7571 22.5155V26.1932H46.6955V25.7592C46.5489 25.9221 46.3704 26.0519 46.1716 26.1402C45.9727 26.2286 45.7578 26.2735 45.5409 26.2722C44.6497 26.2722 44.1538 25.6566 44.1538 24.7884V22.5155H45.2309V24.5753C45.2309 25.0489 45.4866 25.3409 45.9283 25.3409C46.308 25.3409 46.556 25.112 46.6955 24.9305V22.5155H47.7571Z" fill="#E3000F"/>
<path d="M51.1821 22.476L51.1046 23.5178C51.1046 23.5178 51.0194 23.4941 50.8489 23.4941C50.2987 23.4941 49.9422 23.8651 49.7408 24.1413V26.1932H48.6714V22.5155H49.7408V23.1627C49.9655 22.8312 50.3607 22.4366 50.8954 22.4366C51.0968 22.4366 51.1821 22.476 51.1821 22.476Z" fill="#E3000F"/>
<path d="M59.7368 23.8808V26.1932H58.6829V24.0939C58.6829 23.644 58.4582 23.3678 58.0397 23.3678C57.691 23.3678 57.4585 23.5493 57.3191 23.7151C57.3255 23.77 57.3281 23.8254 57.3268 23.8808V26.1932H56.2807V24.0939C56.2807 23.644 56.056 23.3678 55.6298 23.3678C55.2733 23.3678 55.0486 23.5809 54.9246 23.7545V26.1932H53.8862V22.5155H54.9246V22.9337C55.0609 22.7757 55.229 22.6494 55.4176 22.5636C55.6062 22.4778 55.8107 22.4345 56.0172 22.4365C56.5906 22.4365 56.9703 22.6891 57.1641 23.0995C57.2571 22.9653 57.6678 22.4365 58.4272 22.4365C59.2951 22.4365 59.7368 23.0363 59.7368 23.8808Z" fill="#E3000F"/>
<path d="M64.3476 22.5155V26.1932H63.286V25.8065C63.0923 26.0038 62.7281 26.2721 62.1702 26.2721C61.1628 26.2721 60.4731 25.4356 60.4731 24.3701C60.4731 23.2889 61.1706 22.4286 62.1702 22.4286C62.6893 22.4286 63.0691 22.6891 63.286 22.9022V22.5155H64.3476ZM63.286 25.0094V23.6993C63.1901 23.5888 63.0719 23.5006 62.9395 23.4406C62.8072 23.3807 62.6637 23.3505 62.5189 23.352C61.9609 23.352 61.5735 23.7624 61.5735 24.3543C61.5735 24.9383 61.9609 25.3566 62.5189 25.3566C62.6637 25.3582 62.8072 25.3279 62.9395 25.268C63.0719 25.2081 63.1901 25.1199 63.286 25.0094Z" fill="#E3000F"/>
<path d="M67.7729 22.476L67.6954 23.5178C67.6954 23.5178 67.6102 23.4941 67.4397 23.4941C66.8895 23.4941 66.533 23.8651 66.3316 24.1413V26.1932H65.2622V22.5155H66.3316V23.1627C66.5563 22.8312 66.9515 22.4366 67.4862 22.4366C67.6877 22.4366 67.7729 22.476 67.7729 22.476Z" fill="#E3000F"/>
<path d="M70.4462 24.3307L71.9572 26.1932H70.7096L69.524 24.6384V26.1932H68.4624V20.6687H69.524V24.1097L70.7484 22.5155H71.9572L70.4462 24.3307Z" fill="#E3000F"/>
<path d="M75.8006 24.678L73.1891 24.6701C73.2976 25.183 73.6618 25.4356 74.2353 25.4356C74.9792 25.4356 75.3279 25.0647 75.3279 25.0647L75.6843 25.7197C75.6843 25.7197 75.2194 26.2722 74.1655 26.2722C72.9179 26.2722 72.1353 25.5145 72.1353 24.3465C72.1353 23.2416 72.8559 22.4366 74.0183 22.4366C75.1341 22.4366 75.8006 23.2258 75.8006 24.3702V24.678ZM74.8242 23.9913C74.7932 23.5652 74.5065 23.21 74.0105 23.21C73.5843 23.21 73.2666 23.4862 73.1736 23.9913H74.8242Z" fill="#E3000F"/>
<path d="M79.1484 26.0433C79.1484 26.0433 78.8539 26.2721 78.1643 26.2721C77.2809 26.2721 76.7307 25.7828 76.7307 24.8042V23.3836H76.2192V22.5155H76.7307V21.1975H77.8233V22.5155H79.0477V23.3836H77.8233V24.6148C77.8233 25.0804 78.0325 25.2935 78.4045 25.2935C78.7687 25.2935 78.9779 25.1357 78.9779 25.1357L79.1484 26.0433Z" fill="#E3000F"/>
<path d="M83.6734 24.3386C83.6734 25.4277 82.9683 26.2722 81.9764 26.2722C81.5597 26.2755 81.1586 26.111 80.8605 25.8144V27.7717H79.8066V22.5155H80.8605V22.8943C81.1586 22.5978 81.5597 22.4332 81.9764 22.4366C82.9838 22.4366 83.6734 23.2652 83.6734 24.3386ZM82.5731 24.3544C82.5731 23.7625 82.1779 23.3521 81.6277 23.3521C81.4828 23.3505 81.3394 23.3808 81.207 23.4407C81.0746 23.5006 80.9565 23.5888 80.8605 23.6993V25.0094C80.9565 25.1199 81.0746 25.2081 81.207 25.268C81.3394 25.328 81.4828 25.3582 81.6277 25.3567C82.1779 25.3567 82.5731 24.9463 82.5731 24.3544Z" fill="#E3000F"/>
<path d="M84.4717 20.6687H85.5566V26.1932H84.4717V20.6687Z" fill="#E3000F"/>
<path d="M90.229 22.5155V26.1932H89.1674V25.8065C88.9737 26.0038 88.6095 26.2721 88.0515 26.2721C87.0442 26.2721 86.3545 25.4356 86.3545 24.3701C86.3545 23.2889 87.0519 22.4286 88.0515 22.4286C88.5707 22.4286 88.9504 22.6891 89.1674 22.9022V22.5155H90.229ZM89.1674 25.0094V23.6993C89.0715 23.5888 88.9533 23.5006 88.8209 23.4406C88.6886 23.3807 88.5451 23.3505 88.4002 23.352C87.8423 23.352 87.4549 23.7624 87.4549 24.3543C87.4549 24.9383 87.8423 25.3566 88.4002 25.3566C88.5451 25.3582 88.6886 25.3279 88.8209 25.268C88.9533 25.2081 89.0715 25.1199 89.1674 25.0094Z" fill="#E3000F"/>
<path d="M91.0273 24.3543C91.0273 23.2889 91.7403 22.4286 92.9026 22.4286C93.8558 22.4286 94.2432 22.8311 94.2432 22.8311L93.8867 23.6046C93.8867 23.6046 93.6388 23.3678 93.1118 23.3678C92.5307 23.3678 92.1665 23.7782 92.1665 24.3543C92.1665 24.9305 92.5307 25.3408 93.1118 25.3408C93.6388 25.3408 93.8867 25.1041 93.8867 25.1041L94.2432 25.8775C94.2432 25.8775 93.8558 26.28 92.9026 26.28C91.7403 26.28 91.0273 25.4198 91.0273 24.3543Z" fill="#E3000F"/>
<path d="M98.3191 24.678L95.7077 24.6701C95.8162 25.183 96.1804 25.4356 96.7538 25.4356C97.4977 25.4356 97.8464 25.0647 97.8464 25.0647L98.2029 25.7197C98.2029 25.7197 97.7379 26.2722 96.6841 26.2722C95.4365 26.2722 94.6538 25.5145 94.6538 24.3465C94.6538 23.2416 95.3745 22.4366 96.5368 22.4366C97.6527 22.4366 98.3191 23.2258 98.3191 24.3702V24.678ZM97.3427 23.9913C97.3117 23.5652 97.025 23.21 96.5291 23.21C96.1029 23.21 95.7852 23.4862 95.6922 23.9913H97.3427Z" fill="#E3000F"/>
<path d="M42.6785 17.7769L38.5524 12.0148V17.7769H35.7056V4.93146H38.5524V10.8403L42.6785 4.93146H45.9217L41.1469 11.207L45.9758 17.7765L42.6785 17.7769Z" fill="#E3000F"/>
<path d="M55.147 9.22543V17.7769H52.6782V16.8772C52.2277 17.336 51.3809 17.9598 50.0837 17.9598C47.7413 17.9598 46.1377 16.0147 46.1377 13.5374C46.1377 11.0234 47.7593 9.02307 50.0837 9.02307C51.2908 9.02307 52.1737 9.62856 52.6782 10.124V9.22432L55.147 9.22543ZM52.6782 15.0243V11.9779C52.3358 11.5926 51.7593 11.1705 50.8944 11.1705C49.5972 11.1705 48.6963 12.1247 48.6963 13.5011C48.6963 14.8585 49.5972 15.8315 50.8944 15.8315C51.7593 15.8318 52.3358 15.4097 52.6782 15.0243Z" fill="#E3000F"/>
<path d="M65.5968 9.22546V17.7769H63.1285V16.7677C62.6961 17.2447 61.8131 17.9603 60.4439 17.9603C58.3718 17.9603 57.2188 16.529 57.2188 14.5105V9.22546H59.7232V14.015C59.7232 15.116 60.3177 15.795 61.3448 15.795C62.2282 15.795 62.8042 15.2629 63.1285 14.8409V9.22546H65.5968Z" fill="#E3000F"/>
<path d="M71.0563 8.45486V9.22545H73.8843V11.2992H71.0563V17.7769H68.5156V11.2992H67.2905V9.22545H68.5156V8.21621C68.5156 5.95905 69.813 4.74792 71.867 4.74792C73.4526 4.74792 74.1373 5.28017 74.1373 5.28017L73.7408 7.20696C73.7408 7.20696 73.2543 6.83997 72.4255 6.83997C71.5427 6.83997 71.0563 7.37143 71.0563 8.45486ZM78.1372 4.9315V17.7769H75.6147V4.9315H78.1372Z" fill="#E3000F"/>
<path d="M89.0021 9.22543V17.7769H86.5335V16.8772C86.0831 17.336 85.2363 17.9598 83.939 17.9598C81.5967 17.9598 79.9932 16.0147 79.9932 13.5374C79.9932 11.0234 81.6147 9.02307 83.939 9.02307C85.1463 9.02307 86.0291 9.62856 86.5335 10.124V9.22432L89.0021 9.22543ZM86.5335 15.0243V11.9779C86.1912 11.5926 85.6146 11.1705 84.7498 11.1705C83.4525 11.1705 82.5516 12.1247 82.5516 13.5011C82.5516 14.8585 83.4525 15.8315 84.7498 15.8315C85.6146 15.8318 86.1912 15.4097 86.5335 15.0243Z" fill="#E3000F"/>
<path d="M99.4877 12.492V17.7769H97.0012V12.9873C97.0012 11.8857 96.3886 11.207 95.3797 11.207C94.4963 11.207 93.9202 11.7392 93.5958 12.1613V17.7765H91.1274V9.22541H93.5958V10.2163C94.0284 9.75765 94.8932 9.04199 96.2626 9.04199C98.3527 9.04199 99.4877 10.4733 99.4877 12.492Z" fill="#E3000F"/>
<path d="M110.281 4.93146V17.7769H107.812V16.8225C107.38 17.2814 106.497 17.9603 105.146 17.9603C102.839 17.9603 101.2 16.0518 101.2 13.5378C101.2 11.0239 102.803 9.042 105.146 9.042C106.497 9.042 107.38 9.72072 107.812 10.1797V4.93146H110.281ZM107.812 14.9508V12.0514C107.488 11.6478 106.893 11.1707 105.956 11.1707C104.659 11.1707 103.758 12.1248 103.758 13.5012C103.758 14.8776 104.659 15.8318 105.956 15.8318C106.893 15.8318 107.488 15.3546 107.812 14.9508Z" fill="#E3000F"/>
<path d="M112.118 16.621C112.118 15.8136 112.695 15.2448 113.488 15.2448C114.352 15.2448 114.857 15.7953 114.857 16.6022C114.857 17.3914 114.334 17.9596 113.506 17.9596C112.695 17.9603 112.118 17.4102 112.118 16.621Z" fill="#E3000F"/>
<path d="M125.092 4.93146V17.7769H122.623V16.8225C122.191 17.2814 121.308 17.9603 119.957 17.9603C117.65 17.9603 116.011 16.0518 116.011 13.5378C116.011 11.0239 117.614 9.042 119.957 9.042C121.308 9.042 122.191 9.72072 122.623 10.1797V4.93146H125.092ZM122.623 14.9508V12.0514C122.299 11.6478 121.704 11.1707 120.767 11.1707C119.47 11.1707 118.569 12.1248 118.569 13.5012C118.569 14.8776 119.47 15.8318 120.767 15.8318C121.704 15.8318 122.299 15.3546 122.623 14.9508Z" fill="#E3000F"/>
<path d="M135.47 14.2533L129.399 14.2352C129.651 15.428 130.498 16.0152 131.832 16.0152C133.562 16.0152 134.373 15.1527 134.373 15.1527L135.201 16.6757C135.201 16.6757 134.12 17.9603 131.67 17.9603C128.769 17.9603 126.949 16.1987 126.949 13.4827C126.949 10.9137 128.625 9.04199 131.328 9.04199C133.922 9.04199 135.471 10.8771 135.471 13.5378L135.47 14.2533ZM133.2 12.6571C133.128 11.6661 132.461 10.8403 131.308 10.8403C130.316 10.8403 129.578 11.4826 129.362 12.6571H133.2Z" fill="#E3000F"/>
</g>
<defs>
<clipPath id="clip0_17812_8376">
<rect width="135" height="31" fill="white" transform="translate(0.469727)"/>
</clipPath>
</defs>
</svg>
