<svg width="69" height="41" viewBox="0 0 69 41" fill="none" xmlns="http://www.w3.org/2000/svg">
<g clip-path="url(#clip0_17812_8500)">
<path d="M7.56641 40.9725H61.1673L34.509 14.236L7.56641 40.9725Z" fill="#7BB51C"/>
<path d="M6.5422 39.6577L10.7182 35.5718L9.32723 34.141L6.70432 36.7084L2.08375 31.957L0.530273 33.4771L6.5422 39.6577Z" fill="black"/>
<path d="M11.6349 34.6413L15.9139 30.4534L14.7388 29.2461L12.0218 31.9043L10.7172 30.5628L12.8943 28.4323L11.6647 27.1692L9.48754 29.2985L8.36973 28.1494L10.9973 25.5778L9.823 24.3709L5.55762 28.5449L11.6349 34.6413Z" fill="black"/>
<path d="M25.6399 14.7878C23.9142 13.0136 20.9206 13.2259 19.479 14.6368C18.0369 16.0478 17.301 18.8613 19.3373 20.9548C21.5741 23.2541 24.2353 22.419 25.6774 21.0088C27.8035 18.9284 27.0467 16.2341 25.6399 14.7878ZM24.3715 19.7938C23.417 20.7278 22.2501 20.4744 20.9167 19.1034C19.7962 17.9516 19.8636 16.7944 20.6784 15.997C21.2387 15.4487 22.3766 14.9582 23.7304 16.3501C25.275 17.9381 25.3261 18.8597 24.3715 19.7938Z" fill="black"/>
<path d="M30.4528 16.2612L32.0314 14.716L29.6565 12.2747L28.235 6.34283L26.4254 8.11394L27.3667 11.4792L24.1863 10.3045L22.48 11.974L27.9022 13.7202L30.4528 16.2612Z" fill="black"/>
<path d="M22.036 24.5067C22.036 24.5067 18.1939 23.192 18.0113 23.2238C17.9521 23.2335 18.8366 20.8729 16.8494 19.8267C16.8494 19.8267 15.3749 19.0262 13.8992 20.3708L10.7539 23.4795L16.8173 29.6039L18.4215 28.0342L15.1404 24.6619L20.4443 26.0644L22.036 24.5067ZM16.0852 23.6658C15.1938 24.5366 15.0735 24.6053 15.0735 24.6053C15.0735 24.6053 13.6759 23.1687 13.6264 23.1179C13.5769 23.067 14.6258 22.1652 14.791 22.0033C14.861 21.9347 15.5142 21.5074 16.0547 22.0627C16.0547 22.0627 16.9763 22.7934 16.0852 23.6658Z" fill="black"/>
<path d="M29.963 7.51166L28.5601 6.09292L34.685 0L36.6896 2.02683L34.483 6.38241L38.9817 4.34471L40.9105 6.29548L34.7856 12.3884L33.3072 10.8936L36.5402 7.67775L32.1174 9.69022L31.2031 8.76548L33.2588 4.33384L29.963 7.51166Z" fill="black"/>
<path d="M40.5979 18.2656L36.3511 13.9717L42.4764 7.87878L46.7352 12.1855L45.4978 13.4164L42.8296 10.7186L41.8318 11.7109L43.9362 13.839L42.6478 15.1204L40.5561 13.005L39.2174 14.3365L41.8604 17.009L40.5979 18.2656Z" fill="black"/>
<path d="M54.6019 20.1399L56.1801 21.7364L51.5452 26.3465L54.1379 28.9675L52.6475 30.451L48.4766 26.2332L54.6019 20.1399Z" fill="black"/>
<path d="M53.7495 31.5659L59.8748 25.473L61.4155 27.0306L55.2902 33.1232L53.7495 31.5659Z" fill="black"/>
<path d="M58.0835 35.949L56.6426 34.4919L62.7683 28.3994L64.8603 30.5135L63.0728 36.8396L67.1273 32.8062L68.5302 34.2249L62.4053 40.3174L60.576 38.4687L62.1511 31.8275L58.0835 35.949Z" fill="black"/>
<path d="M51.8339 17.3408L48.1136 13.5786L41.9756 19.6591L43.5538 21.2548L46.9003 17.926L45.6958 23.4209L47.3116 25.055C47.3116 25.055 48.5853 21.1244 48.6244 20.9606C48.6244 20.9606 50.0045 21.7231 51.5189 20.4173C51.5189 20.4173 52.9714 18.9978 51.8339 17.3408ZM49.5623 19.1228C49.5623 19.1228 48.7803 19.6493 48.0912 18.9528L47.0148 17.8127C47.0148 17.8127 48.3152 16.5189 48.4793 16.3555C48.4793 16.3555 49.4814 17.3691 49.6068 17.4956C49.7317 17.6221 50.5218 18.2182 49.5623 19.1228Z" fill="black"/>
</g>
<defs>
<clipPath id="clip0_17812_8500">
<rect width="68" height="41" fill="white" transform="translate(0.530273)"/>
</clipPath>
</defs>
</svg>
