<svg width="196" height="26" viewBox="0 0 196 26" fill="none" xmlns="http://www.w3.org/2000/svg">
<path d="M157.836 17.4492C157.211 19.5348 155.334 21.4813 153.387 21.9679C151.927 22.1765 150.884 22.0374 150.12 21.5508C149.355 20.9947 148.868 20.0909 148.66 19.1872C148.59 18.9091 148.59 18.5615 148.59 18.2834C148.59 16.4064 149.564 14.5989 151.441 13.139C152.483 12.3743 153.943 12.0963 155.195 12.3743C155.89 12.5134 156.863 13 157.489 14.1123C157.836 14.738 157.975 15.5027 157.975 16.1979C157.975 16.6845 157.975 17.1016 157.836 17.4492ZM84.6331 17.4492C84.0769 19.5348 82.2694 21.4813 80.3924 21.8984C79.0021 22.1765 77.7507 22.0374 76.986 21.5508C76.2213 20.9947 75.8042 20.0909 75.5261 19.1872C75.4566 18.7701 75.4566 18.5615 75.4566 18.2834C75.4566 16.4064 76.4299 14.5989 78.3069 13.139C79.3496 12.3743 80.8095 12.0963 82.0609 12.3743C82.7561 12.5134 83.7293 13 84.355 14.1123C84.7026 14.738 84.8416 15.5027 84.8416 16.1979C84.8416 16.6845 84.7721 17.1016 84.6331 17.4492ZM162.564 9.10695C162.564 8.96791 162.494 8.8984 162.425 8.75936C162.355 8.62032 162.216 8.62032 162.007 8.62032H159.435C159.227 8.62032 159.018 8.75936 158.949 9.03743L158.74 10.0107C158.184 9.45454 157.558 9.17647 156.724 8.82888L156.446 8.68984H156.376C153.526 8.06417 150.676 8.8984 148.382 11.123C147.2 12.2353 146.366 13.4866 145.74 14.8075L148.312 0.695187C148.312 0.55615 148.312 0.417112 148.243 0.347594C148.173 0.278075 148.034 0.208556 147.965 0.208556H144.489C144.35 0.208556 144.28 0.278075 144.211 0.347594C144.211 0.347594 133.783 14.3209 132.114 16.1979C132.74 13.9037 134.895 0.695187 134.895 0.695187V0.625668C134.895 0.55615 134.895 0.417112 134.826 0.347594C134.756 0.278075 134.617 0.208556 134.548 0.208556H130.863C130.724 0.208556 130.654 0.278075 130.585 0.347594L113.066 20.9251C112.788 17.9358 111.398 14.6684 111.398 14.6684C109.104 9.87166 104.029 8.27273 101.039 10.8449C100.9 10.9144 100.692 10.984 100.553 11.0535C102.847 7.85561 108.061 8.13369 111.467 12.0963C111.467 12.0963 112.997 13.9733 114.109 16.8235C114.387 15.8503 114.596 14.8075 114.665 13.7647C112.858 11.262 110.772 9.80214 110.772 9.80214C106.462 6.88235 101.387 7.92513 99.9967 11.5401C99.8577 11.7487 99.7186 11.9572 99.6491 12.1658C100.066 8.27273 104.724 5.83957 109.59 7.50802C109.59 7.50802 111.954 8.41176 114.387 10.3583C114.387 10.2193 114.318 10.0802 114.248 9.87166C113.97 8.82888 113.622 7.85561 113.136 6.95187C110.355 5.70053 107.852 5.49198 107.852 5.49198C102.569 5.14438 98.6063 8.82888 99.4406 12.861V13.4171C97.6331 9.80214 100.483 5.14438 105.697 4.17112C105.697 4.17112 108.13 3.75401 111.12 4.17112C110.355 3.3369 109.521 2.64171 108.548 2.01604C105.558 2.36364 103.334 3.40642 103.334 3.40642C98.5368 5.77005 97.0074 11.0535 99.6491 14.0428C99.7186 14.2513 99.8577 14.3904 99.9967 14.5294C96.6598 12.3048 96.8684 6.81283 100.831 3.26738C100.831 3.26738 102.708 1.66845 105.489 0.55615C104.307 0.208556 103.125 0 101.943 0C99.5796 1.80749 98.2587 3.75401 98.2587 3.75401C95.2694 8.27273 96.5208 13.6257 100.414 14.877H100.483C100.622 14.9465 100.692 15.016 100.831 15.0856C96.8684 14.877 94.2962 10.0107 96.0341 4.93583C96.0341 4.93583 96.8684 2.71123 98.6063 0.417112C97.5635 0.695187 96.6598 1.04278 95.7561 1.59893C94.6438 4.37968 94.3657 6.74332 94.3657 6.74332C94.0181 12.0963 97.6331 16.0588 101.526 15.2941H101.735C101.874 15.2941 102.013 15.2941 102.152 15.2246C98.6063 17.0321 94.0876 14.1123 93.0448 8.82888C93.0448 8.82888 92.6277 6.46524 93.0448 3.47594C92.2106 4.31016 91.4459 5.2139 90.8202 6.3262C91.1678 9.24599 92.2106 11.4011 92.2106 11.4011C94.5742 16.2674 99.7881 17.8663 102.777 15.0856L102.847 15.016C102.986 14.9465 103.125 14.877 103.195 14.738C101.039 18.1444 95.617 18.0053 92.1411 13.9037C92.1411 13.9037 90.4031 11.6096 89.4994 8.96791C89.4994 8.8984 89.4299 8.68984 89.2908 8.62032C89.1518 8.48128 89.0127 8.48128 88.8737 8.48128H86.232C86.0234 8.48128 85.8149 8.62032 85.6758 8.8984C85.6758 8.8984 85.5368 9.17647 85.4673 9.80214C84.9111 9.24599 84.216 8.96791 83.5903 8.68984L83.2427 8.5508C80.3924 7.85561 77.5422 8.75936 75.248 10.984C73.8577 12.2353 72.8844 13.7647 72.3283 15.4332C72.3283 15.4332 72.3283 15.5027 72.2587 15.5722L73.4406 9.10695C73.4406 8.96791 73.4406 8.82888 73.3015 8.68984C73.232 8.5508 73.093 8.48128 72.8844 8.48128H69.9646C69.6865 8.48128 69.478 8.68984 69.478 8.8984L66.6277 24.8182C66.6277 24.9572 66.6277 25.0963 66.7668 25.2353C66.8363 25.3743 66.9753 25.3743 67.1839 25.3743H70.1037C70.3817 25.3743 70.5903 25.3048 70.5903 25.0267L71.7721 18.5615C71.7721 18.631 71.8416 19.9519 71.9807 20.5775C72.3978 23.0107 74.5529 25.3048 76.847 25.7219C78.863 26.0695 80.9486 25.5829 83.1037 24.262C83.0341 24.4706 82.9646 24.8182 82.9646 24.8182V24.8877C82.9646 25.0267 82.9646 25.0963 83.0341 25.1658C83.1037 25.3048 83.3122 25.3048 83.4513 25.3048H86.0234C86.3015 25.3048 86.5101 25.2353 86.5101 24.9572L88.8042 12.4438C90.5422 14.5294 92.7668 16.2674 92.7668 16.2674C97.0769 19.1872 102.152 18.0749 103.542 14.4599C103.681 14.3209 103.82 14.1123 103.89 13.9037C103.473 17.7968 98.8149 20.2299 93.9486 18.492C93.9486 18.492 91.7935 17.6578 89.4994 15.8503C89.4994 15.9198 89.5689 16.0588 89.5689 16.1283C89.847 17.1711 90.2641 18.2139 90.7507 19.1872C93.3924 20.2995 95.7561 20.508 95.7561 20.508C101.039 20.8556 104.933 17.1711 104.168 13.2781V12.7219C105.836 16.3369 102.986 20.8556 97.8416 21.8984C97.8416 21.8984 95.5475 22.3155 92.6972 21.8984C93.3924 22.6631 94.1571 23.2888 94.9914 23.8449C97.9807 23.4973 100.205 22.4545 100.205 22.4545C104.863 20.1604 106.462 15.0856 104.029 12.0267C103.959 11.8182 103.82 11.6096 103.681 11.4011C106.879 13.6952 106.671 19.0481 102.708 22.5241C102.708 22.5241 100.761 24.123 97.9111 25.3048C99.0234 25.6524 100.205 25.9305 101.387 26C103.82 24.123 105.28 22.0374 105.28 22.0374C108.269 17.5187 107.018 12.1658 103.195 10.9144C103.056 10.7754 102.916 10.7059 102.708 10.6364C106.74 10.8449 109.243 15.7112 107.505 20.7861C107.505 20.7861 106.671 23.2193 104.724 25.6524C104.863 25.6524 105.002 25.5829 105.211 25.5134C106.184 25.2353 107.088 24.8877 107.991 24.4706C109.173 21.6203 109.382 19.1176 109.382 19.1176C109.729 13.8342 106.253 9.94118 102.43 10.4973C102.291 10.4973 102.082 10.4278 101.943 10.4278H101.804C105.35 8.8984 109.729 11.7487 110.703 16.893C110.703 16.893 111.328 19.3262 110.842 22.246C110.772 22.6631 110.564 23.2888 110.216 23.9144C110.146 24.123 110.007 24.3316 109.868 24.5401C109.799 24.6791 109.799 24.8182 109.868 24.8877C109.938 25.0267 110.077 25.0963 110.216 25.0963H114.318C114.457 25.0963 114.526 25.0267 114.596 24.9572C114.596 24.9572 128.152 10.1497 129.681 8.27273C129.056 11.4011 127.874 18.9786 126.761 24.6096V24.6791C126.761 24.7487 126.761 24.8182 126.831 24.8877C126.9 24.9572 127.039 25.0267 127.109 25.0267H130.307C130.446 25.0267 130.515 24.9572 130.585 24.8877C130.585 24.8877 141.499 10.1497 143.098 8.20321C142.403 11.3316 141.291 18.9786 140.179 24.5401V24.6096C140.179 24.6791 140.179 24.7487 140.248 24.8182C140.318 24.8877 140.457 24.9572 140.526 24.9572H143.724C143.863 24.9572 144.072 24.8182 144.072 24.6791L145.253 17.7968V18.2139C145.253 18.8396 145.045 19.5348 145.114 20.1604C145.531 22.5936 147.687 24.8877 149.981 25.3048C151.997 25.6524 154.082 25.1658 156.237 23.8449C156.168 24.0535 156.098 24.4011 156.098 24.4011V24.4706C156.098 24.6096 156.168 24.6791 156.237 24.8182C156.307 24.9572 156.446 24.9572 156.654 24.9572H159.227C159.505 24.9572 159.713 24.8877 159.713 24.6096L162.077 12.0267L162.564 9.10695ZM180.986 24.0535C179.804 22.1765 176.537 16.6845 176.259 16.1979C176.676 15.7112 180.777 10.6364 181.612 9.6631L181.264 11.6096C181.264 11.7487 181.264 11.8877 181.403 12.0267C181.473 12.1658 181.612 12.2353 181.82 12.2353H183.211C183.002 13.0695 181.403 21.3422 180.986 24.0535ZM190.997 8.75936C190.927 8.62032 190.788 8.5508 190.58 8.5508H187.66C187.799 7.64706 188.494 4.17112 188.494 4.17112V4.1016C188.494 3.96257 188.425 3.89305 188.355 3.75401C188.285 3.61497 188.146 3.54545 187.938 3.54545H185.018C184.74 3.54545 184.531 3.75401 184.531 3.96257C184.531 3.96257 183.836 7.85561 183.697 8.5508H182.098C181.89 8.5508 181.751 8.62032 181.681 8.75936C181.612 8.62032 181.473 8.5508 181.264 8.5508H177.927C177.788 8.5508 177.649 8.62032 177.58 8.68984C177.58 8.68984 175.216 11.6791 173.826 13.2086C174.243 10.7754 175.494 4.1016 175.494 4.1016V4.03209C175.494 3.89305 175.425 3.82353 175.355 3.68449C175.285 3.54545 175.146 3.47594 175.007 3.47594H172.157C171.879 3.47594 171.671 3.68449 171.671 3.89305C171.601 4.31016 171.184 6.18717 170.836 8.48128C170.767 8.34225 170.558 8.27273 170.419 8.27273C169.237 8.34225 167.916 8.82888 166.943 9.45454L167.013 9.10695C167.013 8.96791 167.013 8.82888 166.874 8.68984C166.804 8.5508 166.665 8.5508 166.457 8.5508H163.815C163.606 8.5508 163.398 8.68984 163.328 8.96791L163.259 9.38503L160.478 24.8877C160.478 25.0267 160.478 25.1658 160.617 25.3048C160.687 25.4439 160.895 25.4439 161.034 25.4439H163.537C163.745 25.4439 163.954 25.3048 164.023 25.0267L165.97 15.4332C166.596 13 168.195 12.3048 169.585 12.0963C169.654 12.0963 169.933 12.0963 170.002 12.0267C169.029 17.8663 167.916 24.7487 167.847 24.8877C167.847 25.0267 167.847 25.1658 167.986 25.3048C168.056 25.4439 168.195 25.5134 168.403 25.5134H171.184C171.392 25.5134 171.601 25.3743 171.671 25.1658C171.74 24.8877 172.505 20.9251 172.922 18.5615C173.965 20.1604 177.023 25.3048 177.023 25.3048C177.093 25.4439 177.302 25.5134 177.441 25.5134H180.569C180.638 25.5134 180.708 25.4439 180.708 25.4439C180.777 25.5134 180.847 25.5134 180.916 25.5134H184.184C184.392 25.5134 184.601 25.3743 184.671 25.0963C184.671 25.0963 186.895 13.0695 187.034 12.2353H190.162C190.441 12.2353 190.649 12.0267 190.649 11.8182L191.066 9.24599V9.17647C191.136 8.96791 191.136 8.82888 190.997 8.75936ZM64.125 16.3369C64.125 16.8235 64.0555 17.1016 63.986 17.4492C63.4299 19.5348 61.5529 21.4813 59.6758 21.9679C58.216 22.246 57.1037 22.0374 56.339 21.5508C55.5742 20.9947 55.0181 20.0909 54.8791 19.1872C54.8095 18.8396 54.8095 18.5615 54.8095 18.2834C54.8095 16.4064 55.8523 14.5294 57.7293 13.139C58.7721 12.3743 60.232 12.0963 61.4833 12.3743C62.1785 12.5134 63.0823 13 63.7079 14.1123C63.986 14.738 64.125 15.5027 64.125 16.3369ZM40.0021 15.016C40.7668 13.4866 42.4352 12.5829 43.8951 12.3743C45.4245 12.2353 46.1197 12.6524 46.8149 13.2086C47.4406 13.8342 47.7186 14.3904 47.7881 15.016C46.8844 15.0856 41.1839 15.016 40.0021 15.016ZM69.617 3.82353C69.5475 3.68449 69.4085 3.61497 69.1999 3.61497H66.6277C66.4192 3.61497 66.2106 3.75401 66.1411 4.03209C66.1411 4.03209 65.2374 8.48128 64.9593 9.94118C64.4031 9.38503 63.7079 9.10695 63.0823 8.82888L62.8042 8.68984H62.7347C59.8844 8.06417 57.0341 8.8984 54.74 11.123C53.3496 12.3743 52.3764 13.9037 51.8202 15.5722C51.7507 14.1818 51.4031 12.861 50.9165 11.8182V11.7487C49.5261 9.45455 47.3015 8.34225 44.3122 8.48128H44.2427C40.9753 8.8984 37.7079 11.123 36.109 14.2513C36.109 14.3209 36.0395 14.3209 36.0395 14.3904L38.4031 0.625668C38.4031 0.486631 38.4031 0.347594 38.3336 0.278075C38.2641 0.208556 38.1251 0.139037 38.0555 0.139037H34.6491C34.5101 0.139037 34.4406 0.208556 34.371 0.278075C34.371 0.278075 23.8042 14.1818 22.2053 16.0588C22.6919 13.7647 24.9165 0.625668 24.9165 0.625668V0.55615C24.9165 0.486631 24.9165 0.347594 24.847 0.278075C24.7775 0.208556 24.6384 0.139037 24.5689 0.139037H21.3015C21.1625 0.139037 21.093 0.208556 21.0234 0.278075L0.0983143 24.7487C0.0287956 24.8877 -0.0407231 25.0267 0.0287956 25.1658C0.0983143 25.3048 0.237352 25.4439 0.376389 25.4439H4.54751C4.68655 25.4439 4.75607 25.3743 4.82559 25.3048C4.82559 25.3048 18.1037 10.0802 19.6331 8.13369C19.0769 11.262 17.8256 19.3262 16.6438 24.9572V25.0267C16.6438 25.0963 16.6438 25.1658 16.7133 25.2353C16.7828 25.3048 16.9218 25.3743 16.9914 25.3743H20.1892C20.3283 25.3743 20.3978 25.3048 20.4673 25.2353C20.4673 25.2353 31.5208 10.0107 33.1197 8.06417C32.4245 11.1925 31.3817 19.3262 30.0609 24.8877V24.9572C30.0609 25.0267 30.0609 25.0963 30.1304 25.1658C30.1999 25.2353 30.339 25.3048 30.4085 25.3048H33.5368C33.6759 25.3048 33.8844 25.1658 33.8844 25.0267L35.0662 18.5615C35.0662 19.9519 35.3443 21.3422 35.9005 22.385C37.0823 24.4706 39.1678 25.6524 41.601 25.7914C45.1464 25.7914 48.5529 23.6364 50.0823 20.369C50.1518 20.2299 50.1518 20.0214 50.0823 19.8824C50.0128 19.7433 49.8042 19.6738 49.6652 19.6738H47.0234C46.8844 19.6738 46.7454 19.7433 46.6759 19.8128C45.4245 21.2727 43.9646 22.0374 42.4352 22.0374C40.9058 22.107 39.5154 21.2032 38.9593 19.7433C38.9593 19.6738 38.8898 19.5348 38.8898 19.5348C38.8202 19.2567 38.7507 19.0481 38.7507 18.8396V18.7005H50.7775C50.9165 18.7005 51.0555 18.631 51.1251 18.5615C51.1251 19.1872 51.1946 19.8824 51.2641 20.508C51.6812 22.9412 53.8363 25.2353 56.1304 25.6524C58.1464 26 60.232 25.5134 62.3871 24.1925C62.3176 24.4011 62.248 24.7487 62.248 24.7487V24.8182C62.248 24.9572 62.3176 25.0267 62.3871 25.1658C62.4566 25.3048 62.5956 25.3048 62.8042 25.3048H65.3764C65.5849 25.3048 65.7935 25.2353 65.863 24.9572L69.6865 4.1016C69.6865 4.03209 69.6865 3.89305 69.617 3.82353Z" fill="#DF0000"/>
<path d="M70.3817 8.13369H73.232C73.4406 8.13369 73.6491 7.85561 73.7186 7.64706L74.3443 4.24064C74.3443 4.1016 74.3443 3.96257 74.2053 3.82353C74.1358 3.68449 73.9967 3.61497 73.7882 3.61497H70.8684C70.6598 3.61497 70.4513 3.82353 70.3817 4.03209L69.7561 7.4385C69.7561 7.57754 69.7561 7.7861 69.8951 7.92513C70.1037 8.06417 70.2427 8.13369 70.3817 8.13369ZM191.761 3.68449H192.526C192.804 3.68449 193.152 3.61497 193.152 3.19786C193.152 2.9893 193.013 2.78075 192.596 2.78075H191.761V3.68449ZM191.761 5.63102H191.066V2.2246H192.665C192.874 2.2246 193.916 2.2246 193.916 3.26738C193.916 3.89305 193.43 4.1016 193.291 4.17112L193.916 5.63102H193.152L192.596 4.24064H191.761V5.63102ZM192.387 6.53476C193.777 6.53476 194.959 5.35294 194.959 3.89305C194.959 2.43316 193.847 1.25134 192.387 1.25134C190.997 1.25134 189.815 2.43316 189.815 3.89305C189.815 5.35294 190.927 6.53476 192.387 6.53476ZM192.387 0.695187C194.125 0.695187 195.515 2.08556 195.515 3.89305C195.515 5.63102 194.125 7.09091 192.387 7.09091C190.649 7.09091 189.259 5.63102 189.259 3.89305C189.259 2.15508 190.649 0.695187 192.387 0.695187Z" fill="#DF0000"/>
</svg>
