<svg width="152" height="37" viewBox="0 0 152 37" fill="none" xmlns="http://www.w3.org/2000/svg">
<path d="M60.0344 13.4448H64.8198V28.1803H60.0344V13.4448Z" fill="#E60023"/>
<path d="M65.7495 13.4586H70.3174V15.5022H70.4261C71.5137 13.8888 72.9275 13.0284 74.9939 13.0284C78.2567 13.0284 80.2143 15.2871 80.2143 18.6214V28.1941H75.429V19.5894C75.429 18.0836 74.6677 17.008 73.1451 17.008C71.6225 17.008 70.5349 18.2987 70.5349 20.1272V28.3016H65.7495V13.4586Z" fill="#E60023"/>
<path d="M65.2912 9.52917C65.2912 8.02336 63.9861 6.73266 62.4635 6.73266C60.9408 6.73266 59.6357 8.02336 59.6357 9.52917C59.6357 11.035 60.9408 12.3257 62.4635 12.3257C63.9861 12.3257 65.2912 11.035 65.2912 9.52917Z" fill="#E60023"/>
<path d="M113.463 13.2803C113.354 13.2803 113.137 13.2803 113.028 13.2803C111.179 13.2803 109.983 14.0332 109.004 15.8616H108.895V13.6029H104.327V28.2308H109.113V21.6698C109.113 18.6582 110.853 17.1523 113.572 17.475V13.2803H113.463Z" fill="#E60023"/>
<path d="M136.697 18.9057C134.848 18.583 133.108 18.3679 133.108 17.3999C133.108 16.4319 133.978 16.0016 135.175 16.0016C136.48 16.0016 137.35 16.4319 137.567 17.7226H141.918C141.7 14.8185 139.416 12.99 135.175 12.99C131.694 12.99 128.758 14.6034 128.758 17.7226C128.758 21.1644 131.477 21.8098 134.087 22.24C136.045 22.5627 137.894 22.7778 137.894 24.0685C137.894 25.0365 137.024 25.5743 135.61 25.5743C134.196 25.5743 133.217 24.929 133 23.7458H128.541C128.867 26.7574 131.586 28.5859 135.719 28.5859C139.634 28.5859 142.462 26.9726 142.462 23.7458C142.462 19.9813 139.308 19.3359 136.697 18.9057Z" fill="#E60023"/>
<path d="M120.884 16.3847C122.406 16.3847 123.494 17.4603 123.711 19.2888H117.838C118.056 17.4603 119.035 16.3847 120.884 16.3847ZM121.101 25.2045C119.143 25.2045 118.056 24.0214 117.73 21.9778H128.388C128.388 18.9661 127.518 16.3847 125.778 14.7714C124.473 13.5882 122.841 12.9429 120.666 12.9429C116.098 12.9429 113.053 16.2772 113.053 20.6871C113.053 25.097 116.098 28.5388 120.992 28.5388C122.841 28.5388 124.364 28.001 125.669 27.1406C126.974 26.2801 127.844 24.9894 128.17 23.6987H123.603C123.167 24.6667 122.297 25.2045 121.101 25.2045Z" fill="#E60023"/>
<path d="M150.792 24.7092C150.575 24.7092 150.249 24.7092 150.031 24.7092C149.052 24.7092 148.4 24.3866 148.4 23.311V16.4273H150.792V13.5232H148.4V8.8982H143.832V13.5232H142.418V16.4273H143.832V24.279C143.832 27.3982 145.789 28.3662 148.617 28.3662C149.705 28.3662 150.466 28.2587 150.901 28.1511V24.7092H150.792Z" fill="#E60023"/>
<path d="M88.6141 24.7587C88.3966 24.7587 88.179 24.7587 87.9615 24.7587C86.9827 24.7587 86.3302 24.436 86.3302 23.3604V16.4767H88.6141V13.5726H86.3302V8.94764H81.7623V13.5726H80.2397V16.4767H81.7623V24.3284C81.7623 27.4476 83.72 28.4156 86.5477 28.4156C87.5265 28.4156 88.1791 28.3081 88.7228 28.3081V24.7587H88.6141Z" fill="#E60023"/>
<path d="M98.9243 19.2068C98.7068 17.4858 97.6192 16.3027 96.0966 16.3027C94.2477 16.3027 93.3776 17.3783 93.0513 19.2068H98.9243ZM88.3748 20.8201C88.3748 16.4103 91.5287 13.0759 95.9878 13.0759C98.163 13.0759 99.7944 13.7213 101.099 14.9044C102.84 16.5178 103.71 19.0992 103.71 22.1108H93.0513C93.3776 24.0469 94.4652 25.3376 96.4229 25.3376C97.6192 25.3376 98.4893 24.7998 98.9243 23.8318H103.492C103.166 25.1225 102.296 26.4132 100.991 27.2736C99.7944 28.1341 98.2717 28.6719 96.3141 28.6719C91.42 28.5643 88.3748 25.23 88.3748 20.8201Z" fill="#E60023"/>
<path d="M51.8586 17.2927C53.7075 17.2927 54.7951 16.2172 54.7951 14.6038C54.7951 12.9904 53.7075 11.9148 51.8586 11.9148H48.2696V17.2927H51.8586ZM43.3755 7.6125H51.6411C54.1425 7.6125 55.9914 8.25786 57.2965 9.54855C58.6016 10.7317 59.3629 12.5602 59.3629 14.6038C59.3629 18.5834 56.644 21.3799 52.2936 21.3799H48.1608V28.2637H43.3755C43.3755 28.1561 43.3755 7.6125 43.3755 7.6125Z" fill="#E60023"/>
<path d="M36.9065 18.5001C36.9065 28.2879 28.8584 36.1396 19.0702 36.1396C9.28196 36.1396 1.23389 28.1803 1.23389 18.5001C1.23389 8.71232 9.28196 0.860584 19.0702 0.860584C28.8584 0.860584 36.9065 8.71232 36.9065 18.5001Z" fill="white"/>
<path d="M18.9698 0.868988C9.07287 0.868988 1.13354 8.82829 1.13354 18.5085C1.13354 26.0376 5.81013 32.3835 12.4444 34.9649C12.3356 33.5667 12.1181 31.4155 12.5531 29.9097C12.8794 28.5114 14.6195 21.0899 14.6195 21.0899C14.6195 21.0899 14.0757 20.0143 14.0757 18.5085C14.0757 16.0347 15.4896 14.2062 17.3385 14.2062C18.8611 14.2062 19.6224 15.3893 19.6224 16.68C19.6224 18.1858 18.6436 20.4446 18.0998 22.5957C17.6647 24.3167 18.9698 25.8225 20.71 25.8225C23.8639 25.8225 26.3654 22.4882 26.3654 17.7556C26.3654 13.5608 23.3202 10.5492 18.8611 10.5492C13.7495 10.5492 10.813 14.3138 10.813 18.1858C10.813 19.6917 11.3568 21.305 12.1181 22.2731C12.2268 22.4882 12.3356 22.5957 12.2268 22.8108C12.1181 23.3486 11.7918 24.5318 11.6831 24.8545C11.5743 25.1771 11.4655 25.2847 11.1393 25.0696C8.85535 23.994 7.55026 20.7672 7.55026 18.1858C7.55026 12.5928 11.6831 7.53759 19.4049 7.53759C25.6041 7.53759 30.3894 11.9475 30.3894 17.7556C30.3894 23.8864 26.4741 28.7265 21.145 28.7265C19.2961 28.7265 17.6647 27.7585 17.0122 26.6829C17.0122 26.6829 16.1421 30.0172 15.9246 30.8777C15.4896 32.3835 14.402 34.3196 13.7495 35.5027C15.3808 36.0405 17.2297 36.2556 19.0786 36.2556C28.9756 36.2556 36.9149 28.2963 36.9149 18.6161C36.9149 8.72073 28.8668 0.868988 18.9698 0.868988Z" fill="#E60023"/>
</svg>
