<svg width="128" height="22" viewBox="0 0 128 22" fill="none" xmlns="http://www.w3.org/2000/svg">
<path d="M46.4283 13.0766C46.4154 12.9974 46.4091 12.8715 46.4091 12.6993C46.4091 11.6136 46.7566 10.7663 47.4518 10.1571C48.1469 9.54803 48.9153 9.24341 49.7568 9.24341C50.8662 9.24341 51.6376 9.68044 52.0712 10.5545L46.4283 13.0766ZM54.5005 11.5275C54.4876 10.2432 54.0225 9.20064 53.1044 8.39949C52.1861 7.59851 51.0317 7.19794 49.6419 7.19794C48.7621 7.19794 47.9268 7.3999 47.1363 7.80364C46.3454 8.20775 45.6827 8.83651 45.1469 9.69067C44.6114 10.5446 44.3433 11.5346 44.3433 12.6599C44.3433 14.2884 44.8598 15.5991 45.8928 16.5922C46.9259 17.5853 48.1625 18.0818 49.6038 18.0818C51.2489 18.0818 52.677 17.4331 53.8887 16.1354L52.6259 14.6854C51.8864 15.6125 50.9459 16.0759 49.8044 16.0759C48.6629 16.0759 47.7609 15.6523 47.0978 14.8048L54.5197 11.5675L54.5005 11.5275Z" fill="#1F0047"/>
<path d="M41.8863 7.85311C41.2931 8.27712 40.8243 8.81978 40.4803 9.48165V7.35676H38.3379V17.9226H40.4803V13.3943C40.4803 12.1895 40.748 11.2296 41.2839 10.5145C41.8191 9.79966 42.6162 9.44204 43.6749 9.44204H43.7897L43.7705 7.19757C43.1069 7.21115 42.4791 7.42966 41.8863 7.85311Z" fill="#1F0047"/>
<path d="M62.1789 12.5405C61.8344 12.3021 61.5124 12.1168 61.2129 11.9844C60.9131 11.852 60.6038 11.733 60.2853 11.6268C59.9663 11.5212 59.5997 11.4154 59.1852 11.3092C58.7707 11.2033 58.4489 11.0906 58.2194 10.9714C57.8877 10.8126 57.7222 10.5612 57.7222 10.217C57.7222 9.83294 57.8814 9.54506 58.2003 9.35295C58.5187 9.16122 58.9334 9.06507 59.4435 9.06507C60.4123 9.06507 61.3116 9.34979 62.1407 9.91904L62.944 8.27061C61.8984 7.55574 60.7888 7.19794 59.6158 7.19794C58.4424 7.19794 57.4892 7.49288 56.7559 8.08204C56.0224 8.67119 55.656 9.45579 55.656 10.4355C55.656 11.8258 56.7145 12.8185 58.8314 13.4143C58.8821 13.4277 58.9586 13.4543 59.0609 13.4939C60.4123 13.9178 61.0884 14.3944 61.0884 14.924C61.0884 15.2815 60.9478 15.576 60.6675 15.8078C60.387 16.0395 60.0045 16.1552 59.52 16.1552C58.4105 16.1552 57.263 15.6919 56.0769 14.7648L55.0439 16.4927C55.656 16.9959 56.3604 17.3865 57.1575 17.6645C57.9545 17.9425 58.7227 18.0816 59.4623 18.0816C60.5592 18.0816 61.4581 17.7805 62.1597 17.178C62.8608 16.5754 63.2116 15.7713 63.2116 14.7648C63.2116 13.7588 62.8674 13.0171 62.1789 12.5405Z" fill="#1F0047"/>
<path d="M33.8317 10.9813C33.3788 11.4777 32.5276 11.7262 31.2782 11.7262H28.6576V6.16493H30.9529C32.1771 6.16493 33.0761 6.36354 33.65 6.76096C34.2238 7.15819 34.5108 7.83679 34.5108 8.79677C34.5108 9.75693 34.2844 10.4846 33.8317 10.9813ZM35.4289 5.25163C34.4979 4.44415 33.0186 4.04004 30.991 4.04004H26.4004V17.9228H28.6576V13.8514H31.0294C32.9933 13.8514 34.45 13.4609 35.4002 12.6796C36.3499 11.8987 36.8253 10.6671 36.8253 8.98553C36.8253 7.30417 36.3596 6.0593 35.4289 5.25163Z" fill="#1F0047"/>
<path d="M68.2251 16.155C67.7661 16.155 67.4089 16.0059 67.154 15.7081C66.8988 15.4102 66.7713 15.01 66.7713 14.5066V9.14416H69.4495V7.3568H66.7713V4.04004H64.6289V14.4471C64.6289 15.5594 64.9508 16.4431 65.5949 17.0984C66.2386 17.754 67.0165 18.0815 67.9283 18.0815C68.84 18.0815 69.6722 17.7309 70.4246 17.0289L69.5446 15.4597C69.1244 15.9237 68.6844 16.155 68.2251 16.155Z" fill="#1F0047"/>
<path d="M78.0303 15.152C77.4435 15.7944 76.7297 16.1152 75.8879 16.1152C75.0464 16.1152 74.3128 15.7975 73.6881 15.1621C73.0631 14.5262 72.7509 13.7022 72.7509 12.6892C72.7509 11.6763 73.057 10.8322 73.6691 10.1569C74.2813 9.48164 75.0142 9.14411 75.8689 9.14411C76.7231 9.14411 77.4435 9.48164 78.0303 10.1569C78.6169 10.8322 78.9102 11.6733 78.9102 12.6794C78.9101 13.6859 78.6167 14.5099 78.0303 15.152ZM78.8719 9.18409C78.0047 7.86018 76.9015 7.19775 75.5626 7.19775C74.2236 7.19775 73.0631 7.68778 72.0814 8.66747C71.0992 9.64734 70.6084 10.9584 70.6084 12.5998C70.6084 14.2417 71.0866 15.5662 72.0429 16.5721C72.9994 17.5782 74.1215 18.0814 75.4097 18.0814C76.0471 18.0814 76.6817 17.9194 77.3127 17.5947C77.9439 17.2706 78.4635 16.804 78.8717 16.1948V17.9226H81.0141V7.35676H78.8717V9.18409H78.8719Z" fill="#1F0047"/>
<path d="M112.771 15.1323C112.165 15.7747 111.397 16.0955 110.466 16.0955C109.535 16.0955 108.767 15.7747 108.161 15.1323C107.555 14.4902 107.253 13.6594 107.253 12.6398C107.253 11.6203 107.555 10.7896 108.161 10.1472C108.767 9.50508 109.535 9.18391 110.466 9.18391C111.397 9.18391 112.165 9.50508 112.771 10.1472C113.377 10.7896 113.68 11.6201 113.68 12.6398C113.68 13.6594 113.377 14.4902 112.771 15.1323ZM110.466 7.19775C108.936 7.19775 107.661 7.72423 106.641 8.77682C105.62 9.82959 105.11 11.1172 105.11 12.64C105.11 14.1627 105.62 15.4501 106.641 16.5029C107.661 17.5555 108.936 18.0818 110.466 18.0818C111.997 18.0818 113.271 17.5555 114.292 16.5029C115.312 15.4501 115.822 14.1627 115.822 12.64C115.822 11.1172 115.312 9.82959 114.292 8.77682C113.271 7.72423 111.997 7.19775 110.466 7.19775Z" fill="#E2066F"/>
<path d="M124.408 15.142C123.783 15.7776 123.05 16.0955 122.208 16.0955C121.366 16.0955 120.652 15.7747 120.066 15.1323C119.479 14.4902 119.186 13.666 119.186 12.6595C119.186 11.6536 119.479 10.8158 120.066 10.1472C120.652 9.47848 121.373 9.14411 122.227 9.14411C123.081 9.14411 123.815 9.47848 124.427 10.1472C125.039 10.8158 125.345 11.6566 125.345 12.6693C125.345 13.6823 125.033 14.5065 124.408 15.142ZM126.034 8.66747C125.065 7.68778 123.898 7.19775 122.533 7.19775C121.169 7.19775 120.066 7.86669 119.224 9.20399V7.35694H117.082V21.7757H119.224V16.3341C120.244 17.4993 121.395 18.0816 122.677 18.0816C123.958 18.0816 125.08 17.5721 126.043 16.5524C127.006 15.5331 127.488 14.2086 127.488 12.5801C127.488 10.9515 127.003 9.64734 126.034 8.66747Z" fill="#E2066F"/>
<path d="M100.123 7.19777C99.4082 7.19777 98.7419 7.38355 98.1235 7.75382C97.5048 8.12482 97.0427 8.63457 96.7368 9.28341V3.20593H94.5942V17.9228H96.7368V12.2028C96.7368 11.2229 97.0108 10.4783 97.5594 9.96834C98.1073 9.45878 98.7516 9.20382 99.4914 9.20382C101.047 9.20382 101.825 10.1768 101.825 12.1232V17.9228H103.968V11.4479C103.968 10.071 103.614 9.01859 102.906 8.29015C102.198 7.56227 101.27 7.19777 100.123 7.19777Z" fill="#E2066F"/>
<path d="M92.0327 11.2495C91.3376 10.6272 90.3046 10.1441 88.9339 9.79965C87.563 9.4556 86.6672 9.13425 86.2463 8.83633C85.8256 8.53859 85.6151 8.10826 85.6151 7.54533C85.6151 6.98277 85.8256 6.56229 86.2463 6.28445C86.6672 6.00624 87.2058 5.86714 87.8628 5.86714C88.5194 5.86714 89.1853 5.98634 89.8617 6.22476C90.5373 6.46298 91.0728 6.7676 91.4685 7.13842L92.6732 5.37079C92.0612 4.84152 91.3343 4.43052 90.4927 4.13948C89.651 3.84825 88.8028 3.70245 87.9488 3.70245C86.6223 3.70245 85.5096 4.05022 84.6106 4.745C83.7117 5.44015 83.2623 6.42988 83.2623 7.71419C83.2623 8.99849 83.6574 9.95196 84.448 10.5742C84.8431 10.9051 85.2961 11.1734 85.806 11.3783C86.3161 11.5838 87.0622 11.8089 88.0444 12.0536C89.0261 12.2989 89.7178 12.57 90.1196 12.868C90.5213 13.1659 90.7223 13.5828 90.7223 14.1192C90.7223 14.6555 90.5086 15.0858 90.0813 15.4102C89.6539 15.7349 89.077 15.8968 88.3501 15.8968C86.8965 15.8968 85.4935 15.2878 84.1419 14.0695L82.7266 15.8371C84.3459 17.3336 86.2013 18.0816 88.2928 18.0816C89.7209 18.0816 90.8751 17.7043 91.7551 16.9494C92.6349 16.195 93.0749 15.2119 93.0749 14.0001C93.0749 12.7884 92.7277 11.8721 92.0327 11.2495Z" fill="#E2066F"/>
<path d="M6.91554 16.7508C7.08158 16.674 7.24977 16.6035 7.41957 16.5373C7.61122 16.4626 7.80448 16.3923 8.00025 16.3309C8.24402 16.2546 8.48976 16.1857 8.73891 16.1308C9.07474 16.0568 9.41452 16.0019 9.75698 15.9673C9.56497 16.5942 9.35272 17.2176 9.12274 17.8369C9.13259 17.9568 9.13797 18.0775 9.14101 18.1984C9.60402 18.1036 10.0824 18.0528 10.5723 18.0528C11.0622 18.0528 11.5406 18.1036 12.0036 18.1984C12.0066 18.0773 12.0118 17.9566 12.0219 17.8369C11.7919 17.2176 11.5796 16.5942 11.3876 15.9673C11.7301 16.0019 12.0699 16.0566 12.4057 16.1308C12.6547 16.1857 12.9006 16.2546 13.1444 16.3309C13.3403 16.3921 13.5334 16.4626 13.725 16.5373C13.8948 16.6035 14.0632 16.6742 14.2292 16.7508C15.4073 17.2955 16.4812 18.1034 17.3619 19.1519C19.5695 17.1724 20.9687 14.2475 20.9687 10.9813C20.9687 5.01986 16.3141 0.187073 10.5725 0.187073C4.83086 0.187073 0.17627 5.01986 0.17627 10.9813C0.17627 14.2475 1.57531 17.1726 3.78305 19.1519C4.66357 18.1034 5.73752 17.2953 6.91554 16.7508Z" fill="#A0DBE8"/>
<path d="M7.6007 18.7037C8.08878 18.4796 8.60408 18.3083 9.14088 18.1984C9.13784 18.0774 9.13264 17.9567 9.12261 17.8369C9.35259 17.2176 9.56484 16.5942 9.75685 15.9673C9.41439 16.0019 9.07461 16.0566 8.73877 16.1308C8.48981 16.1857 8.24389 16.2547 8.00012 16.3309C7.80435 16.3921 7.61108 16.4624 7.41943 16.5373L8.17726 16.728L7.6007 18.7037Z" fill="#525353"/>
<path d="M5.8142 19.8675C5.83319 19.6662 5.84483 19.4633 5.84483 19.2584C5.84483 19.1351 5.9412 19.0351 6.05995 19.0351H6.24891L6.91557 16.751C5.73754 17.2957 4.66359 18.1035 3.78271 19.152C4.26829 19.5874 4.79255 19.9766 5.3503 20.3138C5.49879 20.1581 5.65354 20.0092 5.8142 19.8675Z" fill="#525353"/>
<path d="M14.229 16.7508L14.8957 19.0349H15.0844C15.2034 19.0349 15.2996 19.1349 15.2996 19.2582C15.2996 19.4633 15.3112 19.6662 15.3302 19.8673C15.491 20.009 15.6456 20.1581 15.7941 20.3134C16.3518 19.9762 16.8761 19.587 17.3617 19.1517C16.481 18.1033 15.407 17.2955 14.229 16.7508Z" fill="#525353"/>
<path d="M12.967 16.728L13.7246 16.5373C13.533 16.4626 13.3397 16.3923 13.1439 16.3309C12.9002 16.2547 12.6544 16.1857 12.4053 16.1308C12.0694 16.0568 11.7297 16.0019 11.3872 15.9673C11.5792 16.5942 11.7915 17.2176 12.0214 17.8369C12.0116 17.9568 12.0062 18.0775 12.0032 18.1984C12.5402 18.3083 13.0555 18.4796 13.5435 18.7037L12.967 16.728Z" fill="#525353"/>
<path d="M10.5724 19.0349H12.0373C12.0072 18.7546 11.9965 18.4753 12.0037 18.1984C11.5407 18.1036 11.0623 18.0528 10.5724 18.0528C10.0825 18.0528 9.60428 18.1036 9.14109 18.1984C9.14808 18.4753 9.13733 18.7546 9.10742 19.0349H10.5724Z" fill="black"/>
<path d="M5.35059 20.3136C5.47149 20.3867 5.59328 20.4579 5.71705 20.526C5.7604 20.3097 5.79353 20.0901 5.81449 19.8675C5.65382 20.0092 5.49907 20.1582 5.35059 20.3136Z" fill="black"/>
<path d="M7.50439 19.0349H9.10763C9.13772 18.7547 9.14846 18.4753 9.1413 18.1984C8.6045 18.3083 8.08902 18.4796 7.60112 18.7037L7.50439 19.0349Z" fill="black"/>
<path d="M15.3301 19.8675C15.351 20.0901 15.3842 20.3097 15.4275 20.526C15.5513 20.4579 15.6733 20.3867 15.794 20.3136C15.6455 20.1582 15.4909 20.0092 15.3301 19.8675Z" fill="black"/>
<path d="M13.6406 19.0349L13.5439 18.7039C13.0558 18.4798 12.5405 18.3085 12.0035 18.1986C11.9965 18.4755 12.0073 18.7548 12.0372 19.0351L13.6406 19.0349Z" fill="black"/>
<path d="M7.50406 19.0349L7.60078 18.7037L8.17753 16.7277L7.4197 16.5371C7.2499 16.6033 7.08154 16.674 6.91568 16.7506L6.24902 19.0347H6.96476L7.50406 19.0349Z" fill="#AA9678"/>
<path d="M13.5438 18.7038L13.6406 19.0349H14.1799H14.8958L14.2291 16.7508C14.0631 16.674 13.8947 16.6035 13.7249 16.5373L12.9673 16.7279L13.5438 18.7038Z" fill="#AA9678"/>
<path d="M6.271 19.4963C6.27744 19.4914 6.28407 19.4866 6.2907 19.4818H6.27189C6.27171 19.4866 6.27118 19.4912 6.271 19.4963Z" fill="#C0B098"/>
<path d="M10.5722 19.4816H9.04261H7.37364H6.29055C6.28393 19.4865 6.2773 19.4913 6.27085 19.4961C6.25652 19.9179 6.20207 20.3315 6.11377 20.7339C7.46499 21.401 8.97634 21.7756 10.5722 21.7756V19.4816Z" fill="#C0B098"/>
<path d="M14.8728 19.4816H14.854C14.8606 19.4865 14.8673 19.4913 14.8737 19.4961C14.8733 19.4913 14.8728 19.4866 14.8728 19.4816Z" fill="#AA9678"/>
<path d="M14.8538 19.4816H13.7709H12.1017H10.5723V21.7756C12.1682 21.7756 13.6795 21.4012 15.0307 20.7339C14.9424 20.3315 14.8882 19.9181 14.8736 19.4961C14.867 19.4913 14.8604 19.4866 14.8538 19.4816Z" fill="#AA9678"/>
<path d="M15.3303 19.8675C15.3113 19.6663 15.2997 19.4634 15.2997 19.2584C15.2997 19.1351 15.2033 19.0351 15.0845 19.0351H14.8958H14.1798H13.6405H12.0373H10.5723H9.10721H7.50398H6.96467H6.24894H6.05998C5.94105 19.0351 5.84486 19.1351 5.84486 19.2584C5.84486 19.4636 5.83322 19.6665 5.81423 19.8675C5.79328 20.0901 5.76014 20.3097 5.7168 20.526C5.84773 20.598 5.97973 20.6679 6.11371 20.7341C6.20201 20.3317 6.25628 19.9183 6.27079 19.4963C6.27097 19.4915 6.27151 19.4866 6.27169 19.4818H6.29049H7.37358H9.04255H10.5722H12.1016H13.7708H14.8537H14.8725C14.8727 19.4866 14.8732 19.4915 14.8734 19.4963C14.8877 19.9181 14.9421 20.3317 15.0305 20.7341C15.1646 20.6679 15.2966 20.598 15.4274 20.526C15.3844 20.3095 15.3512 20.0901 15.3303 19.8675Z" fill="#8B7460"/>
<path d="M13.5489 17.4945C13.5176 17.4571 13.4852 17.417 13.4517 17.3714C13.4852 17.4171 13.5176 17.4571 13.5489 17.4945Z" fill="#525353"/>
<path d="M13.7879 17.7411C13.7879 17.7411 13.7887 17.7437 13.7901 17.7482C13.7887 17.7437 13.7879 17.7411 13.7879 17.7411C13.7879 17.7411 13.6826 17.6544 13.5488 17.4945C13.6824 17.6544 13.7879 17.7411 13.7879 17.7411Z" fill="#AA9678"/>
<path d="M16.962 7.97593C16.9623 7.97591 16.9625 7.97566 16.9625 7.97539C16.9624 7.97511 16.9622 7.97491 16.9619 7.97493C16.9617 7.97496 16.9614 7.9752 16.9615 7.97547C16.9615 7.97575 16.9617 7.97595 16.962 7.97593Z" fill="white"/>
<path d="M17.4941 8.57914C17.4923 8.57672 17.4905 8.57449 17.4889 8.57207H17.4891C17.4028 8.44747 17.3136 8.33384 17.2222 8.23063C17.222 8.23026 17.2217 8.22989 17.2213 8.2297C17.2215 8.23007 17.2219 8.23044 17.2222 8.23063C17.2213 8.2297 17.2206 8.22859 17.2199 8.22766C17.1783 8.18098 17.1364 8.13616 17.094 8.09394C17.0779 8.07795 17.0614 8.064 17.0453 8.04875C17.0186 8.02365 16.9919 7.99761 16.9648 7.97437V7.97492V8.9786L17.3351 10.7392C17.339 10.7529 17.344 10.7656 17.3474 10.7799L17.6039 11.0784L17.6064 11.0754H17.8749C17.8753 11.0496 17.8767 11.0241 17.8767 10.9982V10.9979C17.8767 10.1675 17.7452 9.36951 17.5072 8.6221C17.5027 8.60796 17.4988 8.59346 17.4941 8.57914Z" fill="#BBBCBD"/>
<path d="M17.3831 11.0808C17.3831 11.0794 17.3828 11.078 17.3828 11.0764C17.3828 11.078 17.3831 11.0794 17.3831 11.0808Z" fill="#BBBCBD"/>
<path d="M17.3717 10.9112C17.372 10.914 17.3727 10.9166 17.3731 10.9196C17.3733 10.9212 17.3738 10.9229 17.374 10.9246C17.374 10.9248 17.374 10.925 17.374 10.9253C17.3788 10.9666 17.3808 11.0096 17.3817 11.0531C17.3819 11.0611 17.3831 11.0685 17.3831 11.0765C17.3831 11.0775 17.3833 11.0784 17.3833 11.0795C17.3833 11.0806 17.3831 11.0815 17.3831 11.0827C17.3831 11.0912 17.3819 11.0992 17.3817 11.1078C17.3808 11.1504 17.379 11.1926 17.3742 11.2331C17.3742 11.2333 17.3742 11.2335 17.3742 11.2337C17.374 11.2357 17.3734 11.2376 17.3731 11.2398C17.3727 11.2432 17.3718 11.2461 17.3713 11.2493C17.3656 11.2934 17.358 11.3363 17.348 11.3771C17.348 11.3772 17.348 11.3774 17.3478 11.3776L17.3493 11.3759C17.3494 11.3752 17.3496 11.3746 17.3498 11.3739L17.6041 11.0786L17.3477 10.7801C17.3477 10.7803 17.3477 10.7805 17.3478 10.7806C17.358 10.8223 17.3657 10.866 17.3717 10.9112Z" fill="#676A6A"/>
<path d="M17.3713 11.2492C17.372 11.2437 17.3735 11.2386 17.3742 11.2331C17.379 11.1925 17.3808 11.1503 17.3817 11.1077C17.3819 11.0981 17.3833 11.0891 17.3833 11.0795C17.3833 11.0703 17.3821 11.062 17.3819 11.0531C17.381 11.0095 17.379 10.9666 17.3742 10.9253C17.3737 10.9205 17.3724 10.916 17.3717 10.9112C17.3658 10.8662 17.3581 10.8224 17.3479 10.7808C17.3443 10.7663 17.3393 10.7535 17.3351 10.7393C17.3106 10.6549 17.2769 10.5801 17.2372 10.5182C17.2318 10.51 17.2264 10.5018 17.2209 10.4942C17.2099 10.479 17.199 10.4641 17.1874 10.4509C17.1702 10.4315 17.1525 10.4137 17.1336 10.399C17.1265 10.3934 17.119 10.3895 17.1116 10.3845C17.0955 10.3737 17.0788 10.3642 17.0616 10.357C17.0543 10.3538 17.047 10.3508 17.0394 10.3484C17.0153 10.3406 16.9905 10.335 16.9649 10.335C16.9393 10.335 16.9148 10.3406 16.8904 10.3484C16.8829 10.3508 16.8755 10.3538 16.8682 10.357C16.851 10.3642 16.8345 10.3737 16.8182 10.3845C16.8111 10.3895 16.8034 10.3932 16.7964 10.399C16.7776 10.4137 16.7598 10.4315 16.7426 10.4509C16.731 10.4641 16.7201 10.479 16.7092 10.4942C16.7036 10.502 16.698 10.5102 16.6927 10.5184C16.6529 10.5805 16.6192 10.6551 16.5947 10.7395C16.5936 10.7429 16.5925 10.7462 16.5917 10.7495C16.5809 10.7882 16.5723 10.8291 16.5651 10.8712C16.563 10.884 16.5601 10.8963 16.5585 10.9095C16.5521 10.9563 16.5487 11.0053 16.5479 11.0553C16.5478 11.0622 16.5469 11.0689 16.5469 11.0757H16.5485C16.5485 11.4869 16.7358 11.8202 16.9669 11.8202C17.0067 11.8202 17.045 11.8094 17.0813 11.7908C17.0873 11.7878 17.093 11.7847 17.0987 11.7811C17.1139 11.7722 17.1286 11.7622 17.143 11.7504C17.1508 11.7439 17.1582 11.7359 17.1657 11.7285C17.1842 11.7106 17.2017 11.6904 17.2184 11.6679C17.2298 11.6522 17.2413 11.6364 17.2519 11.6188C17.2587 11.6076 17.2648 11.5953 17.271 11.5834C17.2827 11.5611 17.2938 11.5377 17.3038 11.5128C17.3074 11.5038 17.3113 11.4953 17.3147 11.486C17.3274 11.4514 17.3387 11.4151 17.348 11.3768C17.3581 11.3363 17.3656 11.2933 17.3713 11.2492ZM16.98 10.9801C16.8933 10.9801 16.8231 10.8552 16.8231 10.701C16.8231 10.5468 16.8933 10.4219 16.98 10.4219C17.0667 10.4219 17.1369 10.5468 17.1369 10.701C17.1369 10.8552 17.0667 10.9801 16.98 10.9801Z" fill="black"/>
<path d="M16.9797 10.9802C17.0663 10.9802 17.1366 10.8552 17.1366 10.7011C17.1366 10.5469 17.0663 10.4219 16.9797 10.4219C16.893 10.4219 16.8228 10.5469 16.8228 10.7011C16.8228 10.8552 16.893 10.9802 16.9797 10.9802Z" fill="white"/>
<path d="M16.5947 10.7395C16.6193 10.6549 16.6529 10.5803 16.6927 10.5184C16.6981 10.51 16.7036 10.502 16.7092 10.4942C16.7199 10.479 16.731 10.4643 16.7427 10.4509C16.7599 10.4314 16.7778 10.4139 16.7964 10.399C16.8036 10.3934 16.8111 10.3895 16.8183 10.3845C16.8344 10.3735 16.851 10.3642 16.8682 10.357C16.8756 10.3538 16.8829 10.3508 16.8904 10.3484C16.9146 10.3406 16.9393 10.335 16.965 10.335C16.9906 10.335 17.0153 10.3404 17.0395 10.3484C17.047 10.3508 17.0543 10.3538 17.0617 10.357C17.0787 10.3642 17.0953 10.3735 17.1116 10.3845C17.119 10.3895 17.1265 10.3934 17.1337 10.399C17.1525 10.4139 17.1702 10.4314 17.1874 10.4509C17.1991 10.4641 17.2102 10.479 17.2209 10.4942C17.2265 10.502 17.2318 10.51 17.2372 10.5182C17.277 10.5803 17.3105 10.6549 17.3352 10.7393V10.7395L16.965 8.97894L16.5947 10.7395Z" fill="#909393"/>
<path d="M12.0585 11.0629C12.058 11.0276 12.0558 10.9926 12.0519 10.958C12.0519 10.9575 12.0517 10.9571 12.0517 10.9566C12.0478 10.9227 12.0424 10.8892 12.0354 10.8563C12.0352 10.8554 12.035 10.8546 12.0349 10.8537C12.0279 10.8212 12.0195 10.7894 12.0094 10.7581C12.0093 10.7574 12.0089 10.7566 12.0087 10.7559C11.9987 10.7246 11.9872 10.694 11.9745 10.6642C11.9743 10.6637 11.974 10.6629 11.9736 10.6623C11.9607 10.6324 11.9464 10.603 11.9308 10.5748C11.8832 10.4883 11.8237 10.4096 11.7547 10.3414C11.6671 10.2547 11.564 10.1846 11.4504 10.1361C11.4495 10.1357 11.4486 10.1353 11.4476 10.1349C11.3915 10.1111 11.3329 10.0927 11.2722 10.0801C11.2708 10.0797 11.2692 10.0797 11.2677 10.0793C11.207 10.0671 11.1441 10.0602 11.0798 10.0602C11.0166 10.0602 10.955 10.0669 10.8952 10.0788C10.893 10.0791 10.8909 10.0793 10.8887 10.0797C10.8293 10.092 10.7718 10.11 10.7168 10.1331C10.7153 10.1336 10.7137 10.1342 10.7123 10.1348C10.6564 10.1584 10.603 10.1872 10.5529 10.2207C10.5527 10.2209 10.5525 10.2209 10.5524 10.2209C10.5017 10.2547 10.4542 10.2932 10.4105 10.3358L10.4094 10.3393L10.4058 10.3403C10.336 10.4091 10.276 10.4885 10.228 10.5759C10.2274 10.577 10.2267 10.5779 10.2262 10.5788C10.2115 10.6056 10.1984 10.6335 10.1861 10.6618C10.1848 10.6648 10.1832 10.6677 10.182 10.6707C10.1708 10.6969 10.1614 10.7241 10.1524 10.7514C10.1506 10.7568 10.1485 10.7618 10.1468 10.7672C10.139 10.7927 10.1327 10.8189 10.1268 10.8453C10.1252 10.8528 10.1228 10.86 10.1212 10.8677C10.116 10.8937 10.1125 10.9201 10.1091 10.9469C10.1082 10.9551 10.1064 10.9629 10.1055 10.9711C10.1019 11.0058 10.1001 11.0414 10.1001 11.0771C10.1001 11.1444 10.1067 11.21 10.1187 11.2736C10.1189 11.2749 10.1191 11.2762 10.1193 11.2777C10.1316 11.3411 10.1495 11.4025 10.1728 11.4611C10.1732 11.4618 10.1734 11.4628 10.1737 11.4635C10.2208 11.5822 10.2891 11.6895 10.3732 11.7806C10.4399 11.8526 10.5165 11.9145 10.6007 11.9639C10.6011 11.9641 10.6016 11.9645 10.602 11.9647C10.6283 11.9799 10.6555 11.9939 10.6831 12.0067C10.6854 12.0078 10.6876 12.0091 10.6899 12.0101C10.7155 12.0218 10.742 12.0316 10.7689 12.0411C10.7734 12.0428 10.7779 12.0447 10.7823 12.0463C10.8071 12.0545 10.8325 12.061 10.8581 12.0672C10.8651 12.0688 10.8717 12.0711 10.8787 12.0726C10.9036 12.0779 10.929 12.0815 10.9546 12.085C10.9623 12.0861 10.97 12.0878 10.9777 12.0887C11.0112 12.0923 11.0451 12.0943 11.0795 12.0943C11.2147 12.0943 11.3435 12.0659 11.4608 12.0143C11.5194 11.9887 11.5751 11.9571 11.6272 11.9206C11.7315 11.8475 11.8214 11.7542 11.8918 11.6459C11.9269 11.5918 11.9573 11.534 11.982 11.4732C12.0316 11.3516 12.059 11.2177 12.059 11.0772C12.059 11.0748 12.0587 11.0726 12.0587 11.0702C12.0589 11.0679 12.0585 11.0655 12.0585 11.0629ZM11.0797 10.9437C10.8764 10.9437 10.7118 10.7726 10.7118 10.5617C10.7118 10.3507 10.8765 10.1798 11.0797 10.1798C11.283 10.1798 11.4476 10.3509 11.4476 10.5617C11.4477 10.7726 11.283 10.9437 11.0797 10.9437Z" fill="black"/>
<path d="M11.0798 10.9435C11.283 10.9435 11.4477 10.7725 11.4477 10.5615C11.4477 10.3506 11.283 10.1796 11.0798 10.1796C10.8766 10.1796 10.7119 10.3506 10.7119 10.5615C10.7119 10.7725 10.8766 10.9435 11.0798 10.9435Z" fill="white"/>
<path d="M10.406 10.3408L10.4096 10.3399L10.4107 10.3363L11.0852 8.19435C11.0852 8.19435 11.0852 8.06751 11.0852 7.94087C11.0852 7.90516 11.0852 7.86983 11.0852 7.83691C11.0852 7.82594 11.0852 7.81515 11.0852 7.80493C11.0852 7.78893 11.0852 7.77443 11.0852 7.76085C11.0852 7.75137 11.0852 7.74207 11.0852 7.73426C11.0852 7.72366 11.0852 7.71492 11.0852 7.70766C11.0852 7.70171 11.0852 7.69651 11.0852 7.69316C11.0852 7.68944 11.0852 7.68739 11.0852 7.68739C10.7096 7.60743 10.3232 7.56354 9.92777 7.56354C9.79576 7.56354 9.66483 7.5693 9.5348 7.5786C9.51581 7.5799 9.49682 7.5812 9.47784 7.58269C8.80062 7.63607 8.13396 7.81943 7.51656 8.11196C6.9871 8.36302 6.49508 8.69367 6.05286 9.0857C6.05268 9.08588 6.05232 9.08626 6.05214 9.08644C5.93339 9.19114 5.81965 9.30179 5.70842 9.41505C5.68765 9.43625 5.66651 9.45708 5.64609 9.47847C5.54149 9.588 5.44029 9.70107 5.3425 9.81749C5.32118 9.84278 5.30041 9.86863 5.27945 9.89429C5.1813 10.0146 5.08565 10.1372 4.99502 10.264C4.9875 10.2746 4.98033 10.2858 4.97281 10.2964C4.8863 10.4185 4.80409 10.5439 4.72474 10.6715C4.70934 10.6964 4.69339 10.7209 4.67817 10.746C4.61405 10.8517 4.55422 10.9603 4.49512 11.0691H7.56277H7.56814L10.406 10.3408Z" fill="#BBBCBD"/>
<path d="M13.0003 10.0997C13.0066 10.0162 13.0118 9.93247 13.0159 9.84897C13.0215 9.73571 13.0252 9.62246 13.0274 9.5092C13.029 9.42124 13.0288 9.33327 13.0285 9.24531C13.0283 9.21983 13.029 9.19454 13.0286 9.16906C13.0263 8.94237 13.0179 8.7153 13.0045 8.48823C13.0039 8.48786 13.0032 8.4873 13.0027 8.48693C13.0023 8.48637 13.0021 8.48581 13.0018 8.48525C13.0009 8.4847 12.9978 8.48284 12.995 8.48116C12.9923 8.47967 12.9901 8.47819 12.9851 8.4754C12.945 8.45141 12.8463 8.39283 12.7578 8.34057C12.756 8.33945 12.7541 8.33834 12.7523 8.33722C12.7299 8.32402 12.7082 8.31137 12.6887 8.29984C12.6883 8.29966 12.6878 8.29928 12.6876 8.2991C12.6708 8.28924 12.6566 8.28106 12.6435 8.27343C12.6409 8.27195 12.6373 8.26971 12.6349 8.26841C12.6206 8.26004 12.6093 8.25372 12.6029 8.25037C12.4616 8.17431 12.3174 8.10383 12.1709 8.03948C11.8214 7.88625 11.3507 7.75198 11.0854 7.68707V7.87992V7.92493V7.94055C11.0854 8.06738 11.0854 8.19403 11.0854 8.19403L11.7541 10.3396L11.7548 10.3414C11.8237 10.4097 11.8832 10.4883 11.9309 10.5748C11.9464 10.6033 11.9608 10.6325 11.9737 10.6624C11.974 10.663 11.9742 10.6635 11.9746 10.6643C11.9875 10.694 11.9987 10.7247 12.0088 10.7559C12.009 10.7567 12.0093 10.7574 12.0095 10.7582C12.0193 10.7894 12.0279 10.8212 12.0349 10.8538C12.0351 10.8547 12.0353 10.8554 12.0355 10.8564C12.0424 10.8891 12.048 10.9226 12.0518 10.9566C12.0518 10.9572 12.0519 10.9575 12.0519 10.9581C12.0559 10.9925 12.058 11.0275 12.0586 11.063L12.0611 11.0687H12.8798C12.9351 10.7576 12.9736 10.4424 12.9982 10.1259C12.9987 10.1171 12.9996 10.1084 13.0003 10.0997Z" fill="#E2DDDB"/>
<path d="M14.0715 9.34106C14.0707 9.34245 14.0702 9.34412 14.0693 9.34551C14.0702 9.34412 14.071 9.34273 14.0715 9.34106Z" fill="#FBB040"/>
<path d="M12.0655 14.1261C12.2512 13.9341 12.4266 13.7504 12.5939 13.5702C12.6933 13.4633 12.7904 13.3573 12.8832 13.2528C13.5674 12.4815 14.0698 11.7598 14.3719 10.8314C14.3791 10.8093 14.3863 10.7803 14.3931 10.7477C14.3941 10.7427 14.3952 10.7379 14.3963 10.7327C14.4035 10.6981 14.4103 10.6596 14.4171 10.6161C14.4198 10.5861 14.4226 10.5571 14.4251 10.529C14.3492 10.1248 14.2018 9.73198 14.0717 9.34386C14.0723 9.34517 14.0726 9.34647 14.0732 9.34777C14.0725 9.34703 14.07 9.34461 14.0694 9.34405C14.0445 9.3195 14.0184 9.29663 13.9931 9.27245C13.9161 9.19881 13.8378 9.12684 13.7581 9.0571C13.519 8.8477 13.2679 8.65689 13.0042 8.48822C13.0177 8.71529 13.0261 8.94236 13.0284 9.16905C13.0288 9.19453 13.0281 9.21982 13.0282 9.2453C13.0286 9.33326 13.0288 9.42123 13.0272 9.50919C13.025 9.62245 13.0213 9.7357 13.0157 9.84896C13.0116 9.93264 13.0064 10.0161 13.0001 10.0996C12.9994 10.1084 12.9985 10.1169 12.998 10.1257C12.9736 10.4424 12.9349 10.7574 12.8796 11.0685L12.7834 11.5407C12.5826 12.3861 12.1746 13.1531 11.8391 13.9449C11.7501 14.1549 11.6657 14.3673 11.5918 14.5836C11.585 14.6035 11.5778 14.6243 11.5708 14.6447C11.6756 14.5304 11.7684 14.4316 11.8389 14.3591C11.916 14.28 11.9915 14.2025 12.0655 14.1261Z" fill="#FBB040"/>
<path d="M10.4106 10.3364C10.4543 10.2938 10.5018 10.2553 10.5525 10.2215C10.5527 10.2213 10.5529 10.2213 10.553 10.2213C10.6032 10.1878 10.6566 10.159 10.7124 10.1354C10.7139 10.1348 10.7155 10.1342 10.7169 10.1337C10.7719 10.1106 10.8294 10.0926 10.8889 10.0803C10.891 10.0799 10.8932 10.0798 10.8953 10.0794C10.9551 10.0675 11.0168 10.0608 11.08 10.0608C11.1443 10.0608 11.207 10.0677 11.2679 10.0799C11.2695 10.0803 11.2709 10.0803 11.2724 10.0807C11.3331 10.0933 11.3916 10.1119 11.4477 10.1355C11.4486 10.1359 11.4495 10.1363 11.4506 10.1367C11.5643 10.1852 11.6673 10.2553 11.7549 10.342L11.7542 10.3401L11.0855 8.19458L10.4106 10.3364Z" fill="#909393"/>
<path d="M10.1729 11.4615C10.1498 11.4029 10.1317 11.3415 10.1193 11.2781C10.1191 11.2768 10.119 11.2755 10.1188 11.274C10.1068 11.2104 10.1002 11.1448 10.1002 11.0774C10.1002 11.0416 10.102 11.0062 10.1055 10.9714C10.1064 10.9633 10.108 10.9555 10.1091 10.9473C10.1125 10.9207 10.1159 10.8941 10.1213 10.868C10.1229 10.8604 10.1251 10.8532 10.1268 10.8457C10.1328 10.8193 10.139 10.7931 10.1469 10.7676C10.1485 10.7622 10.1507 10.7572 10.1525 10.7518C10.1614 10.7245 10.1709 10.6973 10.182 10.6711C10.1833 10.6681 10.1849 10.6652 10.1861 10.6622C10.1985 10.6339 10.2116 10.606 10.2263 10.5792C10.2268 10.5781 10.2275 10.5772 10.228 10.5763C10.276 10.4889 10.3361 10.4094 10.4059 10.3406L7.56787 11.0685H7.5625L10.3735 11.7808C10.2893 11.6897 10.2211 11.5824 10.174 11.4637C10.1734 11.4631 10.1732 11.4622 10.1729 11.4615Z" fill="#676A6A"/>
<path d="M16.5585 10.9093C16.5603 10.8961 16.563 10.8839 16.5651 10.871C16.5723 10.8292 16.5807 10.7883 16.5917 10.7494C16.5929 10.7451 16.5934 10.7401 16.5945 10.7358L16.9647 8.97525V7.97139C16.6622 7.71196 16.3382 7.57007 16.0008 7.57007C15.5747 7.57007 15.1772 7.81443 14.8801 8.11626C14.5548 8.44654 14.3037 8.86218 14.1004 9.28155C14.0911 9.30089 14.0816 9.3193 14.0723 9.33882C14.135 9.39517 14.1969 9.45227 14.258 9.51029C14.3965 9.64177 14.5319 9.7766 14.6653 9.91347C14.7276 9.97726 14.7885 10.0423 14.8498 10.1072C14.9148 10.1759 14.9798 10.2445 15.0438 10.3142C15.126 10.4041 15.2077 10.4946 15.2884 10.5861C15.3225 10.6246 15.3563 10.6633 15.39 10.702C15.4873 10.8139 15.5842 10.9263 15.6794 11.0403L15.6796 11.0404C15.6956 11.0579 15.7068 11.0702 15.7111 11.0754H16.5462C16.5462 11.0683 16.5476 11.062 16.5476 11.055C16.5489 11.0051 16.5521 10.9562 16.5585 10.9093Z" fill="#E2DDDB"/>
<path d="M14.0718 9.34377C14.0714 9.3428 14.0712 9.34184 14.0709 9.34106C14.0703 9.34203 14.0699 9.343 14.0693 9.34415C14.0699 9.34473 14.0726 9.34724 14.0733 9.34802C14.073 9.34666 14.0724 9.34531 14.0718 9.34377Z" fill="#E2DDDB"/>
<path d="M3.99128 12.1765C3.99361 12.17 3.99629 12.1637 3.99862 12.1572C4.05236 12.0112 4.11128 11.8671 4.17326 11.7244C4.19045 11.6846 4.20836 11.6454 4.22609 11.6058C4.27678 11.4938 4.33034 11.3834 4.38586 11.2738C4.40843 11.2292 4.43046 11.1846 4.45392 11.1405C4.46682 11.1161 4.48151 11.0929 4.49458 11.0685C4.55387 10.9597 4.61351 10.8511 4.67764 10.7455C4.69286 10.7204 4.7088 10.6958 4.72421 10.6709C4.80355 10.5435 4.88594 10.418 4.97228 10.2958C4.9798 10.2852 4.98678 10.2741 4.99449 10.2635C5.08512 10.1368 5.18076 10.0141 5.27892 9.89375C5.29987 9.86809 5.32065 9.84224 5.34196 9.81695C5.43976 9.70053 5.54078 9.58746 5.64556 9.47792C5.66616 9.45654 5.68711 9.43571 5.70789 9.41451C5.81912 9.30125 5.93285 9.19079 6.0516 9.0859C6.05178 9.08571 6.05214 9.08534 6.05232 9.08516C6.51927 7.46053 7.9484 6.27795 9.6394 6.27795C10.3202 6.27795 10.9969 6.48158 11.577 6.84999C12.172 7.22788 12.6569 7.78151 12.972 8.42682C12.9736 8.42999 12.9752 8.43333 12.9766 8.4365C12.9845 8.45286 12.9935 8.46848 13.0013 8.48503C13.0015 8.48559 13.0019 8.48615 13.0022 8.48671C13.0028 8.48708 13.0035 8.48764 13.004 8.48801C13.2675 8.6565 13.5188 8.84749 13.7579 9.05689C13.8376 9.12663 13.9159 9.1986 13.9929 9.27224C14.0182 9.29642 14.0443 9.31929 14.0692 9.34384C14.0697 9.34291 14.0701 9.34179 14.0706 9.34086C14.071 9.34031 14.0714 9.33956 14.0715 9.339C14.0801 9.32059 14.0885 9.302 14.0973 9.28414C14.3355 7.72256 14.999 6.59763 15.7815 6.59763C16.3713 6.59763 16.8938 7.23625 17.2176 8.2191L17.2209 8.2297C17.2212 8.23007 17.2214 8.23044 17.2218 8.23081C17.3131 8.33403 17.4023 8.44765 17.4886 8.57225H17.4885C17.4902 8.57467 17.4919 8.5769 17.4936 8.57932V8.57913V8.57932C17.4983 8.59364 17.5022 8.60815 17.5067 8.62246L17.4944 8.57132C16.5209 5.57907 13.7952 3.4248 10.5848 3.4248C6.55778 3.4248 3.29346 6.81428 3.29346 10.9952C3.29346 11.8195 3.42027 12.613 3.6558 13.3515C3.65616 13.35 3.65652 13.3487 3.6567 13.3472C3.70309 13.1244 3.75843 12.9031 3.82309 12.684C3.87414 12.5131 3.9302 12.3439 3.99128 12.1765Z" fill="#525353"/>
<path d="M17.6042 11.0788L17.3498 11.3741C17.3497 11.3748 17.3495 11.3754 17.3493 11.3761C17.3396 11.4148 17.3278 11.4513 17.3147 11.4862C17.3113 11.4955 17.3076 11.5041 17.3038 11.513C17.2936 11.5378 17.2828 11.5614 17.271 11.5837C17.2648 11.5956 17.2585 11.6079 17.2519 11.619C17.2413 11.6367 17.23 11.6525 17.2184 11.6681C17.2017 11.6906 17.1842 11.7109 17.1657 11.7287C17.1582 11.7362 17.1508 11.7442 17.143 11.7507C17.1286 11.7626 17.1138 11.7724 17.0987 11.7814C17.093 11.7847 17.0873 11.7881 17.0813 11.791C17.045 11.8095 17.0067 11.8204 16.9669 11.8204C16.7358 11.8204 16.5485 11.4872 16.5485 11.076H16.5469H16.5465H15.7115H15.709C15.7092 11.0762 15.7093 11.0764 15.7095 11.0765C15.8653 11.2634 16.0187 11.453 16.1697 11.6441C16.1715 11.6464 16.1732 11.6488 16.1752 11.651C16.3221 11.8372 16.467 12.0252 16.6101 12.2141C16.6171 12.2234 16.6242 12.2325 16.6312 12.2418C16.767 12.4217 16.9013 12.6026 17.0344 12.7839C17.0473 12.8016 17.0604 12.8191 17.0733 12.8366C17.2141 13.0289 17.3536 13.2217 17.4919 13.4147C17.4928 13.416 17.4938 13.4175 17.4947 13.4188C17.7346 12.6818 17.8687 11.8946 17.8771 11.0758H17.8753H17.6069L17.6042 11.0788Z" fill="white"/>
<path d="M9.47759 7.58234C9.49657 7.58085 9.51556 7.57955 9.53454 7.57825C9.66458 7.56914 9.79551 7.56319 9.92752 7.56319C10.3228 7.56319 10.7092 7.60726 11.0849 7.68704C11.0849 7.68704 11.0849 7.68909 11.0849 7.69281C11.0849 7.69615 11.0849 7.70136 11.0849 7.70731C11.0849 7.71457 11.0849 7.72368 11.0849 7.73391C11.0849 7.7419 11.0849 7.75102 11.0849 7.7605C11.0849 7.77389 11.0849 7.78895 11.0849 7.80457C11.0849 7.8148 11.0849 7.82559 11.0849 7.83656C11.0849 7.85051 11.0849 7.86502 11.0849 7.87989V7.68704C11.3502 7.75195 11.8209 7.88622 12.1704 8.03945C12.3171 8.1038 12.4612 8.1741 12.6024 8.25034C12.6088 8.25388 12.6201 8.2602 12.6344 8.26838C12.6369 8.26987 12.6405 8.27192 12.643 8.2734C12.6561 8.28103 12.6704 8.28921 12.6871 8.29907C12.6875 8.29925 12.688 8.29963 12.6882 8.29981C12.7079 8.31134 12.7292 8.32399 12.7518 8.33719C12.7535 8.33831 12.7555 8.33942 12.7573 8.34054C12.8472 8.39354 12.9466 8.45268 12.9846 8.47537C12.9894 8.47834 12.9918 8.47964 12.9945 8.48113C12.9962 8.48225 13.0007 8.48485 13.0013 8.48522C12.9934 8.46886 12.9844 8.45305 12.9765 8.43668C12.9749 8.43352 12.9735 8.43018 12.9719 8.42701C12.657 7.7817 12.172 7.22807 11.577 6.85018C10.9968 6.48177 10.32 6.27814 9.63932 6.27814C7.94833 6.27814 6.51919 7.46072 6.05225 9.08535C6.49447 8.69332 6.98632 8.36267 7.51595 8.11161C8.13371 7.81889 8.80054 7.63571 9.47759 7.58234Z" fill="black"/>
<path d="M14.8797 8.11665C15.1769 7.81482 15.5743 7.57046 16.0004 7.57046C16.3379 7.57046 16.6619 7.71235 16.9644 7.97178C16.9644 7.97178 16.9644 7.97401 16.9644 7.97475V7.97531V7.97475C16.9914 7.99781 17.018 8.02385 17.0448 8.04914C17.0609 8.06439 17.0776 8.07834 17.0935 8.09433C17.136 8.13655 17.1779 8.18118 17.2195 8.22804C17.2203 8.22897 17.2211 8.23009 17.2218 8.23102C17.2216 8.23065 17.2212 8.23028 17.2209 8.23009L17.2175 8.21949C16.8936 7.23664 16.3712 6.59802 15.7814 6.59802C14.9988 6.59802 14.3354 7.72295 14.0972 9.28454L14.0997 9.28231C14.3033 8.86257 14.5546 8.44693 14.8797 8.11665Z" fill="black"/>
<path d="M7.97486 18.0569C8.04149 18.0835 8.10919 18.1075 8.17671 18.132C8.93096 18.4063 9.7409 18.5575 10.5856 18.5575C11.5487 18.5575 12.4672 18.3619 13.3088 18.0097C13.3534 17.9911 13.3969 17.9706 13.441 17.9511C13.5125 17.9195 13.5834 17.8869 13.6536 17.8531C13.7165 17.8228 13.7793 17.7926 13.8411 17.7607C13.8263 17.7625 13.8112 17.7655 13.7964 17.7673C13.5347 17.7978 13.2751 17.7997 13.0213 17.762C11.5211 17.538 11.1887 16.7869 11.2363 16.0047C11.1283 15.94 11.0183 15.8673 10.9066 15.7831C9.75272 14.914 9.06798 13.9881 9.06798 13.9881C9.06798 13.9881 9.95799 14.7015 11.2875 15.2354C11.316 15.2469 11.3427 15.2568 11.3708 15.2677C11.433 15.0448 11.5064 14.8327 11.5711 14.6449C11.5781 14.6245 11.5852 14.6036 11.592 14.5837C11.666 14.3675 11.7504 14.1553 11.8394 13.9451C12.1749 13.1533 12.5827 12.3863 12.7837 11.5409L12.8798 11.0687H12.0611H12.0593C12.0593 11.0693 12.0593 11.0698 12.0593 11.0704L12.059 11.0706C12.059 11.073 12.0593 11.0752 12.0593 11.0777C12.0593 11.2181 12.0319 11.3518 11.9823 11.4736C11.9574 11.5344 11.9271 11.5922 11.892 11.6463C11.8216 11.7546 11.7317 11.8479 11.6275 11.921C11.5754 11.9577 11.5197 11.9891 11.4611 12.0148C11.344 12.0663 11.215 12.0947 11.0798 12.0947C11.0454 12.0947 11.0115 12.0929 10.978 12.0891C10.9701 12.0882 10.9626 12.0865 10.9549 12.0854C10.9293 12.0821 10.9039 12.0784 10.879 12.073C10.872 12.0715 10.8654 12.0692 10.8584 12.0676C10.8328 12.0614 10.8073 12.0549 10.7826 12.0467C10.7781 12.0453 10.7737 12.0432 10.7692 12.0415C10.7425 12.0322 10.7158 12.0222 10.6902 12.0105C10.6879 12.0094 10.6857 12.0082 10.6834 12.0071C10.6556 11.9943 10.6284 11.9805 10.6023 11.9651C10.6019 11.9649 10.6014 11.9645 10.601 11.9644C10.5166 11.9151 10.44 11.8531 10.3735 11.781L7.56254 11.0687H4.49489C4.48163 11.0929 4.46712 11.1163 4.45423 11.1407C4.43076 11.1848 4.40873 11.2296 4.38616 11.274C4.33064 11.3834 4.27691 11.4939 4.2264 11.606C4.20848 11.6454 4.19075 11.6848 4.17356 11.7246C4.11176 11.8673 4.05284 12.0114 3.99892 12.1574C3.99659 12.1639 3.99391 12.1702 3.99158 12.1767C3.9305 12.3441 3.87444 12.5133 3.82411 12.6841C3.75963 12.9031 3.7041 13.1244 3.65771 13.3472C4.14078 14.8766 5.08022 16.1907 6.30857 17.117C6.34422 17.144 6.38201 17.168 6.41819 17.1942C6.62596 17.345 6.84054 17.486 7.06335 17.6141C7.35566 17.782 7.65962 17.9312 7.97486 18.0569Z" fill="white"/>
<path d="M13.0088 15.7055C12.9977 15.7866 12.99 15.8664 12.9878 15.9433C12.9835 16.0834 12.9929 16.2163 13.0126 16.3421C13.0256 16.4259 13.0432 16.5065 13.0643 16.5834C13.096 16.6991 13.1358 16.8072 13.1804 16.907C13.2248 17.0069 13.2741 17.0986 13.3246 17.1819C13.3414 17.2096 13.3584 17.2364 13.3754 17.2622C13.4011 17.3009 13.4267 17.3374 13.4519 17.3716C13.4854 17.4172 13.5178 17.4571 13.5492 17.4947C13.683 17.6544 13.7883 17.7413 13.7883 17.7413C13.7883 17.7413 13.789 17.7439 13.7904 17.7484C13.7919 17.7528 13.794 17.7595 13.7965 17.7675C13.8114 17.7658 13.8265 17.7629 13.8413 17.7608C14.1664 17.7186 14.494 17.6271 14.8171 17.5064C14.9819 17.4449 15.146 17.3781 15.3075 17.3017C15.3568 17.2782 15.405 17.2524 15.4539 17.2278C17.1241 16.3893 18.5226 14.9062 18.5226 14.9062C16.4238 15.9766 14.3727 15.934 13.0088 15.7055Z" fill="#9F2255"/>
<path d="M17.034 12.7841C16.9009 12.6026 16.7667 12.4216 16.6308 12.242C16.6238 12.2327 16.6166 12.2236 16.6097 12.2143C16.4665 12.0251 16.3216 11.8373 16.1748 11.6511C16.173 11.6489 16.1712 11.6465 16.1692 11.6443C16.0181 11.4531 15.8649 11.2636 15.7091 11.0767C15.6992 11.0648 15.6894 11.0529 15.6794 11.041C15.5841 10.9272 15.4872 10.8147 15.3899 10.7027C15.3561 10.664 15.3224 10.6253 15.2883 10.5868C15.2076 10.4953 15.1261 10.4048 15.0437 10.315C14.9796 10.2452 14.9147 10.1766 14.8497 10.108C14.7884 10.0432 14.7274 9.97797 14.6652 9.91419C14.5314 9.7775 14.3962 9.64249 14.2579 9.51101C14.1967 9.45298 14.1347 9.3957 14.072 9.33936C14.0716 9.3401 14.0715 9.34066 14.0711 9.34121C14.2029 9.73435 14.3532 10.1325 14.4284 10.5424C14.448 10.649 14.4643 10.7529 14.4773 10.8543C14.6609 12.2734 14.223 13.1999 13.5273 14.4187C13.4775 14.5061 13.4263 14.5949 13.374 14.6856C13.2149 14.9608 13.113 15.2216 13.0541 15.4665C13.0344 15.5481 13.0195 15.6279 13.0088 15.7058C14.3727 15.9344 16.4237 15.977 18.5222 14.9064C18.5222 14.9064 18.1108 14.2783 17.4914 13.4151C17.353 13.222 17.2134 13.0292 17.0728 12.8369C17.0599 12.819 17.0469 12.8015 17.034 12.7841Z" fill="#E2066F"/>
<path d="M13.7882 17.7411C13.7882 17.7411 13.6829 17.6545 13.5491 17.4945C13.5177 17.457 13.4855 17.417 13.4518 17.3714C13.4266 17.3372 13.401 17.3007 13.3753 17.2621C13.3583 17.2362 13.3413 17.2094 13.3245 17.1817C13.274 17.0986 13.2247 17.0069 13.1803 16.9069C13.1359 16.807 13.0961 16.6989 13.0642 16.5833C13.0431 16.5061 13.0255 16.4256 13.0125 16.3419C12.9929 16.2162 12.9836 16.0832 12.9877 15.9432C12.9901 15.8662 12.9976 15.7864 13.0087 15.7053C13.0194 15.6274 13.0343 15.5474 13.054 15.466C13.1129 15.2212 13.2149 14.9605 13.3739 14.6851C13.3744 14.6843 13.3748 14.6836 13.3752 14.6828C13.4271 14.593 13.4778 14.5049 13.5272 14.4184C14.2227 13.1996 14.6606 12.2731 14.4772 10.8539C14.4642 10.7526 14.4479 10.6488 14.4283 10.5421C14.418 10.6157 14.4072 10.6791 14.3963 10.7325C14.3952 10.7377 14.3941 10.7425 14.3931 10.7475C14.3861 10.7799 14.3791 10.8093 14.3719 10.8312C14.0698 11.7596 13.5673 12.4813 12.8831 13.2526C12.7904 13.3571 12.6933 13.4631 12.5939 13.57C12.4266 13.75 12.2512 13.934 12.0655 14.1259C11.9915 14.2023 11.9159 14.28 11.8391 14.3591C11.7685 14.4316 11.6757 14.5305 11.571 14.6447C11.5063 14.8327 11.4327 15.0447 11.3707 15.2675C11.3428 15.2566 11.3161 15.2467 11.2874 15.2352C9.95806 14.7013 9.06787 13.9879 9.06787 13.9879C9.06787 13.9879 9.75262 14.9138 10.9065 15.7829C11.0182 15.8671 11.1282 15.9398 11.2362 16.0045C11.1886 16.7867 11.521 17.5379 13.0212 17.7618C13.2749 17.7997 13.5346 17.7978 13.7963 17.7672C13.7936 17.7592 13.7916 17.7525 13.7902 17.748C13.7889 17.7437 13.7882 17.7411 13.7882 17.7411Z" fill="black"/>
</svg>
