<svg width="88" height="26" viewBox="0 0 88 26" fill="none" xmlns="http://www.w3.org/2000/svg">
<g clip-path="url(#clip0_17427_3063)">
<path d="M70.1288 21.7895H17.5303L21.7256 26L70.1288 21.7895Z" fill="#BF0000"/>
<path d="M78.5717 19.1052V10.6842C78.5717 9.10523 79.673 7.78944 81.2462 7.78944C82.8194 7.78944 83.9207 9.10523 83.9207 10.6842V19.1052H87.1721V10.6842C87.1721 7.21049 84.8122 4.42102 81.3511 4.42102C79.7778 4.42102 78.5717 5.31576 78.5717 5.31576V4.73681H75.3203V19.0526H78.5717V19.1052Z" fill="#BF0000"/>
<path d="M67.8214 4.36835C64.0456 4.36835 61.3711 7.68414 61.3711 11.8947C61.3711 16.3157 64.7273 19.421 68.136 19.421C69.8666 19.421 72.0167 18.842 73.8521 16.2105L70.9678 14.5262C68.7653 17.7894 65.042 16.1578 64.6224 12.842H73.957C74.796 7.7894 71.4922 4.36835 67.8214 4.36835ZM70.6532 10.0526H64.8322C65.5139 6.73677 70.0239 6.52624 70.6532 10.0526Z" fill="#BF0000"/>
<path d="M60.3222 15.6842C60.0076 15.8947 59.6405 16.0526 59.221 16.0526C58.6965 16.0526 57.7002 15.6315 57.7002 14.3157V8.15784H60.4795V4.73678H57.7002V1.15784H54.4488V4.73678H52.7183V8.15784H54.4488V14.3157C54.4488 17.5263 56.8611 19.421 59.2734 19.421C60.1649 19.421 61.4235 19.1052 62.4199 18.5263L60.3222 15.6842Z" fill="#BF0000"/>
<path d="M48.3655 4.73682V13.1579C48.3655 14.7368 47.2642 16.0526 45.691 16.0526C44.1178 16.0526 43.0165 14.7368 43.0165 13.1579V4.73682H39.7651V13.1579C39.7651 16.6316 42.125 19.421 45.5861 19.421C47.1594 19.421 48.3655 18.5263 48.3655 18.5263V19.0526H51.6169V4.73682H48.3655Z" fill="#BF0000"/>
<path d="M33.6817 11.4737L39.2405 4.73684H34.7306L30.7975 9.73684V0H27.4937V19.1053H30.7975V13.2105L35.6221 19.1053H40.132L33.6817 11.4737Z" fill="#BF0000"/>
<path d="M22.4071 4.73677V5.36835C21.4107 4.73677 20.5717 4.36835 19.3655 4.36835C15.6946 4.36835 12.8628 7.73677 12.8628 11.8947C12.8628 16.0526 15.6422 19.421 19.3655 19.421C20.5717 19.421 21.4632 19.0526 22.4071 18.421V19.0526H25.6585V4.73677H22.4071ZM19.3131 15.9999C17.4776 15.9999 16.1666 14.2105 16.1666 11.9473C16.1666 9.68414 17.4776 7.89466 19.3131 7.89466C21.1485 7.89466 22.4071 9.68414 22.4071 11.9473C22.4595 14.2105 21.1485 15.9999 19.3131 15.9999Z" fill="#BF0000"/>
<path d="M3.52831 19.1052V13.5263H5.88817L10.031 19.0526H14.2788L9.2444 12.3684C10.8176 11.2631 11.814 9.421 11.814 7.31573C11.814 3.89468 9.03464 1.15784 5.6784 1.15784H0.119629V19.0526H3.52831V19.1052ZM3.52831 4.57889H5.73084C7.25164 4.57889 8.51023 5.84205 8.51023 7.36837C8.51023 8.89468 7.25164 10.1578 5.73084 10.1578H3.52831V4.57889Z" fill="#BF0000"/>
</g>
<defs>
<clipPath id="clip0_17427_3063">
<rect width="87" height="26" fill="white" transform="translate(0.119629)"/>
</clipPath>
</defs>
</svg>
