<svg width="59" height="35" viewBox="0 0 59 35" fill="none" xmlns="http://www.w3.org/2000/svg">
<g clip-path="url(#clip0_17812_8434)">
<path d="M56.5772 6.21552C48.469 2.11207 38.8221 0 29.5303 0C20.2976 0 10.2956 2.2931 2.48333 6.21552C1.06293 6.93966 0.530273 7.60345 0.530273 8.68966V33.1293C0.530273 34.5172 0.885375 35 1.8915 35H57.0507C58.0568 35 58.5303 34.5776 58.5303 33.1293V8.68966C58.5303 7.60345 58.3527 7.06034 56.5772 6.21552Z" fill="#009FDA"/>
<path d="M43.3795 32.3448L37.4612 30.8966V25.4655C36.3959 24.1983 33.7918 22.569 29.5306 22.569C25.2693 22.569 22.8428 24.319 21.8367 25.5259V30.8966L16.9836 32.0431L2.06934 35H57.051L43.3795 32.3448Z" fill="#8DCC02"/>
<path d="M25.5056 6.09479H24.5586V9.35341C24.5586 10.3793 24.026 10.9224 23.1974 10.9224C22.3097 10.9224 21.777 10.3793 21.777 9.29307V6.09479H20.8301V9.35341C20.8301 10.9827 21.7178 11.8275 23.1974 11.8275C24.6178 11.8275 25.5648 10.9827 25.5648 9.29307C25.5056 9.29307 25.5056 6.09479 25.5056 6.09479ZM34.3831 6.99996H35.4484C36.5729 6.99996 37.3423 7.84479 37.3423 8.931C37.3423 10.0775 36.5729 10.862 35.4484 10.862H34.3831C34.3831 10.9224 34.3831 6.99996 34.3831 6.99996ZM38.2892 8.99134C38.2892 7.36203 37.1056 6.09479 35.3892 6.09479H33.377V11.8275H35.4484C37.1056 11.8275 38.2892 10.5603 38.2892 8.99134ZM41.4852 11.8275C42.9056 11.8275 43.8525 10.9827 43.8525 9.29307V6.09479H42.9056V9.35341C42.9056 10.3793 42.3729 10.9224 41.5443 10.9224C40.6566 10.9224 40.1239 10.3793 40.1239 9.29307V6.09479H39.177V9.35341C39.1178 10.9827 40.0648 11.8275 41.4852 11.8275ZM27.1627 8.32755C27.2219 7.24134 27.9321 6.75858 28.6423 6.75858C29.5301 6.75858 29.9443 7.36203 29.9443 8.32755C29.0566 8.56893 28.1688 8.44824 27.1627 8.32755ZM28.6423 5.91376C27.2219 5.91376 26.1566 6.93962 26.1566 8.931C26.1566 10.681 27.0443 11.8275 28.7015 11.8275C30.0035 11.8275 30.7137 10.9827 30.7137 10.9827L30.1811 10.3189C30.1811 10.3189 29.5892 10.862 28.7607 10.862C27.8137 10.862 27.1627 10.3189 27.1035 9.11203C28.4056 9.35341 29.6484 9.29307 30.8321 8.931C31.0688 6.99996 30.0627 5.91376 28.6423 5.91376ZM9.46679 18.9482C8.40149 18.9482 7.6321 18.0431 7.6321 16.8965C7.6321 15.75 8.40149 14.9051 9.46679 14.9051C10.1178 14.9051 10.5913 15.2069 11.0056 15.6293L11.6566 14.9051C11.1239 14.362 10.5321 14 9.46679 14C7.80965 14 6.62598 15.3275 6.62598 16.9569C6.62598 18.5862 7.80965 19.9138 9.46679 19.9138C10.5321 19.9138 11.1239 19.4913 11.7158 18.8879L11.0648 18.2241C10.5321 18.6465 10.1178 18.9482 9.46679 18.9482ZM16.5688 16.8965C16.5688 17.9827 15.7994 18.8879 14.7341 18.8879C13.6688 18.8879 12.8994 17.9827 12.8994 16.8362C12.8994 15.75 13.6688 14.8448 14.7341 14.8448C15.7994 14.8448 16.5688 15.75 16.5688 16.8965ZM14.675 13.9396C13.0178 13.9396 11.775 15.2672 11.775 16.8965C11.775 18.5258 12.9586 19.8534 14.6158 19.8534C16.2729 19.8534 17.5158 18.5258 17.5158 16.8965C17.575 15.2672 16.3913 13.9396 14.675 13.9396ZM21.2443 16.4138C20.179 15.3879 19.528 13.9396 19.528 13.9396H18.4035V19.6724H19.3505V15.4482C19.3505 15.4482 19.9423 16.5948 20.8892 17.4396H21.5403C22.3688 16.7758 23.1382 15.4482 23.1382 15.4482V19.6724H24.1443V13.9396H23.0199C23.0199 13.9396 22.2505 15.5086 21.2443 16.4138ZM27.9913 16.4138C26.926 15.3879 26.275 13.9396 26.275 13.9396H25.2097V19.6724H26.1566V15.4482C26.1566 15.4482 26.7484 16.5948 27.6954 17.4396H28.3464C29.175 16.7758 29.9443 15.4482 29.9443 15.4482V19.6724H30.9505V13.9396H29.8852C29.7668 13.9396 28.9974 15.5086 27.9913 16.4138ZM45.2137 18.9482C44.1484 18.9482 43.379 18.0431 43.379 16.8965C43.379 15.75 44.1484 14.9051 45.2137 14.9051C45.8648 14.9051 46.3382 15.2069 46.7525 15.6293L47.4035 14.9051C46.8709 14.362 46.279 14 45.2137 14C43.5566 14 42.3729 15.3275 42.3729 16.9569C42.3729 18.5862 43.5566 19.9138 45.2137 19.9138C46.2199 19.9138 46.8709 19.4913 47.4627 18.8879L46.8117 18.2241C46.279 18.6465 45.8648 18.9482 45.2137 18.9482ZM38.0525 14.8448H39.7097C40.4199 14.8448 40.8341 15.2069 40.8341 15.8103C40.8341 16.4138 40.3607 16.7758 39.5321 16.7758C38.9995 16.7758 38.4076 16.7155 38.0525 16.6551V14.8448ZM41.8403 15.75C41.8403 15.2069 41.6627 14.7844 41.3668 14.4827C41.0117 14.1207 40.479 13.8793 39.7688 13.8793H37.0464V19.612H37.9933V17.5C38.3484 17.5603 38.8219 17.6207 39.3546 17.6207L40.775 19.612H41.8995L40.3607 17.5C41.2484 17.3189 41.8403 16.7155 41.8403 15.75ZM32.726 16.3534C32.7852 15.2672 33.4954 14.7844 34.2056 14.7844C35.0933 14.7844 35.5076 15.3879 35.5076 16.3534C34.6199 16.5344 33.7321 16.4741 32.726 16.3534ZM34.2056 13.9396C32.7852 13.9396 31.7199 14.9655 31.7199 16.9569C31.7199 18.7069 32.6076 19.8534 34.2648 19.8534C35.5668 19.8534 36.277 19.0086 36.277 19.0086L35.8035 18.3448C35.8035 18.3448 35.2117 18.9482 34.3239 18.9482C33.377 18.9482 32.726 18.4051 32.6668 17.1982C33.9688 17.4396 35.2117 17.3793 36.3954 17.0172C36.6321 14.9655 35.626 13.9396 34.2056 13.9396ZM16.1545 6.99996H17.8117C18.5219 6.99996 18.9362 7.36203 18.9362 7.96548C18.9362 8.56893 18.4627 8.931 17.6341 8.931C17.1015 8.931 16.5097 8.87065 16.1545 8.81031V6.99996ZM16.1545 9.95686V9.71548C16.628 9.77583 17.0423 9.83617 17.5158 9.83617L18.9362 11.8275H20.0607L18.5219 9.71548C19.2913 9.4741 19.8831 8.87065 19.8831 7.90514C19.8831 7.42238 19.7056 6.99996 19.4097 6.6379C19.0545 6.27583 18.5219 6.03445 17.8117 6.03445H15.0892V11.7672H16.0362C16.1545 11.8275 16.1545 9.95686 16.1545 9.95686ZM48.7056 16.3534C48.7648 15.2672 49.475 14.7844 50.1852 14.7844C51.0729 14.7844 51.4872 15.3879 51.4872 16.3534C50.6586 16.5344 49.7117 16.4741 48.7056 16.3534ZM52.4341 17.0172C52.6709 15.0258 51.6648 13.9396 50.2443 13.9396C48.8239 13.9396 47.7586 14.9655 47.7586 16.9569C47.7586 18.7069 48.6464 19.8534 50.3035 19.8534C51.6056 19.8534 52.3158 19.0086 52.3158 19.0086L51.7831 18.3448C51.7831 18.3448 51.1913 18.8879 50.3627 18.8879C49.4158 18.8879 48.7648 18.3448 48.7056 17.1379C50.0668 17.3793 51.3097 17.3189 52.4341 17.0172ZM34.5015 27.6982L31.6607 24.8017H31.6015C31.6015 24.8017 31.5423 24.8017 31.5423 24.862V24.9224C31.779 25.2844 32.0158 25.7672 32.0158 26.3707C32.0158 26.9741 31.6607 27.4569 31.128 27.4569C30.7137 27.4569 30.2994 27.0344 30.2994 26.4913C30.2994 26.1896 30.4178 25.8879 30.7137 25.5862C30.7729 25.5258 30.7729 25.4655 30.7729 25.4051C30.7729 25.0431 30.1811 24.6207 29.5301 24.6207C28.4056 24.6207 27.9913 26.25 27.9913 28.2413C27.9913 30.2327 28.4056 31.9224 29.5301 31.9224C30.1811 31.9224 30.7729 31.5 30.7729 31.1379C30.7729 31.0775 30.7137 30.9569 30.7137 30.9569C30.4178 30.6551 30.2994 30.2931 30.2994 30.0517C30.2994 29.5086 30.7137 29.0862 31.128 29.0862C31.6607 29.0862 32.0158 29.5689 32.0158 30.1724C32.0158 30.7758 31.779 31.2586 31.5423 31.6207V31.681C31.5423 31.681 31.5423 31.7413 31.6015 31.7413H31.6607L34.5015 28.8448C34.6199 28.7241 34.7382 28.5431 34.7382 28.362C34.7382 28 34.679 27.8189 34.5015 27.6982ZM27.6362 24.8017C27.6362 24.8017 27.577 24.7413 27.6362 24.8017C27.577 24.7413 27.577 24.7413 27.5178 24.8017L24.677 27.6982C24.5586 27.8189 24.4403 28 24.4403 28.181C24.4403 28.4224 24.5586 28.5431 24.677 28.6638L27.5178 31.5603H27.577C27.577 31.5603 27.6362 31.5603 27.6362 31.5V31.4396C26.9852 30.5344 26.5117 29.5086 26.5117 28.1207C26.4525 26.7931 26.926 25.7672 27.6362 24.8017C27.577 24.862 27.577 24.862 27.6362 24.8017Z" fill="white"/>
</g>
<defs>
<clipPath id="clip0_17812_8434">
<rect width="58" height="35" fill="white" transform="translate(0.530273)"/>
</clipPath>
</defs>
</svg>
