<svg width="135" height="39" viewBox="0 0 135 39" fill="none" xmlns="http://www.w3.org/2000/svg">
<path d="M29.1406 7.25968C29.1145 7.06929 28.9482 6.96366 28.8101 6.95216C28.6731 6.94066 25.9892 6.89988 25.9892 6.89988C25.9892 6.89988 23.7445 4.72007 23.5227 4.49833C23.301 4.27658 22.868 4.34352 22.6996 4.39373C22.6975 4.39478 22.2781 4.52448 21.5721 4.74308C21.4539 4.36026 21.2802 3.88957 21.0323 3.41679C20.2332 1.89177 19.0628 1.08533 17.6486 1.08325C17.6465 1.08325 17.6454 1.08325 17.6434 1.08325C17.545 1.08325 17.4478 1.09266 17.3495 1.10102C17.3076 1.05082 17.2658 1.00166 17.2219 0.953541C16.6058 0.294584 15.8161 -0.0265281 14.8695 0.00171298C13.0432 0.0540114 11.2243 1.37298 9.74949 3.71594C8.71188 5.36439 7.92216 7.43543 7.69834 9.03888C5.60116 9.68841 4.13471 10.1423 4.10228 10.1528C3.04376 10.4854 3.0103 10.5178 2.87223 11.5157C2.76972 12.2698 0 33.6871 0 33.6871L23.2111 37.7015L33.2711 35.2006C33.2711 35.2006 29.1668 7.45007 29.1406 7.25968ZM20.41 5.10289C19.8755 5.26816 19.2677 5.45643 18.6088 5.6604C18.5952 4.73576 18.4854 3.44922 18.0544 2.33736C19.4403 2.5999 20.1223 4.1678 20.41 5.10289ZM17.3944 6.03694C16.178 6.41347 14.8506 6.82454 13.5191 7.23668C13.8936 5.80265 14.6038 4.3749 15.4762 3.43876C15.8004 3.09046 16.2543 2.7024 16.7919 2.48065C17.2971 3.53499 17.407 5.02759 17.3944 6.03694ZM14.906 1.21712C15.3349 1.20771 15.6958 1.30185 16.0044 1.50477C15.5107 1.76103 15.0337 2.12921 14.586 2.60931C13.426 3.85401 12.5369 5.78591 12.1824 7.64983C11.0768 7.99184 9.99524 8.32764 8.99948 8.63516C9.62815 5.70119 12.0872 1.29871 14.906 1.21712Z" fill="#95BF47"/>
<path d="M28.8107 6.95327C28.6737 6.94177 25.9898 6.90099 25.9898 6.90099C25.9898 6.90099 23.7451 4.72118 23.5234 4.49944C23.4408 4.4168 23.3289 4.37392 23.2117 4.35614L23.2127 37.7006L33.2718 35.2007C33.2718 35.2007 29.1674 7.45118 29.1413 7.26079C29.1151 7.0704 28.9478 6.96477 28.8107 6.95327Z" fill="#5E8E3E"/>
<path d="M17.6359 12.1256L16.4676 16.4967C16.4676 16.4967 15.1643 15.9036 13.6194 16.0009C11.3538 16.1442 11.3297 17.573 11.3528 17.9318C11.4762 19.8867 16.6192 20.3135 16.9079 24.8927C17.1349 28.495 14.9969 30.9593 11.9166 31.1538C8.21904 31.3871 6.18359 29.2062 6.18359 29.2062L6.96704 25.8738C6.96704 25.8738 9.01605 27.4198 10.6561 27.3162C11.7272 27.2482 12.11 26.3769 12.0713 25.7608C11.9103 23.2108 7.7222 23.3614 7.4576 19.1712C7.23478 15.6453 9.5506 12.0723 14.6601 11.7501C16.6286 11.6236 17.6359 12.1256 17.6359 12.1256Z" fill="white"/>
<path d="M46.5186 21.2785C45.3619 20.6509 44.7674 20.1218 44.7674 19.3945C44.7674 18.4691 45.5932 17.8746 46.8828 17.8746C48.3839 17.8746 49.7243 18.5023 49.7243 18.5023L50.7814 15.2634C50.7814 15.2634 49.8093 14.503 46.9481 14.503C42.9664 14.503 40.2068 16.7832 40.2068 19.9889C40.2068 21.8065 41.4953 23.1946 43.2143 24.1854C44.6025 24.978 45.0984 25.5403 45.0984 26.3661C45.0984 27.2251 44.4043 27.9191 43.1158 27.9191C41.1955 27.9191 39.3821 26.9273 39.3821 26.9273L38.2585 30.1662C38.2585 30.1662 39.934 31.2898 42.7527 31.2898C46.8506 31.2898 49.7918 29.274 49.7918 25.6388C49.7907 23.6905 48.3041 22.3024 46.5186 21.2785Z" fill="black"/>
<path d="M62.844 14.4709C60.8281 14.4709 59.2419 15.4295 58.0198 16.883L57.9534 16.8497L59.7045 7.69641H55.144L50.7162 30.9931H55.2768L56.7966 23.0297C57.3911 20.0222 58.9441 18.1725 60.3986 18.1725C61.4225 18.1725 61.8199 18.8665 61.8199 19.8583C61.8199 20.486 61.7535 21.2464 61.6217 21.8741L59.9037 30.9942H64.4646L66.2485 21.5763C66.447 20.5845 66.5796 19.3956 66.5796 18.602C66.5777 16.0239 65.223 14.4709 62.844 14.4709Z" fill="black"/>
<path d="M76.8875 14.4709C71.4013 14.4709 67.7675 19.4278 67.7675 24.9459C67.7675 28.4815 69.9479 31.3231 74.046 31.3231C79.4323 31.3231 83.0674 26.499 83.0674 20.848C83.0674 17.577 81.1502 14.4709 76.8875 14.4709ZM74.6404 27.8217C73.0871 27.8217 72.4261 26.5 72.4261 24.8474C72.4261 22.2371 73.7815 17.9744 76.2597 17.9744C77.879 17.9744 78.4068 19.3624 78.4068 20.7173C78.4068 23.5257 77.0533 27.8217 74.6404 27.8217Z" fill="black"/>
<path d="M94.7327 14.4709C91.6544 14.4709 89.9075 17.1807 89.9075 17.1807H89.8422L90.1067 14.7354H86.0752C85.8773 16.3881 85.5128 18.8987 85.1502 20.7827L81.9777 37.4699H86.5383L87.7931 30.7286H87.893C87.893 30.7286 88.8287 31.3231 90.5698 31.3231C95.9228 31.3231 99.4253 25.8381 99.4253 20.2858C99.4253 17.2139 98.0699 14.4709 94.7327 14.4709ZM90.3707 27.887C89.1868 27.887 88.4862 27.2262 88.4862 27.2262L89.2465 22.9634C89.7756 20.1218 91.2623 18.2378 92.8489 18.2378C94.2369 18.2378 94.6661 19.5263 94.6661 20.7495C94.6661 23.6906 92.9149 27.887 90.3707 27.887Z" fill="black"/>
<path d="M105.935 7.92773C104.481 7.92773 103.325 9.08448 103.325 10.5711C103.325 11.926 104.184 12.8514 105.472 12.8514H105.538C106.96 12.8514 108.182 11.8928 108.215 10.208C108.215 8.8863 107.323 7.92773 105.935 7.92773Z" fill="black"/>
<path d="M99.5579 30.9931H104.117L107.224 14.835H102.631L99.5579 30.9931Z" fill="black"/>
<path d="M118.823 14.8018H115.65L115.815 14.0413C116.079 12.4883 117.005 11.1002 118.525 11.1002C119.336 11.1002 119.978 11.3315 119.978 11.3315L120.871 7.76276C120.871 7.76276 120.078 7.36646 118.392 7.36646C116.773 7.36646 115.155 7.82912 113.931 8.88627C112.378 10.208 111.651 12.1241 111.288 14.0413L111.156 14.8018H109.041L108.38 18.2388H110.495L108.083 30.9941H112.644L115.056 18.2388H118.195L118.823 14.8018Z" fill="black"/>
<path d="M129.794 14.8351C129.794 14.8351 126.943 22.0173 125.663 25.9378H125.596C125.51 24.6752 124.473 14.8351 124.473 14.8351H119.681L122.425 29.6715C122.492 30.0014 122.458 30.2006 122.326 30.4319C121.796 31.4559 120.904 32.4477 119.847 33.175C118.988 33.8026 118.03 34.1989 117.27 34.4634L118.525 38.3299C119.451 38.1318 121.367 37.3714 122.986 35.8515C125.069 33.9022 126.984 30.8946 128.967 26.7967L134.552 14.834H129.794V14.8351Z" fill="black"/>
</svg>
