<svg width="178" height="24" viewBox="0 0 178 24" fill="none" xmlns="http://www.w3.org/2000/svg">
<path d="M110.248 8.53398C109.289 7.47998 107.542 6.83398 106.104 6.83398C104.871 6.83398 103.33 7.10598 102.371 8.05798V6.83398H100.35V23.63H102.371V17.476C103.364 18.462 104.905 18.836 106.138 18.836C107.679 18.802 109.152 18.156 110.248 17.034C111.207 15.946 111.721 14.518 111.686 13.09C111.686 11.492 111.207 9.62198 110.248 8.53398ZM106.001 16.864C103.98 16.864 102.371 15.096 102.371 12.886C102.371 10.676 103.98 8.90798 106.001 8.90798C108.022 8.90798 109.631 10.676 109.631 12.886C109.631 15.096 108.022 16.864 106.001 16.864Z" fill="black"/>
<path d="M119.7 4.18197C119.7 3.80797 119.837 3.43397 120.111 3.16197C120.659 2.61797 121.55 2.58397 122.132 3.12797L122.166 3.16197C122.44 3.43397 122.612 3.80797 122.577 4.18197C122.577 4.55597 122.44 4.92997 122.166 5.20197C121.892 5.47397 121.55 5.64397 121.139 5.60997C120.762 5.60997 120.385 5.47397 120.111 5.20197C119.837 4.92997 119.7 4.58997 119.7 4.18197ZM122.269 6.83397V18.836H120.043V6.83397H122.269Z" fill="black"/>
<path d="M125.626 6.83398L129.119 14.382L132.476 6.83398H134.667L129.119 18.836L123.468 6.83398H125.626Z" fill="black"/>
<path d="M145.353 12.852C145.353 9.55398 142.853 6.86798 139.771 6.86798C136.688 6.86798 134.188 9.55398 134.188 12.852C134.188 16.15 136.688 18.836 139.771 18.836C142.1 18.802 144.154 17.306 144.942 15.164L143.401 14.28L143.367 14.314C143.367 14.314 142.1 17.102 139.702 16.864C136.517 16.932 136.209 13.532 136.209 13.532V13.43H136.174H145.353C145.353 13.226 145.353 13.022 145.353 12.852ZM136.346 11.458C136.517 9.99598 137.955 8.87398 139.736 8.87398C141.517 8.87398 142.956 9.99598 143.127 11.458H136.346Z" fill="black"/>
<path d="M53.7711 8.97598C53.9081 8.90798 54.0793 8.90798 54.2163 8.90798C54.593 8.90798 54.9355 9.07798 55.2095 9.34998L56.3055 7.41198C55.7575 7.07198 55.141 6.86798 54.5245 6.86798C54.1478 6.86798 53.7711 6.93598 53.4286 7.10598C53.1203 7.24198 52.8121 7.41198 52.5724 7.64998V6.86798H50.4832V18.87H52.6751V10.948C52.6408 9.82598 53.1888 9.14598 53.7711 8.97598Z" fill="black"/>
<path d="M18.5287 8.228C17.9807 7.514 17.1587 7.072 16.2682 6.97C15.9942 6.902 15.7203 6.868 15.412 6.868C14.4873 6.868 13.5626 7.14 12.8091 7.684C12.6036 7.82 12.3981 7.99 12.2268 8.194C12.1584 8.262 12.0899 8.364 12.0214 8.432V0H9.55542V18.836H12.1583C12.1583 18.836 12.1583 11.288 12.1583 11.22C12.1583 10.03 13.2543 9.044 14.59 9.044C15.823 8.976 16.8505 9.928 16.919 11.152C16.919 11.186 16.919 11.186 16.919 11.22C16.919 11.288 16.919 18.836 16.919 18.836H19.3507V12.07C19.3849 10.506 19.1794 8.942 18.5287 8.228Z" fill="black"/>
<path d="M5.20586 9.758C4.96612 9.18 4.38388 8.806 3.7674 8.772C3.15092 8.772 2.60293 9.248 2.56868 9.894C2.56868 10.88 3.87015 11.322 5.20586 11.934C6.54158 12.546 7.84304 13.362 7.84304 15.13C7.80879 17.238 6.09634 18.904 3.97289 18.87H3.93864C2.29469 18.87 0.616484 17.918 0 16.354L1.8837 15.504C2.32894 16.354 2.91117 16.932 3.93864 16.932C4.82912 16.966 5.61685 16.286 5.6511 15.402C5.6511 15.368 5.6511 15.368 5.6511 15.334C5.6511 14.722 5.37711 14.45 4.86337 14.11L2.73993 12.988C1.47271 12.308 0.547985 11.696 0.547985 10.132C0.547985 8.33 2.05494 6.834 3.87015 6.868C3.87015 6.868 3.87015 6.868 3.9044 6.868C5.24011 6.868 6.47308 7.616 7.02106 8.84L5.20586 9.758Z" fill="black"/>
<path d="M153.196 12.954C153.196 14.28 152.1 15.368 150.764 15.368C149.429 15.368 148.333 14.28 148.333 12.954C148.333 11.628 149.429 10.54 150.764 10.54C152.1 10.54 153.196 11.628 153.196 12.954Z" fill="#F71073"/>
<path d="M37.5369 13.498L40.6536 6.83398L43.736 13.498L46.8184 6.83398H49.1131L43.736 18.836L40.6536 11.084L37.5369 18.836L32.1941 6.83398H34.4888L37.5369 13.498Z" fill="black"/>
<path d="M26.4402 6.83398C23.118 6.83398 20.4124 9.51998 20.4124 12.818C20.4124 16.116 23.118 18.802 26.4402 18.802C29.7624 18.802 32.468 16.116 32.468 12.818C32.468 9.51998 29.7624 6.83398 26.4402 6.83398ZM26.4402 16.592C24.3167 16.592 22.6043 14.892 22.6043 12.784C22.6043 10.676 24.3167 8.97598 26.4402 8.97598C28.5636 8.97598 30.2761 10.676 30.2761 12.784C30.2418 14.892 28.5636 16.592 26.4402 16.592Z" fill="black"/>
<path d="M95.007 6.83401C93.6371 6.80001 92.3356 7.44601 91.5479 8.56801C90.8971 7.48001 89.6984 6.83401 88.397 6.83401C87.8832 6.80001 87.3695 6.90201 86.9242 7.14001C86.4105 7.44601 85.9653 7.82001 85.5885 8.22801V6.83401H83.4651V18.836H85.52V11.016C85.52 11.016 85.7598 8.87401 87.7805 8.63601C88.9449 8.84001 89.8012 9.82601 89.8354 11.016V18.836H92.1644V11.016C92.1644 11.016 92.3699 8.87401 94.4248 8.63601C95.5893 8.84001 96.4455 9.82601 96.4797 11.016V18.836H98.6032V11.628C98.5689 8.43201 96.7195 6.83401 95.007 6.83401Z" fill="black"/>
<path d="M116.687 8.97598C116.824 8.90798 116.995 8.90798 117.132 8.90798C117.509 8.90798 117.851 9.07798 118.125 9.34998L119.221 7.41198C118.673 7.07198 118.057 6.86798 117.44 6.86798C117.063 6.86798 116.687 6.93598 116.344 7.10598C116.036 7.24198 115.728 7.41198 115.488 7.64998V6.86798H113.365V18.87H115.556V10.948C115.556 9.82598 116.104 9.14598 116.687 8.97598Z" fill="black"/>
<path d="M62.9841 6.83398C59.662 6.83398 56.9563 9.51998 56.9563 12.818C56.9563 16.116 59.662 18.802 62.9841 18.802C66.3063 18.802 69.012 16.116 69.012 12.818C69.0462 9.51998 66.3405 6.83398 62.9841 6.83398ZM62.9841 16.592C60.8607 16.592 59.1482 14.892 59.1482 12.784C59.1482 10.676 60.8607 8.97598 62.9841 8.97598C65.1076 8.97598 66.82 10.676 66.82 12.784C66.82 14.858 65.1418 16.592 62.9841 16.592Z" fill="black"/>
<path d="M76.2041 6.83398C72.8819 6.83398 70.1763 9.51998 70.1763 12.818C70.1763 16.116 72.8819 18.802 76.2041 18.802C79.5263 18.802 82.232 16.116 82.232 12.818C82.232 9.51998 79.5263 6.83398 76.2041 6.83398ZM76.2041 16.592C74.0807 16.592 72.3682 14.892 72.3682 12.784C72.3682 10.676 74.0807 8.97598 76.2041 8.97598C78.3276 8.97598 80.04 10.676 80.04 12.784C80.04 14.892 78.3276 16.592 76.2041 16.592Z" fill="black"/>
<path d="M167.238 12.818C167.238 9.51999 164.738 6.83398 161.656 6.83398C158.573 6.83398 156.073 9.51999 156.073 12.818C156.073 16.116 158.573 18.836 161.656 18.836C163.985 18.836 165.971 17.306 166.827 15.164L165.286 14.28L165.217 14.314C165.217 14.314 163.95 17.068 161.553 16.864C158.368 16.898 158.059 13.532 158.059 13.532V13.43H158.025H167.204C167.238 13.226 167.238 13.022 167.238 12.818ZM158.231 11.458C158.402 9.99599 159.84 8.87398 161.621 8.87398C163.368 8.87398 164.841 9.99599 165.012 11.458H158.231Z" fill="black"/>
<path d="M174.568 9.758C174.294 9.18 173.746 8.806 173.129 8.772C172.513 8.772 171.965 9.248 171.93 9.894C171.93 10.88 173.232 11.322 174.568 11.9C175.903 12.512 177.205 13.328 177.205 15.096C177.17 17.17 175.458 18.87 173.335 18.836C173.3 18.836 173.3 18.836 173.266 18.836C171.622 18.836 169.944 17.884 169.327 16.32L171.211 15.47C171.656 16.32 172.239 16.898 173.266 16.898C174.157 16.932 174.944 16.252 174.979 15.368C174.979 15.334 174.979 15.334 174.979 15.3C174.979 14.688 174.704 14.416 174.191 14.076L172.067 12.954C170.8 12.274 169.875 11.662 169.875 10.098C169.875 8.296 171.382 6.8 173.198 6.834C173.198 6.834 173.198 6.834 173.232 6.834C174.568 6.834 175.8 7.582 176.348 8.806L174.568 9.758Z" fill="black"/>
</svg>
