<svg width="114" height="26" viewBox="0 0 114 26" fill="none" xmlns="http://www.w3.org/2000/svg">
<path d="M0 0.071167H19.0967L17.3434 5.59169H12.3916V25.7309H6.19578V5.59169H0.0118466L0 0.071167Z" fill="black"/>
<path d="M50.3718 0.071167H69.9069L68.1536 5.59169H62.7752V25.7309H56.5913V5.59169H50.3837L50.3718 0.071167Z" fill="black"/>
<path d="M20.2578 8.2334H26.3825V25.7309H20.3052L20.2578 8.2334Z" fill="black"/>
<path d="M28.811 0H34.9239V11.9532L40.9894 6.02993H48.2869L40.6221 13.4696L49.2109 25.7309H42.4702L36.7364 17.2131L34.9239 18.9664V25.7309H28.811V0Z" fill="black"/>
<path d="M93.6001 0H99.784V11.9532L105.838 6.02993H113.135L105.47 13.4696L114 25.7309H107.259L101.537 17.2131L99.784 18.9664V25.7309H93.6593L93.6001 0Z" fill="black"/>
<path d="M23.326 6.23141C25.0271 6.23141 26.4061 4.85239 26.4061 3.15129C26.4061 1.45018 25.0271 0.071167 23.326 0.071167C21.6249 0.071167 20.2458 1.45018 20.2458 3.15129C20.2458 4.85239 21.6249 6.23141 23.326 6.23141Z" fill="black"/>
<path d="M69.1249 15.2584C69.1268 9.79305 73.3312 5.24813 78.7799 4.82153C78.5074 4.82153 78.1402 4.82153 77.8677 4.82153C72.3303 5.14453 68.0051 9.72929 68.0051 15.2762C68.0051 20.8231 72.3303 25.4078 77.8677 25.7308C78.1402 25.7308 78.5074 25.7308 78.7799 25.7308C73.3176 25.3032 69.1082 20.7374 69.1249 15.2584Z" fill="#25F4EE"/>
<path d="M81.1611 4.78605C80.8768 4.78605 80.5095 4.78605 80.2371 4.78605C85.6681 5.23463 89.8474 9.77339 89.8474 15.2229C89.8474 20.6724 85.6681 25.2112 80.2371 25.6598C80.5095 25.6598 80.8768 25.6598 81.1611 25.6598C86.9448 25.6598 91.6335 20.9711 91.6335 15.1874C91.6335 9.40362 86.9448 4.71497 81.1611 4.71497V4.78605Z" fill="#FE2C55"/>
<path d="M79.5027 20.3525C76.6893 20.3525 74.4086 18.0718 74.4086 15.2584C74.4086 12.4451 76.6893 10.1644 79.5027 10.1644C82.316 10.1644 84.5967 12.4451 84.5967 15.2584C84.5902 18.0691 82.3133 20.346 79.5027 20.3525ZM79.5027 4.78601C73.7189 4.78601 69.0303 9.47467 69.0303 15.2584C69.0303 21.0422 73.7189 25.7308 79.5027 25.7308C85.2864 25.7308 89.9751 21.0422 89.9751 15.2584C89.9751 12.481 88.8718 9.81727 86.9078 7.85331C84.9438 5.88935 82.2801 4.78601 79.5027 4.78601Z" fill="black"/>
</svg>
