<svg width="151" height="43" viewBox="0 0 151 43" fill="none" xmlns="http://www.w3.org/2000/svg">
<path d="M150.636 21.3774C150.515 21.2712 150.36 21.2127 150.199 21.2127C150.038 21.2127 149.883 21.2712 149.762 21.3774C149.436 21.6159 149.129 21.8802 148.845 22.1679C148.002 23.2024 147.066 24.1563 146.048 25.0175C145.946 25.1019 145.826 25.1616 145.697 25.1921C145.71 25.0449 145.771 24.9061 145.871 24.7969C147.953 22.4409 149.464 19.635 150.288 16.5976C150.929 14.3484 151.137 11.9971 150.899 9.66995C150.614 7.2442 149.841 4.90181 148.625 2.78517C148.522 2.61489 148.404 2.45393 148.273 2.30412C146.614 3.52972 145.388 5.06171 144.208 6.9001C144.077 6.68256 143.988 6.55081 143.902 6.41905C142.886 4.99976 141.674 3.73283 140.302 2.65648C139.207 1.78018 136.759 0.992733 135.622 0.205289C135.227 -0.10111 135.142 -0.0582166 134.833 0.337038C134.616 0.600541 134.396 0.90694 134.179 1.17044C132.516 3.53584 132.559 6.12491 131.773 8.97442C131.233 10.9014 130.954 12.8924 130.942 14.894C130.925 17.0205 131.194 19.1395 131.743 21.1936C131.789 21.3683 131.831 21.5889 131.874 21.8064C131.22 21.9382 130.606 22.0699 129.994 22.2017C128.777 22.4652 127.631 22.9876 126.632 23.7337C126.112 24.1207 125.68 24.6138 125.364 25.1805C125.047 25.7472 124.855 26.3745 124.798 27.0213C124.731 27.9582 124.865 28.8986 125.192 29.7789C125.453 30.5991 125.92 31.3379 126.55 31.9237C126.461 31.6602 126.372 31.4396 126.287 31.222C125.675 29.69 125.675 28.1979 126.55 26.7946C127.127 25.7745 127.994 24.9499 129.041 24.4261C130.307 23.8015 131.667 23.3876 133.066 23.2005C133.274 23.1576 133.479 23.0993 133.678 23.0259C133.643 22.808 133.629 22.5875 133.635 22.3671C133.357 20.4965 133.255 18.6038 133.329 16.7141C133.388 14.7141 133.742 12.7338 134.378 10.8373C135.038 8.89149 135.963 7.04677 137.129 5.35585C137.392 5.00656 137.392 5.00656 137.786 5.18121C138.268 5.44803 138.735 5.74055 139.186 6.05751C141.461 7.67639 143.138 10.0045 143.954 12.6788C144.518 14.5852 144.783 16.5677 144.74 18.5555C144.802 21.5655 143.831 24.5056 141.989 26.8834C141.002 28.2207 139.713 29.3036 138.226 30.0424C134.335 31.8808 130.279 33.0666 126.155 34.0746C125.104 34.3381 124.055 34.5557 123.007 34.8192C124.835 34.8453 126.661 34.6945 128.46 34.3688C131.132 33.9244 133.764 33.2604 136.328 32.3833C139.918 31.1935 143.32 29.4952 146.43 27.34C147.85 26.3479 149.13 25.1689 150.236 23.8348C150.596 23.4019 150.85 22.8911 150.979 22.3426C150.998 22.1662 150.978 21.9876 150.919 21.8204C150.859 21.6531 150.763 21.5016 150.636 21.3774ZM144.425 26.1144L144.336 26.0255C144.382 25.8938 144.425 25.808 144.468 25.6762C145.956 23.4395 146.656 20.9393 146.913 18.2215C147.117 16.1221 146.969 14.0033 146.476 11.9526C146.294 11.1725 146.044 10.4097 145.73 9.67301C145.662 9.54304 145.63 9.39677 145.638 9.24992C145.646 9.10308 145.694 8.96122 145.776 8.8396C146.255 7.91429 146.858 7.05873 147.567 6.2965C147.721 6.15583 147.882 6.02387 148.05 5.90124C148.121 6.11238 148.209 6.31733 148.313 6.51404C149.085 8.885 149.426 11.3758 149.319 13.8676C149.247 15.4505 148.952 17.0152 148.445 18.5157C147.567 21.0159 146.476 23.4181 144.899 25.5322C144.731 25.762 144.556 25.9367 144.425 26.1144Z" fill="#EC008C"/>
<path d="M79.7367 24.5364C79.5121 23.8647 79.1402 23.2521 78.6483 22.7436C78.1563 22.2351 77.5568 21.8436 76.8939 21.5981C76.2282 21.3418 75.5393 21.151 74.8368 21.0282C73.2293 20.8019 71.6041 20.728 69.9828 20.8075C68.7448 20.8152 67.5126 20.9779 66.3148 21.2917C64.2576 21.9045 62.9035 23.2189 62.4206 25.3239C62.2447 26.1601 62.1566 27.0124 62.1577 27.867C62.1149 31.461 62.1577 38.6522 62.1577 42.2493C62.1501 42.4689 62.1655 42.6887 62.2035 42.905C62.9463 43.0368 65.1318 43.0368 65.7004 42.8621V34.3688C66.2261 34.5005 66.6632 34.6323 67.0575 34.7181C68.8916 35.1133 70.7256 35.0704 72.6115 35.0245C73.9006 35.0056 75.1811 34.8097 76.4171 34.4423C78.1227 33.9183 79.3057 32.8214 79.8284 31.1546L79.7367 24.5364ZM76.68 29.6655C76.5913 31.0688 75.98 31.7245 74.6259 32.0309C74.3534 32.1005 74.0751 32.1446 73.7945 32.1627C72.9172 32.2086 72.0002 32.2515 70.9945 32.3404C70.1631 32.2515 69.1605 32.2086 68.1946 32.1198C67.8986 32.0676 67.6065 31.9949 67.3204 31.9023C66.9423 31.8047 66.6005 31.5994 66.3363 31.3112C66.0721 31.023 65.8969 30.6642 65.8318 30.2783C65.7317 29.7434 65.6734 29.2015 65.6576 28.6575C65.6576 27.6913 65.7014 26.7262 65.789 25.762C65.8232 25.3326 65.995 24.9258 66.2787 24.6022C66.5623 24.2787 66.9428 24.0557 67.3632 23.9665C67.6473 23.8664 67.9399 23.7926 68.2374 23.7459C70.2986 23.4537 72.3916 23.4682 74.4486 23.7888C75.9372 24.0523 76.5883 24.754 76.68 26.24C76.7439 27.381 76.7419 28.5248 76.6739 29.6655H76.68Z" fill="black"/>
<path d="M118.969 23.9665C117.963 22.168 116.346 21.3775 114.384 21.0282C112.822 20.7728 111.235 20.7142 109.658 20.8535C108.684 20.9233 107.718 21.0844 106.773 21.3346C105.771 21.6053 104.864 22.1498 104.153 22.9073C103.442 23.6648 102.956 24.6054 102.747 25.6241C102.399 27.1093 102.399 28.6553 102.747 30.1405C102.939 31.1389 103.4 32.066 104.078 32.8218C104.757 33.5776 105.628 34.1337 106.599 34.4301C107.782 34.8188 109.021 35.0123 110.267 35.003H118.443C118.663 35.003 118.838 34.9571 119.055 34.9571V32.2822H118.266C115.775 32.2822 113.281 32.3282 110.786 32.2822C109.934 32.2825 109.084 32.1942 108.249 32.0187C106.721 31.6694 106.021 30.5725 106.11 28.9087H119.8C119.8 28.2071 119.843 27.5912 119.8 27.0213C119.745 25.955 119.462 24.9132 118.969 23.9665ZM106.241 26.1113C106.33 25.235 106.678 24.5793 107.421 24.181C107.81 23.9518 108.242 23.8028 108.689 23.7429C110.428 23.4215 112.214 23.4517 113.941 23.8317C114.321 23.9315 114.688 24.0787 115.032 24.2699C115.689 24.6651 115.995 25.2779 116.038 26.1542C112.791 26.1144 109.567 26.1144 106.241 26.1144V26.1113Z" fill="black"/>
<path d="M95.6557 21.2917C93.8217 20.7218 91.896 20.7647 90.0131 20.8535C89.0049 20.8814 88.0048 21.0431 87.0389 21.3346C86.0304 21.5875 85.1137 22.1209 84.3945 22.8733C83.6752 23.6258 83.1827 24.5666 82.9736 25.5874C82.572 27.1572 82.5867 28.8049 83.0164 30.3672C83.231 31.3279 83.6948 32.2149 84.3608 32.9385C85.0268 33.662 85.8716 34.1966 86.8097 34.4883C87.9805 34.8732 89.2058 35.0656 90.438 35.0582H98.6177C98.8377 35.0582 99.012 35.0153 99.229 35.0153V32.3404H90.976C90.0298 32.3744 89.0844 32.2554 88.176 31.9881C87.7608 31.8766 87.3832 31.655 87.083 31.3466C86.7829 31.0382 86.5712 30.6543 86.4704 30.2355C86.3848 29.8402 86.2962 29.4449 86.2106 28.875H100.03C100.118 27.2082 100.03 25.6303 99.2871 24.1841C98.924 23.4692 98.4119 22.8409 97.7853 22.3419C97.1588 21.8428 96.4325 21.4847 95.6557 21.2917ZM96.2243 26.1144H86.4704C86.5163 25.281 86.8219 24.6222 87.5219 24.227C87.9534 23.9695 88.4276 23.7921 88.9219 23.703C90.6596 23.3822 92.4438 23.4113 94.1702 23.7888C95.2186 24.0094 96.0042 24.5793 96.2243 25.762V25.8938C96.2854 25.9367 96.2854 25.9826 96.2243 26.1144Z" fill="black"/>
<path d="M37.3954 22.3426C36.4621 21.6367 35.363 21.1839 34.2042 21.0282C32.6424 20.7728 31.0549 20.7141 29.4786 20.8535C28.518 20.9238 27.5663 21.0849 26.6359 21.3346C25.6985 21.5723 24.8406 22.0543 24.1491 22.7318C23.4577 23.4093 22.9573 24.2581 22.6989 25.1921C22.1762 26.9671 22.1762 28.8557 22.6989 30.6307C22.9411 31.5323 23.4104 32.3564 24.0619 33.0239C24.7133 33.6914 25.5249 34.1798 26.4189 34.4423C27.5896 34.8282 28.8148 35.0216 30.0472 35.0153H38.2268C38.4041 35.0153 38.6211 34.9693 38.7954 34.9693V32.2944H38.0098C35.5156 32.2944 33.0213 32.3404 30.5301 32.2944C29.6606 32.3042 28.7934 32.2012 27.9503 31.988C26.5045 31.6387 25.7617 30.456 25.9359 28.875H39.6268C39.6887 27.8323 39.6158 26.786 39.4098 25.762C39.1914 24.4088 38.4721 23.1878 37.3954 22.3426ZM35.6042 26.1573H26.4342C26.3455 26.1573 26.2599 26.1144 26.1285 26.1144C26.1488 25.7375 26.2567 25.3706 26.4435 25.043C26.6303 24.7153 26.8909 24.4359 27.2044 24.227C27.601 24.0041 28.0286 23.842 28.473 23.7459C30.2549 23.4245 32.0823 23.4546 33.8527 23.8348C34.9898 24.0983 35.7784 24.754 35.9527 26.0684C35.8212 26.0684 35.6898 26.1573 35.6042 26.1573Z" fill="black"/>
<path d="M57.3861 22.3426C56.4514 21.6372 55.3514 21.1845 54.1918 21.0282C52.6311 20.7727 51.0445 20.714 49.4692 20.8535C48.5086 20.9233 47.5568 21.0844 46.6265 21.3346C45.6889 21.5717 44.8306 22.0536 44.1391 22.7312C43.4475 23.4088 42.9474 24.2579 42.6895 25.1921C42.1637 26.9667 42.1637 28.8561 42.6895 30.6307C42.9312 31.5321 43.4 32.3561 44.0509 33.0236C44.7018 33.6911 45.5129 34.1796 46.4065 34.4423C47.5781 34.8284 48.8044 35.0219 50.0378 35.0153H58.2175C58.3917 35.0153 58.6087 34.9693 58.786 34.9693V32.2944H57.9974C55.5031 32.2944 53.0119 32.3404 50.5177 32.2944C49.6482 32.304 48.7811 32.201 47.9379 31.988C46.4951 31.6388 45.7493 30.456 45.9266 28.875H59.6052C59.6686 27.8323 59.5957 26.7858 59.3882 25.762C59.1371 24.4238 58.4292 23.2148 57.3861 22.3426ZM55.552 26.1573H46.382C46.2934 26.1573 46.2078 26.1144 46.0763 26.1144C46.0984 25.7362 46.2086 25.3684 46.3981 25.0406C46.5876 24.7129 46.8512 24.4342 47.1676 24.227C47.5641 24.0041 47.9917 23.842 48.4361 23.7459C50.218 23.4245 52.0454 23.4546 53.8158 23.8348C54.9529 24.0983 55.7416 24.754 55.9158 26.0684C55.766 26.0684 55.6804 26.1573 55.549 26.1573H55.552Z" fill="black"/>
<path d="M14.7393 35.0582L26.373 11.9067H22.4391L13.2079 30.4959L3.937 11.9067H0L11.6337 35.0582H14.7393Z" fill="black"/>
</svg>
