<svg width="165" height="23" viewBox="0 0 165 23" fill="none" xmlns="http://www.w3.org/2000/svg">
<g clip-path="url(#clip0_19893_9989)">
<path d="M46.7576 18.4972C46.6212 18.4972 46.565 18.5549 46.5129 18.7773C46.3483 19.3376 46.1838 19.6754 45.9912 19.9556C45.6902 20.3758 45.0642 20.8825 44.5987 21.0761C44.1333 21.2738 42.3315 21.4427 40.7986 21.4427C40.6621 21.4427 40.5538 21.4427 39.2135 21.3604C37.9816 21.3027 37.7649 20.9072 37.7368 18.6661L37.6284 11.9016C37.6284 11.8152 37.6525 11.7327 37.7087 11.7039H37.9013C37.9013 11.7039 39.2937 11.6174 39.7592 11.6174C41.3724 11.6503 42.4117 11.6751 42.4117 11.6751C43.4751 11.7039 43.9687 12.153 44.1332 13.22C44.2175 13.8668 44.2977 14.0068 44.4904 14.0068C44.6268 14.0068 44.679 13.9203 44.679 13.7802V13.36L44.5144 11.3661V9.82125L44.5987 8.86962C44.5987 8.67188 44.5144 8.56065 44.382 8.56065C44.1894 8.56065 44.1051 8.7007 44.0248 9.14974C43.8603 10.1302 43.5032 10.328 41.9743 10.328H37.8451C37.6284 10.328 37.6003 10.2992 37.6003 10.019V2.75194L37.6283 1.93625C37.6283 1.68496 37.7367 1.62728 38.146 1.59844L39.2134 1.54485H42.6283C44.6267 1.54485 45.3089 1.93622 45.7463 3.39458L45.9108 3.93015C45.9911 4.1526 46.0754 4.23911 46.2118 4.23911C46.3763 4.23911 46.4847 4.09904 46.4847 3.79006C46.4847 3.67883 46.4565 3.53877 46.4285 3.36988C46.3763 2.86316 46.3201 2.21636 46.3201 1.62725C46.3201 1.40478 46.3201 1.20704 46.3483 1.0093V0.786839C46.3483 0.535542 46.2118 0.30896 45.9911 0.30896C45.9389 0.30896 45.8828 0.308963 39.5385 0.449028C39.4021 0.449028 32.2833 0.366665 31.1115 0.395457H30.6982C30.1244 0.395457 29.6308 0.366662 29.2496 0.337765C29.2496 0.337765 29.0048 0.308976 28.8403 0.308976C28.4831 0.308976 28.3748 0.449036 28.3748 0.589112C28.3748 0.729178 28.5112 0.869242 28.7319 0.898086L29.687 1.06699C30.2086 1.14936 30.5056 1.51603 30.5056 2.05159C30.5056 2.52534 30.2327 3.3122 29.6308 4.717L23.4831 18.9998C23.4269 19.1399 23.3467 19.1976 23.2905 19.1976C23.1821 19.1976 23.126 19.1152 23.0457 18.9463L17.3555 4.43274L16.7014 2.41412C16.6734 2.27404 16.6452 2.10514 16.6452 1.9074C16.6452 1.26473 16.8659 1.03816 17.5481 0.955761C17.8772 0.92697 18.0417 0.786855 18.0417 0.589112C18.0417 0.308971 17.6324 0.308976 17.4398 0.308976C17.1669 0.308976 15.4976 0.420207 15.2528 0.420207C14.7592 0.420207 13.2584 0.308976 12.9012 0.308976H12.0545C11.9181 0.308976 11.8097 0.420209 11.8097 0.560275C11.8097 0.758018 11.89 0.844521 12.2191 0.898086L13.0096 1.06699C13.5553 1.17822 13.9967 1.5737 14.2696 2.21637L16.2921 7.21351C16.2921 7.21351 16.4285 7.58016 16.4285 7.69139C16.4285 7.72018 16.4005 7.80262 16.3443 7.94269L16.0995 8.47412C15.634 9.48756 14.8957 11.2837 13.8844 13.8091C13.0658 15.8318 12.4117 17.3437 11.89 18.3572L11.5088 19.1152C11.4526 19.2264 11.3684 19.28 11.2881 19.28C11.2079 19.28 11.1517 19.2264 11.0955 19.1152L5.10835 4.01666C4.69904 2.94555 4.5626 2.38528 4.5626 2.02275C4.5626 1.4048 4.75522 1.14939 5.30096 1.03815C5.73837 0.926922 5.95907 0.786855 5.95907 0.589112C5.95907 0.395482 5.8467 0.308976 5.63001 0.308976L5.08427 0.366667H0.38122C0.136438 0.366667 0 0.477898 0 0.675641C0 0.898105 0.13644 1.00931 0.517656 1.06699L1.00722 1.14937C1.30819 1.20706 1.80176 1.65609 2.10273 2.13396C2.42777 2.69424 2.94944 3.79006 3.6878 5.58623L6.39647 12.0953L10.2207 21.7229C10.3852 22.1472 10.4655 22.3697 10.4655 22.3985C10.5497 22.7075 10.634 22.8187 10.7986 22.8187C10.8788 22.8187 10.9591 22.7899 10.9872 22.7363C11.0433 22.5922 11.0714 22.5922 11.1517 22.3697L16.6734 9.34749C16.7576 9.17859 16.866 9.06735 16.9462 9.06735C17.0305 9.06735 17.1388 9.14971 17.195 9.28981L17.5762 10.2744C18.0417 11.4526 18.5875 12.6885 19.1091 14.0068C20.4213 17.2902 21.24 19.3376 21.5931 20.1822L22.6324 22.6498C22.6605 22.7075 22.7729 22.7611 22.8531 22.7611C22.9334 22.7611 23.0177 22.7364 23.0457 22.6787C23.0698 22.6499 23.1541 22.5098 23.2343 22.2832L31.5449 2.75194C31.8178 2.10516 31.9703 1.58609 32.6404 1.20708C33.3106 0.828073 34.4422 0.655043 35.0843 1.34714C35.4093 1.69731 35.4133 2.41413 35.4655 3.42345C35.4935 3.76126 35.5497 9.4299 35.5497 9.4299V18.7774L35.5217 20.0957C35.4936 20.9361 35.3852 21.2739 35.0843 21.5005C34.8395 21.6941 34.3178 21.9207 33.9928 22.0031C33.443 22.1184 33.3628 22.2008 33.3628 22.3697C33.3628 22.4809 33.443 22.5633 33.5795 22.5633L34.1011 22.5387C34.8114 22.5099 37.2432 22.4563 40.606 22.4563C43.0939 22.4563 44.5987 22.5099 45.0642 22.5099H45.5538C46.0755 22.5099 46.1838 22.3986 46.3483 21.6118L46.6774 20.4047C46.8419 19.758 47.0064 18.9999 47.0064 18.7486C47.0064 18.555 46.9222 18.4973 46.7576 18.4973" fill="#57574A"/>
<path d="M57.8291 11.4815L55.9431 10.159C53.3187 8.30932 52.1991 6.7933 52.1991 5.10836C52.1991 2.83431 53.728 1.31828 55.9992 1.31828C57.0907 1.31828 57.9134 1.51602 58.5153 1.88267C59.0329 2.21637 59.1975 2.50063 59.4704 3.45226C59.5546 3.76124 59.6068 4.01253 59.6349 4.21028C59.7151 4.54808 59.7994 4.63048 59.992 4.63048C60.1806 4.63048 60.293 4.51925 60.293 4.29267C60.293 3.98369 60.1525 2.38527 60.1525 1.90739V1.48719C60.1525 0.704452 60.0442 0.506714 59.5265 0.449036C59.4142 0.449036 59.2256 0.420233 58.9527 0.395449C57.8291 0.22655 57.0386 0.168884 56.3524 0.168884C52.8291 0.168884 50.5859 2.44293 50.5859 5.94875C50.5859 7.24232 50.915 8.33403 51.5691 9.17856C52.1429 9.96129 52.9896 10.7481 54.659 11.9264L56.4647 13.2199C57.3636 13.8667 58.3508 14.876 58.7039 15.4651C58.9808 15.943 59.1694 16.7546 59.1694 17.5126C59.1694 19.9267 57.4198 21.694 55.0161 21.694C53.2103 21.694 51.9262 21.1914 51.2159 20.2069C50.8066 19.6754 50.5578 19.1151 50.3652 18.3283C50.313 18.0482 50.2288 17.9616 50.0402 17.9616C49.8756 17.9616 49.7914 18.0481 49.7914 18.2706C49.7914 18.5796 49.8756 19.0863 49.9278 19.3664C49.9278 19.3664 50.0683 20.0668 50.0923 20.3469L50.285 21.9206C50.3412 22.3409 50.3652 22.3944 50.5578 22.4562L51.3524 22.621C52.4439 22.8476 52.9655 22.9011 53.8644 22.9011C58.4029 22.9011 60.919 20.7424 60.919 16.8123C60.919 14.5382 60.1004 13.051 57.8291 11.4815Z" fill="#57574A"/>
<path d="M110.542 0.366648C110.132 0.366648 109.286 0.366655 108.106 0.391334H107.701C107.123 0.391334 106.633 0.366643 106.252 0.337746C106.252 0.337746 106.003 0.308957 105.839 0.308957C105.486 0.308957 105.373 0.449033 105.373 0.589109C105.373 0.729174 105.514 0.869238 105.73 0.898083L106.689 1.06697C107.207 1.14934 107.508 1.51602 107.508 2.05158C107.508 2.52533 107.235 3.31218 106.633 4.71698L100.482 18.9998C100.425 19.1399 100.345 19.1975 100.289 19.1975C100.181 19.1975 100.124 19.1111 100.044 18.9463L94.358 4.43273L93.7039 2.41411C93.6759 2.27404 93.6477 2.10513 93.6477 1.9115C93.6477 1.26472 93.8644 1.03814 94.5506 0.955742C94.8757 0.92695 95.0402 0.786852 95.0402 0.589109C95.0402 0.308968 94.6309 0.308957 94.4423 0.308957C94.1654 0.308957 92.5001 0.420187 92.2513 0.420187C91.7617 0.420187 90.2569 0.308957 89.8997 0.308957H89.053C88.9166 0.308957 88.8082 0.42019 88.8082 0.560255C88.8082 0.757998 88.8885 0.840405 89.2176 0.898083L90.0121 1.06697C90.5578 1.1782 90.9952 1.57369 91.2681 2.22047L93.2906 7.2135C93.2906 7.2135 93.427 7.58014 93.427 7.69137C93.427 7.72016 93.403 7.8026 93.3468 7.94267L93.102 8.4741C92.6325 9.48754 91.8981 11.2837 90.8869 13.809C90.0643 15.8277 89.4102 17.3437 88.8885 18.3571L88.5073 19.1111C88.4511 19.2264 88.3708 19.2799 88.2866 19.2799C88.2063 19.2799 88.1501 19.2264 88.098 19.1111L82.1108 4.01666C81.6975 2.94554 81.5651 2.38526 81.5651 2.02273C81.5651 1.40478 81.7537 1.14937 82.2994 1.03813C82.7408 0.926903 82.9575 0.786852 82.9575 0.589109C82.9575 0.391366 82.8492 0.308957 82.6285 0.308957L82.0827 0.366648L71.2641 0.420219C70.907 0.420219 63.0057 0.280151 63.0057 0.280151C62.789 0.280151 62.7609 0.308943 62.6806 0.675638L62.4599 1.65613L62.2151 2.92085L61.9664 3.76125C61.9423 3.84773 61.9142 3.90132 61.9142 3.98372C61.9142 4.09906 61.9944 4.15262 62.159 4.15262C62.2673 4.15262 62.3235 4.12795 62.4078 3.93018C62.8171 3.00325 63.3347 2.38529 63.8805 2.16283C64.4302 1.93625 65.1124 1.82502 66.5891 1.76734C67.2994 1.74267 67.9294 1.74266 68.4752 1.74266C69.9519 1.74266 70.0603 1.79624 70.0603 2.72314L70.004 16.8123C70.004 19.1399 69.9519 20.3223 69.7873 20.8002C69.6509 21.2162 69.2135 21.5829 68.7199 21.6941L67.7649 21.8919C67.7649 21.8919 67.3837 21.9496 67.2713 22.0031C67.1629 22.0608 67.1349 22.172 67.1349 22.2297C67.1349 22.3986 67.2191 22.5386 67.3556 22.5386C67.492 22.5386 67.793 22.5099 67.9294 22.5099L74.1052 22.5386H74.6549C74.8997 22.5386 75.0081 22.4274 75.0081 22.2297C75.0081 21.9495 74.7071 21.9495 74.5426 21.8919L73.9687 21.7806C72.6565 21.5293 72.167 21.0226 72.167 19.9556V2.97445C72.167 2.77671 72.195 2.22054 72.195 2.22054C72.2191 2.05164 72.3315 1.96512 72.5481 1.93628L73.1501 1.88268C73.7521 1.82499 74.679 1.7962 75.61 1.7962C77.3877 1.7962 78.9045 1.7344 79.35 2.60777C79.7994 3.48525 79.9479 3.7901 80.6903 5.58628L83.3949 12.0953L87.2232 21.7229C87.3877 22.1431 87.468 22.3697 87.468 22.3986C87.5482 22.7075 87.6325 22.8188 87.797 22.8188C87.8772 22.8188 87.9615 22.79 87.9856 22.7364C88.0418 22.5922 88.0699 22.5922 88.1501 22.3697L93.6758 9.34753C93.756 9.17863 93.8644 9.0674 93.9447 9.0674C94.0289 9.0674 94.1413 9.14976 94.1935 9.28986L94.5747 10.2745C95.0402 11.4527 95.5899 12.6886 96.1076 14.0069C97.4198 17.2902 98.2384 19.3377 98.5956 20.1822L99.6349 22.6499C99.6589 22.7076 99.7713 22.7611 99.8516 22.7611C99.9358 22.7611 100.016 22.7364 100.044 22.6787C100.072 22.65 100.153 22.5098 100.233 22.2833L108.547 2.75201C108.82 2.10522 109.093 1.48726 109.639 1.20712C109.888 1.06706 110.189 1.00939 110.405 0.984676C110.787 0.955884 111.059 0.840487 111.059 0.589189C111.059 0.391446 110.843 0.366728 110.542 0.366728" fill="#57574A"/>
<path d="M118.098 22.5097L118.563 22.5385C118.728 22.5385 118.836 22.4273 118.836 22.2584C118.836 22.0895 118.672 21.9783 118.347 21.9206C117.745 21.8094 117.279 21.6404 117.034 21.4427C116.597 21.0761 116.513 20.6311 116.485 18.9998L116.404 15.0449V7.5513C116.404 5.21958 116.485 3.11444 116.625 2.38526C116.677 2.13397 116.762 1.88267 116.926 1.68492C117.171 1.34711 117.608 1.09582 118.182 0.955745C118.62 0.869265 118.784 0.729164 118.784 0.531421C118.784 0.366635 118.728 0.30896 118.511 0.30896C117.665 0.366648 116.898 0.366651 115.638 0.366651H114.599C113.973 0.366651 113.178 0.30896 112.632 0.30896C112.303 0.30896 112.195 0.391325 112.195 0.617934C112.195 0.729165 112.251 0.815674 112.44 0.840395C112.44 0.840395 113.098 0.955746 113.315 1.0093C113.808 1.14938 114.165 1.68492 114.246 2.46766C114.298 2.89198 114.33 3.36987 114.33 3.90129L114.298 15.2097C114.27 19.8443 114.27 20.1821 113.973 20.8248C113.752 21.3027 113.315 21.6405 112.769 21.8094C112.219 21.9495 112.115 22.0607 112.115 22.2584C112.115 22.4274 112.219 22.5386 112.384 22.5386L112.769 22.5098C113.262 22.481 114.001 22.4274 114.984 22.4274C116.348 22.4274 117.416 22.481 118.098 22.5098" fill="#57574A"/>
<path d="M140.634 22.2296V13.6978C140.634 13.6978 140.855 4.85704 140.855 4.57691L140.935 2.44293C140.963 1.85382 141.099 1.54485 141.428 1.40478C141.701 1.26471 142.66 0.980452 142.66 0.980452C142.849 0.898085 142.929 0.81567 142.929 0.64676C142.929 0.449017 142.821 0.337787 142.604 0.337787H137.981C137.981 0.337787 137.628 0.308997 137.492 0.308997C137.219 0.308997 137.026 0.420232 137.026 0.646809C137.026 0.815718 137.219 0.898115 137.6 0.955782L138.174 1.03814C139.133 1.17821 139.651 1.68493 139.679 2.63657L139.707 3.31219L139.542 16.7258C139.542 17.3437 139.486 17.8216 139.462 18.0482C139.43 18.2459 139.406 18.3283 139.35 18.3283C139.322 18.3283 139.27 18.2995 139.185 18.2171L137.981 16.6434C136.834 15.1562 135.249 13.1623 133.254 10.6658C130.164 6.85098 127.977 4.04137 126.693 2.27404L125.489 0.671494C125.217 0.308965 124.916 0.140076 124.506 0.140076H122.347C122.207 0.140076 122.071 0.226543 122.071 0.36664C122.071 0.53555 122.291 0.64677 122.809 1.03814C123.218 1.34712 123.467 1.62725 124.37 2.69424C124.559 2.92082 124.723 3.36987 124.723 4.18144C124.723 4.3215 124.506 16.1119 124.506 16.1119C124.478 17.7104 124.45 19.2264 124.37 19.9267C124.342 20.2934 124.258 20.6312 124.121 20.9113C123.957 21.3027 123.551 21.6694 123.166 21.7517L122.564 21.8918C122.263 21.9783 122.127 22.0896 122.127 22.2585C122.127 22.3697 122.235 22.4809 122.428 22.4809C122.701 22.4809 124.944 22.4232 124.944 22.4232L127.977 22.5386C128.278 22.5386 128.387 22.4809 128.387 22.2832C128.387 22.1472 128.25 22.0072 128.058 21.9783L127.319 21.863C126.42 21.7229 125.871 20.9113 125.847 19.7331C125.847 19.7331 125.819 18.8309 125.819 18.5796V6.70678C125.819 6.06411 125.819 5.61507 125.899 5.38849C125.927 5.27726 126.007 5.21957 126.091 5.21957C126.144 5.21957 126.256 5.24836 126.336 5.35964C126.336 5.35964 126.774 5.86635 127.018 6.17533C127.018 6.17533 131.232 11.5638 131.561 11.984L136.918 18.4972L138.122 20.1245C138.258 20.3222 138.583 20.7424 139.049 21.4139C139.298 21.7806 139.486 22.0319 139.595 22.2296C139.98 22.8476 140.116 22.9876 140.361 22.9876C140.61 22.9876 140.634 22.8723 140.634 22.2296" fill="#57574A"/>
<path d="M164.482 14.6248C164.482 14.6248 162.701 14.7071 161.882 14.7071C160.815 14.7071 159.803 14.6494 159.502 14.6248C159.201 14.596 158.74 14.5671 158.656 14.5671C158.383 14.5671 158.19 14.7071 158.19 14.9296C158.19 15.1273 158.331 15.2386 158.519 15.2715L159.531 15.4075C160.518 15.5475 160.65 16.1655 160.65 17.0389V19.8979C160.65 20.9649 158.768 21.7229 156.168 21.7229C150.839 21.7229 146.902 17.0924 146.902 10.8635C146.902 4.74171 149.936 1.26472 155.241 1.26472C156.826 1.26472 157.781 1.48718 159.23 2.18752C159.888 2.52533 160.462 2.92081 160.899 3.31218C161.529 3.87245 161.746 4.29267 162.235 5.66862C162.348 6.00644 162.4 6.20419 162.456 6.45549C162.512 6.76446 162.564 6.90452 162.813 6.90452C163.114 6.90452 163.138 6.82216 163.138 6.56672C163.138 6.45549 163.114 6.00644 163.086 5.475C163.03 4.57279 163.002 3.62116 163.002 2.63656C163.002 2.18752 162.949 2.07628 162.564 1.88266L162.075 1.62726C160.405 0.786858 159.587 0.506716 158.331 0.255418C157.508 0.0865087 156.553 0 155.622 0C149.254 0 144.603 4.9683 144.603 11.7904C144.603 15.8565 146.244 19.2552 149.197 21.2739C151.027 22.5098 152.998 23.0165 156.14 23.0165C157.4 23.0165 158.275 22.8723 159.888 22.3985C160.598 22.172 161.172 21.9495 161.581 21.7517L162.564 21.2739C162.865 21.1338 162.949 21.0514 162.949 20.8248C162.949 20.7425 162.893 19.8155 162.893 19.5065V17.8793C162.893 16.2232 163.331 15.494 164.398 15.3786C164.836 15.3251 165 15.2097 165 14.9296C165 14.736 164.807 14.6248 164.482 14.6248Z" fill="#57574A"/>
</g>
<defs>
<clipPath id="clip0_19893_9989">
<rect width="165" height="23" fill="white"/>
</clipPath>
</defs>
</svg>
