<svg width="62" height="26" viewBox="0 0 62 26" fill="none" xmlns="http://www.w3.org/2000/svg">
<g clip-path="url(#clip0_17812_8479)">
<path d="M35.4855 0.975181C34.2893 1.59502 33.771 2.75204 33.771 5.89254C33.771 5.89254 34.3691 5.2727 35.326 4.9008C36.0237 4.63221 36.5221 4.28097 36.881 4.01237C37.9176 3.20659 38.0771 2.23551 38.0771 0.541296C38.0572 0.541296 36.4224 0.437991 35.4855 0.975181Z" fill="#FBBD71"/>
<path d="M28.1691 1.69851C27.1325 2.58694 26.8733 4.11586 26.8733 4.11586L23.5241 17.4216L20.773 6.53322C20.5138 5.37619 19.9955 3.95057 19.218 2.95884C18.2611 1.69851 16.2675 1.61586 16.0283 1.61586C15.8489 1.61586 13.8752 1.69851 12.8386 2.95884C12.0611 3.95057 11.5428 5.37619 11.2836 6.53322L8.69196 17.4216L5.34276 4.11586C5.34276 4.11586 5.0836 2.69024 4.04695 1.69851C2.41222 0.169581 0 0.541481 0 0.541481L6.37942 25.4382C6.37942 25.4382 8.45273 25.6241 9.48939 25.0869C10.865 24.3638 11.5627 23.8473 12.3402 20.4382C13.1177 17.401 15.191 8.55801 15.3505 7.93818C15.4302 7.66958 15.6096 6.8638 16.128 6.8638C16.6463 6.8638 16.8257 7.58694 16.9055 7.93818C17.0849 8.55801 19.1383 17.401 19.9158 20.4382C20.773 23.8266 21.3711 24.3638 22.7666 25.0869C23.8032 25.6241 25.8765 25.4382 25.8765 25.4382L32.2161 0.541481C32.2161 0.541481 29.8039 0.190242 28.1691 1.69851Z" fill="black"/>
<path d="M38.0571 4.54956C38.0571 4.54956 37.6185 5.1694 36.7613 5.70659C36.1632 6.05783 35.6449 6.24378 35.0468 6.59502C34.0101 7.13221 33.751 7.66939 33.751 8.47518V8.74378V10.0868V10.3553V25.3553C33.751 25.3553 35.3857 25.5413 36.4224 25.0041C37.7979 24.281 38.0571 23.5785 38.0571 20.5413V5.5413V4.54956Z" fill="black"/>
<path d="M53.9059 13.0413L61.9998 0.623946C61.9998 0.623946 58.6506 0.00411117 56.9162 1.61568C55.7998 2.60742 54.6834 4.46692 54.6834 4.46692L51.7529 8.92973C51.5735 9.19833 51.414 9.38428 51.1548 9.38428C50.8956 9.38428 50.6365 9.11568 50.5567 8.92973L47.6262 4.46692C47.6262 4.46692 46.43 2.69006 45.3934 1.61568C43.6789 0.00411117 40.3098 0.623946 40.3098 0.623946L48.1445 13.0206L40.1304 25.4173C40.1304 25.4173 43.659 25.8719 45.3934 24.2603C46.5098 23.2686 47.5464 21.5744 47.5464 21.5744L50.477 17.1115C50.6564 16.843 50.8159 16.657 51.0751 16.657C51.3342 16.657 51.5934 16.9256 51.6731 17.1115L54.6037 21.5744C54.6037 21.5744 55.7201 23.2686 56.7567 24.2603C58.4712 25.8719 61.9201 25.4173 61.9201 25.4173L53.9059 13.0413Z" fill="black"/>
</g>
<defs>
<clipPath id="clip0_17812_8479">
<rect width="62" height="25" fill="white" transform="translate(0 0.5)"/>
</clipPath>
</defs>
</svg>
