<svg width="121" height="26" viewBox="0 0 121 26" fill="none" xmlns="http://www.w3.org/2000/svg">
<g clip-path="url(#clip0_17427_3253)">
<path fill-rule="evenodd" clip-rule="evenodd" d="M37.1664 0.5H3.80389C1.69254 0.5 -0.0166345 2.25198 0.000122167 4.37817V17.3054C0.000122167 19.4486 1.7093 21.1836 3.82064 21.1836H19.6221L26.8443 25.2659L25.2022 21.1836H37.1664C39.2778 21.1836 40.9869 19.4486 40.9869 17.3054V4.37817C40.9869 2.23497 39.2778 0.5 37.1664 0.5ZM3.10018 3.49367C2.63099 3.5277 2.27909 3.69779 2.0445 4.02097C1.80991 4.32714 1.72613 4.71836 1.7764 5.16061C2.76504 11.5392 3.68666 15.8426 4.54125 18.0709C4.87639 18.8873 5.26179 19.2786 5.71422 19.2446C6.41799 19.1935 7.25582 18.207 8.24447 16.2849C8.76392 15.1962 9.56825 13.5634 10.6574 11.3861C11.5622 14.6009 12.8022 17.0163 14.3607 18.6322C14.7964 19.0914 15.2488 19.2955 15.6844 19.2615C16.0699 19.2275 16.3714 19.0234 16.5725 18.6491C16.7401 18.326 16.8071 17.9517 16.7736 17.5265C16.673 15.9787 16.8239 13.8185 17.2428 11.0459C17.6784 8.18831 18.2147 6.13015 18.8682 4.90547C19.0022 4.65033 19.0525 4.39517 19.0358 4.08901C19.0022 3.69778 18.8347 3.37461 18.5163 3.11947C18.198 2.86433 17.846 2.74526 17.4606 2.77927C16.9747 2.81329 16.606 3.05142 16.3547 3.5277C15.3158 5.44977 14.5785 8.56252 14.1429 12.8829C13.5061 11.25 12.9698 9.32795 12.5509 7.06567C12.3666 6.06212 11.9142 5.58585 11.1769 5.63688C10.6742 5.67089 10.2553 6.01109 9.92014 6.65745L6.25043 13.7504C5.64719 11.284 5.07746 8.27336 4.55801 4.71836C4.44071 3.83387 3.95476 3.42563 3.10018 3.49367ZM35.3902 4.71841C36.58 4.97357 37.4681 5.61992 38.0713 6.69152C38.6076 7.61004 38.8756 8.71566 38.8756 10.0424C38.8756 11.7943 38.44 13.3933 37.5686 14.8561C36.5632 16.5571 35.2562 17.4075 33.6308 17.4075C33.346 17.4075 33.0443 17.3735 32.7259 17.3054C31.5362 17.0503 30.6481 16.404 30.0448 15.3324C29.5087 14.3968 29.2406 13.2742 29.2406 11.9645C29.2406 10.2125 29.6763 8.6136 30.5476 7.16779C31.5698 5.46684 32.8768 4.61636 34.4854 4.61636C34.7703 4.61636 35.0719 4.65038 35.3902 4.71841ZM34.6865 13.9205C35.3065 13.3592 35.7254 12.5258 35.96 11.4032C36.0271 11.0119 36.0773 10.5867 36.0773 10.1445C36.0773 9.65119 35.9767 9.12389 35.7756 8.59659C35.5243 7.93322 35.1892 7.57602 34.787 7.49097C34.1838 7.3719 33.5973 7.7121 33.0443 8.54556C32.5919 9.19192 32.307 9.8723 32.1562 10.5697C32.0724 10.9609 32.0389 11.3862 32.0389 11.8114C32.0389 12.3047 32.1394 12.832 32.3405 13.3592C32.5919 14.0226 32.927 14.3798 33.3292 14.4649C33.7481 14.5499 34.2005 14.3628 34.6865 13.9205ZM27.5649 6.69152C26.9616 5.61992 26.0568 4.97357 24.8838 4.71841C24.5654 4.65038 24.2638 4.61636 23.9789 4.61636C22.3703 4.61636 21.0633 5.46684 20.0411 7.16779C19.1697 8.6136 18.7341 10.2125 18.7341 11.9645C18.7341 13.2742 19.0022 14.3968 19.5384 15.3324C20.1417 16.404 21.0298 17.0503 22.2195 17.3054C22.5378 17.3735 22.8394 17.4075 23.1244 17.4075C24.7497 17.4075 26.0568 16.5571 27.0621 14.8561C27.9335 13.3933 28.3691 11.7943 28.3691 10.0424C28.3691 8.71566 28.101 7.61004 27.5649 6.69152ZM25.4535 11.4032C25.219 12.5258 24.8 13.3592 24.18 13.9205C23.694 14.3628 23.2416 14.5499 22.8227 14.4649C22.4205 14.3798 22.0854 14.0226 21.8341 13.3592C21.633 12.832 21.5324 12.3047 21.5324 11.8114C21.5324 11.3862 21.5659 10.9609 21.6498 10.5697C21.8006 9.8723 22.0854 9.19192 22.5378 8.54556C23.0909 7.7121 23.6773 7.3719 24.2805 7.49097C24.6827 7.57602 25.0179 7.93322 25.2692 8.59659C25.4703 9.12389 25.5708 9.65119 25.5708 10.1445C25.5708 10.5867 25.5373 11.0119 25.4535 11.4032Z" fill="#7F54B3"/>
<path d="M45.2265 6.53833C44.1037 7.66096 43.5508 9.08975 43.5508 10.8247C43.5508 12.6788 44.1037 14.1926 45.2098 15.3323C46.3157 16.4719 47.7568 17.0502 49.5497 17.0502C50.0691 17.0502 50.6556 16.9652 51.2924 16.778V14.0225C50.706 14.1926 50.2032 14.2777 49.7675 14.2777C48.8794 14.2777 48.1757 13.9715 47.6394 13.3762C47.1033 12.7638 46.8351 11.9474 46.8351 10.9098C46.8351 9.94023 47.1033 9.14078 47.6227 8.52843C48.1588 7.89909 48.8124 7.59291 49.6167 7.59291C50.1362 7.59291 50.6891 7.67796 51.2924 7.84805V5.09251C50.7395 4.93942 50.1195 4.87138 49.4659 4.87138C47.7568 4.85437 46.3492 5.4157 45.2265 6.53833ZM56.8556 4.85437C55.314 4.85437 54.1075 5.38167 53.2361 6.41925C52.3648 7.45684 51.9459 8.91966 51.9459 10.7907C51.9459 12.8149 52.3815 14.3627 53.2361 15.4343C54.0907 16.506 55.3475 17.0502 56.9897 17.0502C58.5815 17.0502 59.8047 16.506 60.6593 15.4343C61.5139 14.3627 61.9496 12.8489 61.9496 10.9098C61.9496 8.97069 61.5139 7.47385 60.6426 6.41925C59.7545 5.38167 58.4977 4.85437 56.8556 4.85437ZM58.1794 13.6993C57.8777 14.1756 57.4253 14.4138 56.8556 14.4138C56.3194 14.4138 55.9172 14.1756 55.6324 13.6993C55.3475 13.223 55.2135 12.2705 55.2135 10.8247C55.2135 8.59648 55.7664 7.49085 56.8892 7.49085C58.0621 7.49085 58.6653 8.61349 58.6653 10.8758C58.6486 12.2705 58.481 13.223 58.1794 13.6993ZM70.2274 5.17755L69.6241 7.78002C69.4734 8.44339 69.3226 9.12377 69.1885 9.82116L68.8534 11.6242C68.535 9.82116 68.0993 7.67796 67.5464 5.17755H63.6588L62.2009 16.7611H65.1166L65.9042 8.78358L67.8982 16.7611H69.9761L71.8863 8.80059L72.7074 16.7611H75.7571L74.2155 5.17755H70.2274ZM84.1857 5.17755L83.5825 7.78002C83.4316 8.44339 83.2809 9.12377 83.1468 9.82116L82.8116 11.6242C82.4933 9.82116 82.0576 7.67796 81.5046 5.17755H77.6171L76.1593 16.7611H79.0749L79.8624 8.78358L81.8565 16.7611H83.9344L85.8279 8.80059L86.6489 16.7611H89.6987L88.157 5.17755H84.1857ZM93.6699 12.1855H96.4013V9.78714H93.6699V7.66095H96.8202V5.19457H90.5868V16.778H96.837V14.3117H93.6699V12.1855ZM105.517 10.3485C105.835 9.82116 106.003 9.27686 106.003 8.71554C106.003 7.62694 105.584 6.75945 104.746 6.13009C103.908 5.50074 102.752 5.17755 101.311 5.17755H97.725V16.7611H100.808V11.4881H100.859L103.355 16.7611H106.606L104.143 11.5391C104.729 11.267 105.199 10.8758 105.517 10.3485ZM100.792 10.1613V7.4058C101.529 7.42282 102.048 7.54188 102.367 7.78002C102.685 8.01815 102.836 8.39236 102.836 8.93666C102.836 9.73611 102.149 10.1443 100.792 10.1613ZM107.812 6.53833C106.69 7.66096 106.137 9.08975 106.137 10.8247C106.137 12.6788 106.69 14.1926 107.796 15.3323C108.902 16.4719 110.342 17.0502 112.136 17.0502C112.655 17.0502 113.242 16.9652 113.878 16.778V14.0225C113.292 14.1926 112.789 14.2777 112.353 14.2777C111.466 14.2777 110.762 13.9715 110.226 13.3762C109.689 12.7638 109.422 11.9474 109.422 10.9098C109.422 9.94023 109.689 9.14078 110.209 8.52843C110.745 7.89909 111.398 7.59291 112.202 7.59291C112.722 7.59291 113.275 7.67796 113.878 7.84805V5.09251C113.326 4.93942 112.706 4.87138 112.053 4.87138C110.36 4.85437 108.935 5.4157 107.812 6.53833ZM117.817 14.2777V12.1685H120.547V9.77013H117.817V7.64395H120.983V5.17755H114.75V16.7611H121V14.2947H117.817V14.2777Z" fill="black"/>
</g>
<defs>
<clipPath id="clip0_17427_3253">
<rect width="121" height="25" fill="white" transform="translate(0 0.5)"/>
</clipPath>
</defs>
</svg>
