<svg width="85" height="29" viewBox="0 0 85 29" fill="none" xmlns="http://www.w3.org/2000/svg">
<g clip-path="url(#clip0_17812_8332)">
<path d="M84.4697 0.5H0.469727V28.5H84.4697V0.5Z" fill="#E32213"/>
<path d="M15.3524 19.6679L10.2394 12.0457C9.74632 11.3198 9.98371 10.3519 10.7507 9.90251C11.5176 9.43584 12.5402 9.66053 13.015 10.3865L15.3341 13.8605L17.6533 10.3865C18.1463 9.66053 19.1507 9.45312 19.9176 9.90251C20.6846 10.3692 20.9037 11.3198 20.4289 12.0457L15.3524 19.6679Z" fill="white"/>
<path d="M22.7845 19.6679L17.6715 12.0457C17.1784 11.3198 17.4158 10.3519 18.1828 9.90251C18.9498 9.43584 19.9724 9.66053 20.4471 10.3865L22.7663 13.8605L25.0854 10.3865C25.5784 9.66053 26.5828 9.45312 27.3498 9.90251C28.1167 10.3692 28.3358 11.3198 27.8611 12.0457L22.7845 19.6679Z" fill="white"/>
<path d="M33.5584 9.53949C30.5089 9.53949 28.0254 11.821 28.0254 14.6383C28.0254 17.4555 30.5089 19.737 33.5584 19.737C36.608 19.737 39.0915 17.4555 39.0915 14.6383C39.0915 11.821 36.608 9.53949 33.5584 9.53949ZM33.5584 17.058C32.2802 17.058 31.221 15.9518 31.221 14.6037C31.221 13.2555 32.2619 12.1494 33.5584 12.1494C34.855 12.1494 35.8958 13.2555 35.8958 14.6037C35.8958 15.9518 34.855 17.058 33.5584 17.058Z" fill="white"/>
<path d="M43.1634 19.4605H39.8765V13.2901C39.8765 11.3543 41.5382 9.78149 43.5834 9.78149H45.9391V12.4605H43.6747C43.4373 12.4605 43.1452 12.7889 43.1452 13.0136V19.4605H43.1634Z" fill="white"/>
<path d="M49.9204 16.2975V12.4432H51.363C52.1482 12.4432 52.7691 11.8382 52.7691 11.1123C52.7691 10.3691 52.1299 9.78145 51.363 9.78145H49.9204V8.45059C49.9204 7.69009 49.263 7.06787 48.3499 7.06787C47.5099 7.06787 46.8525 7.74195 46.8525 8.55429V16.5395C46.8525 18.1642 48.2404 19.4778 49.9569 19.4778H52.7691V16.7815H50.4317C50.1578 16.7815 49.9204 16.5568 49.9204 16.2975Z" fill="white"/>
<path d="M63.5976 15.6062C63.6706 15.2951 63.7071 14.9667 63.7071 14.621C63.7071 11.821 61.2967 9.52228 58.3384 9.52228C55.3802 9.52228 52.9697 11.8038 52.9697 14.621C52.9697 17.4383 55.3802 19.7198 58.3384 19.7198C60.621 19.7198 62.5932 18.3544 63.3602 16.4359H60.128C59.6715 16.9371 59.0141 17.2482 58.3019 17.2482C57.2428 17.2482 56.3297 16.5741 55.9462 15.6062H63.5976ZM58.3019 12.0112C59.2515 12.0112 60.0732 12.547 60.4932 13.342H56.0923C56.5306 12.547 57.3523 12.0112 58.3019 12.0112Z" fill="white"/>
<path d="M74.9194 19.5123H71.742L71.7238 14.6383C71.7238 14.016 71.4316 12.5123 69.5873 12.5123C68.1081 12.5123 67.5603 13.6876 67.5603 14.3444C67.5603 15.6926 67.5603 19.5123 67.5603 19.5123H64.4194V14.3444C64.4194 12.3913 66.0264 9.64319 69.5873 9.64319C73.0386 9.64319 74.9012 12.2185 74.9012 14.6383V19.5123H74.9194Z" fill="white"/>
</g>
<defs>
<clipPath id="clip0_17812_8332">
<rect width="84" height="28" fill="white" transform="translate(0.469727 0.5)"/>
</clipPath>
</defs>
</svg>
