<svg width="135" height="30" viewBox="0 0 135 30" fill="none" xmlns="http://www.w3.org/2000/svg">
<g clip-path="url(#clip0_7963_1039)">
<path d="M41.8941 4.6978C41.3996 2.85714 39.9435 1.4011 38.1029 0.906593C34.7787 0 21.3996 0 21.3996 0C21.3996 0 8.02045 0.0274726 4.69627 0.934066C2.85561 1.42857 1.39957 2.88462 0.905064 4.72528C-0.111419 10.6319 -0.496035 19.6429 0.932537 25.3022C1.42704 27.1429 2.88309 28.5989 4.72375 29.0934C8.04792 30 21.427 30 21.427 30C21.427 30 34.8062 30 38.1303 29.0934C39.971 28.5989 41.427 27.1429 41.9215 25.3022C42.9655 19.3956 43.2952 10.3846 41.8941 4.6978Z" fill="#FF0000"/>
<path d="M17.1428 21.4286L28.2417 15L17.1428 8.57141V21.4286Z" fill="white"/>
<path d="M62.1154 27.2802C61.2637 26.7033 60.6593 25.8241 60.3022 24.6153C59.945 23.4066 59.7802 21.8132 59.7802 19.8077V17.0879C59.7802 15.0824 59.9725 13.434 60.3846 12.2252C60.7967 10.989 61.4286 10.1099 62.3077 9.56041C63.1868 9.01095 64.3132 8.70876 65.7143 8.70876C67.0879 8.70876 68.2143 8.98348 69.0385 9.56041C69.8626 10.1373 70.4945 11.0164 70.8791 12.2252C71.2637 13.434 71.456 15.0549 71.456 17.0604V19.7802C71.456 21.7857 71.2637 23.3791 70.8791 24.5879C70.4945 25.7967 69.8901 26.6758 69.0385 27.2527C68.1868 27.8022 67.033 28.1044 65.6044 28.1044C64.1209 28.1318 62.967 27.8296 62.1154 27.2802ZM66.8681 24.3406C67.1154 23.7362 67.2253 22.7197 67.2253 21.3461V15.4945C67.2253 14.1483 67.1154 13.1593 66.8681 12.5549C66.6209 11.923 66.2088 11.6208 65.6319 11.6208C65.0549 11.6208 64.6703 11.923 64.4231 12.5549C64.1758 13.1868 64.0659 14.1483 64.0659 15.4945V21.3461C64.0659 22.7197 64.1758 23.7362 64.3956 24.3406C64.6154 24.945 65.0275 25.2472 65.6319 25.2472C66.2088 25.2472 66.6209 24.945 66.8681 24.3406ZM127.088 19.8626V20.8241L127.198 23.5439C127.28 24.1483 127.418 24.5879 127.637 24.8626C127.857 25.1373 128.214 25.2747 128.681 25.2747C129.313 25.2747 129.753 25.0274 129.973 24.5329C130.22 24.0384 130.33 23.2143 130.357 22.0879L134.011 22.3077C134.038 22.4725 134.038 22.6923 134.038 22.967C134.038 24.6978 133.571 25.989 132.61 26.8406C131.648 27.6923 130.33 28.1318 128.599 28.1318C126.511 28.1318 125.055 27.4725 124.231 26.1813C123.407 24.8901 122.967 22.8571 122.967 20.1373V16.8132C123.049 12.1428 123.874 8.73623 128.709 8.70876C130.165 8.70876 131.264 8.98348 132.033 9.50546C132.802 10.0274 133.352 10.8516 133.681 11.978C134.011 13.1044 134.148 14.6428 134.148 16.6208V19.8351L127.088 19.8626ZM127.637 11.9505C127.418 12.2252 127.28 12.6373 127.198 13.2417C127.115 13.8461 127.088 15.989 127.088 15.989V17.3351H130.165V15.989C130.165 17.3351 130.137 13.8736 130.055 13.2417C129.973 12.6099 129.835 12.1703 129.615 11.923C129.396 11.6758 129.066 11.5384 128.626 11.5384C128.159 11.5659 127.83 11.7033 127.637 11.9505ZM51.8407 19.5055L47.033 2.14282H51.2363C51.2363 2.14282 53.1868 10.8516 53.8736 14.945H53.9835C54.7527 10.6044 56.6758 2.14282 56.6758 2.14282H60.8791L56.0165 19.478V27.8022H51.8681V19.5055H51.8407Z" fill="#282828"/>
<path d="M85.0825 9.06592V27.8297H81.7858L81.4286 25.522H81.3462C80.4396 27.2527 79.0935 28.1319 77.3078 28.1319C74.066 28.1319 73.7089 25.3846 73.6814 23.0769V9.06592H77.9122V22.8297C77.9122 23.6538 77.9946 24.2582 78.1869 24.6154C78.5715 25.3846 79.588 25.1923 80.1374 24.8077C80.4671 24.5879 80.7143 24.3132 80.8792 23.956V9.06592H85.0825Z" fill="#282828"/>
<path d="M96.566 5.54941H92.3628V27.8296H88.2419V5.54941H84.0386V2.14281H96.5386L96.566 5.54941ZM120.714 12.0604C120.467 10.8791 120.055 10.0274 119.478 9.47798C118.901 8.956 118.132 8.68127 117.115 8.68127C116.346 8.68127 115.577 8.90105 114.945 9.34062C114.258 9.78018 113.764 10.3571 113.379 11.0714H113.352V1.18127H109.286V27.8022H112.775L113.214 26.0164H113.297C113.626 26.6483 114.148 27.1703 114.753 27.5274C115.412 27.8846 116.126 28.0769 116.923 28.0769C118.352 28.0769 119.396 27.4175 120.083 26.0989C120.742 24.7802 121.099 22.7197 121.099 19.945V16.978C121.099 14.8901 120.962 13.2417 120.714 12.0604ZM116.841 19.7252C116.841 21.0989 116.786 22.1703 116.676 22.9395C116.566 23.7087 116.374 24.2582 116.099 24.5879C115.824 24.9175 115.467 25.0824 115.028 25.0824C114.176 25.0549 113.681 24.6703 113.352 24.0934V13.434C113.489 12.912 113.736 12.5 114.094 12.1703C114.698 11.4835 115.742 11.4835 116.209 12.1703C116.456 12.5 116.594 13.0769 116.703 13.8736C116.786 14.6703 116.841 15.7967 116.841 17.2802V19.7252Z" fill="#282828"/>
<path d="M106.758 9.06592V27.8297H103.462L103.104 25.522H103.022C102.115 27.2527 100.769 28.1319 98.9835 28.1319C95.7418 28.1319 95.3847 25.3846 95.3572 23.0769V9.06592H99.5879V22.8297C99.5879 23.6538 99.6704 24.2582 99.8627 24.6154C100.247 25.3846 101.264 25.1923 101.813 24.8077C102.143 24.5879 102.39 24.3132 102.555 23.956V9.06592H106.758Z" fill="#282828"/>
</g>
<defs>
<clipPath id="clip0_7963_1039">
<rect width="134.148" height="30" fill="white"/>
</clipPath>
</defs>
</svg>
